{
.appVersion = "1271";
copyright = "Copyright (c) 2011 TypeSETit, LLC (typesetit@att.net),\012with Reserved Font Name \"Qwigley\"";
customParameters = (
{
name = trademark;
value = "Qwigley is a trademark of TypeSETit, LLC";
},
{
name = licenseURL;
value = "http://scripts.sil.org/OFL";
},
{
name = license;
value = "This Font Software is licensed under the SIL Open Font License, Version 1.1. This license is available with a FAQ at: http://scripts.sil.org/OFL";
},
{
name = vendorID;
value = "TSI ";
},
{
name = panose;
value = (
2,
0,
0,
0,
0,
0,
0,
0,
0,
0
);
},
{
name = unicodeRanges;
value = (
0,
1,
2,
3,
5,
31,
33,
35,
38,
60
);
},
{
name = fsType;
value = (
);
},
{
name = glyphOrder;
value = (
.notdef,
NULL,
CR,
space,
exclam,
quotedbl,
numbersign,
dollar,
percent,
ampersand,
quotesingle,
parenleft,
parenright,
asterisk,
plus,
comma,
hyphen,
period,
slash,
zero,
one,
two,
three,
four,
five,
six,
seven,
eight,
nine,
colon,
semicolon,
less,
equal,
greater,
question,
at,
A,
B,
C,
D,
E,
F,
G,
H,
I,
J,
K,
L,
M,
N,
O,
P,
Q,
R,
S,
T,
U,
V,
W,
X,
Y,
Z,
bracketleft,
backslash,
bracketright,
asciicircum,
underscore,
grave,
a,
b,
c,
d,
e,
f,
g,
h,
i,
j,
k,
l,
m,
n,
o,
p,
q,
r,
s,
t,
u,
v,
w,
x,
y,
z,
braceleft,
bar,
braceright,
asciitilde,
DEL,
exclamdown,
cent,
sterling,
currency,
yen,
brokenbar,
section,
dieresis,
copyright,
ordfeminine,
guillemotleft,
logicalnot,
uni00AD,
registered,
overscore,
degree,
plusminus,
twosuperior,
threesuperior,
acute,
mu,
paragraph,
middot,
cedilla,
onesuperior,
ordmasculine,
guillemotright,
onequarter,
onehalf,
threequarters,
questiondown,
Agrave,
Aacute,
Acircumflex,
Atilde,
Adieresis,
Aring,
AE,
Ccedilla,
Egrave,
Eacute,
Ecircumflex,
Edieresis,
Igrave,
Iacute,
Icircumflex,
Idieresis,
Eth,
Ntilde,
Ograve,
Oacute,
Ocircumflex,
Otilde,
Odieresis,
multiply,
Oslash,
Ugrave,
Uacute,
Ucircumflex,
Udieresis,
Yacute,
Thorn,
germandbls,
agrave,
aacute,
acircumflex,
atilde,
adieresis,
aring,
ae,
ccedilla,
egrave,
eacute,
ecircumflex,
edieresis,

glyphs = (
{
glyphname = exclam;
layers = (
{
hints = (
{
horizontal = 1;
place = "{9, 12}";
type = Stem;
},
{
place = "{48, 10}";
type = Stem;
}
);
layerId = "8B85D65B-9817-42FC-8CCD-19CD4C331E33";
paths = (
{
closed = 1;
nodes = (
"302 392 OFFCURVE",
"309 397 OFFCURVE",
"282 404 CURVE SMOOTH",
"269 408 OFFCURVE",
"258 410 OFFCURVE",
"248 410 CURVE SMOOTH",
"234 410 OFFCURVE",
"206 359 OFFCURVE",
"164 258 CURVE SMOOTH",
"122 157 OFFCURVE",
"101 96 OFFCURVE",
"101 73 CURVE SMOOTH",
"101 65 OFFCURVE",
"103 61 OFFCURVE",
"106 61 CURVE SMOOTH",
"111 61 OFFCURVE",
"134 100 OFFCURVE",
"173 178 CURVE SMOOTH",
"196 222 LINE SMOOTH",
"241 301 OFFCURVE",
"276 358 OFFCURVE",
"301 391 CURVE SMOOTH"
);
},
{
closed = 1;
nodes = (
"125 17 OFFCURVE",
"116 21 OFFCURVE",
"99 21 CURVE SMOOTH",
"82 21 OFFCURVE",
"70 14 OFFCURVE",
"61 1 CURVE SMOOTH",
"52 -12 OFFCURVE",
"48 -27 OFFCURVE",
"48 -45 CURVE SMOOTH",
"48 -52 OFFCURVE",
"51 -55 OFFCURVE",
"58 -55 CURVE",
"103 -10 OFFCURVE",
"125 11 OFFCURVE",
"125 9 CURVE SMOOTH"
);
}
);
width = 195;
}
);
note = exclam;
unicode = 0021;
},
{
glyphname = quotedbl;
layers = (
{
hints = (
{
horizontal = 1;
place = "{290, 132}";
type = Stem;
},
{
place = "{83, 166}";
type = Stem;
}
);
layerId = "8B85D65B-9817-42FC-8CCD-19CD4C331E33";
paths = (
{
closed = 1;
nodes = (
"168 401 OFFCURVE",
"161 413 OFFCURVE",
"146 418 CURVE SMOOTH",
"139 421 OFFCURVE",
"127 422 OFFCURVE",
"120 422 CURVE SMOOTH",
"100 421 OFFCURVE",
"106 411 OFFCURVE",
"111 407 CURVE SMOOTH",
"131 393 OFFCURVE",
"112 347 OFFCURVE",
"104 331 CURVE SMOOTH",
"100 324 OFFCURVE",
"93 314 OFFCURVE",
"83 300 CURVE",
"83 296 OFFCURVE",
"80 283 OFFCURVE",
"95 295 CURVE SMOOTH",
"122 318 OFFCURVE",
"147 359 OFFCURVE",
"162 389 CURVE SMOOTH"
);
},
{
closed = 1;
nodes = (
"253 401 OFFCURVE",
"246 413 OFFCURVE",
"231 418 CURVE SMOOTH",
"224 421 OFFCURVE",
"212 422 OFFCURVE",
"205 422 CURVE SMOOTH",
"185 421 OFFCURVE",
"191 411 OFFCURVE",
"196 407 CURVE SMOOTH",
"216 393 OFFCURVE",
"197 347 OFFCURVE",
"189 331 CURVE SMOOTH",
"185 324 OFFCURVE",
"178 314 OFFCURVE",
"168 300 CURVE",
"168 296 OFFCURVE",
"165 283 OFFCURVE",
"180 295 CURVE SMOOTH",
"207 318 OFFCURVE",
"232 359 OFFCURVE",
"247 389 CURVE SMOOTH"
);
}
);
width = 247;
}
);
note = quotedbl;
unicode = 0022;
},
{
glyphname = numbersign;
layers = (
{
hints = (
{
horizontal = 1;
place = "{132, 35}";
type = Stem;
},
{
horizontal = 1;
place = "{298, 35}";
type = Stem;
},
{
place = "{-6, 592}";
type = Stem;
}
);
layerId = "8B85D65B-9817-42FC-8CCD-19CD4C331E33";
paths = (
{
closed = 1;
nodes = (
"434 330 LINE",
"453 378 OFFCURVE",
"477 404 OFFCURVE",
"477 432 CURVE SMOOTH",
"477 443 OFFCURVE",
"461 461 OFFCURVE",
"456 461 CURVE SMOOTH",
"449 461 OFFCURVE",
"428 417 OFFCURVE",
"394 329 CURVE",
"377 329 LINE SMOOTH",
"366 329 OFFCURVE",
"323 330 OFFCURVE",
"250 331 CURVE",
"263 365 OFFCURVE",
"285 409 OFFCURVE",
"289 429 CURVE SMOOTH",
"295 464 OFFCURVE",
"275 462 OFFCURVE",
"269 462 CURVE SMOOTH",
"265 462 OFFCURVE",
"259 451 OFFCURVE",
"250 429 CURVE SMOOTH",
"215 331 LINE",
"96 333 LINE SMOOTH",
"71 333 OFFCURVE",
"59 327 OFFCURVE",
"59 316 CURVE SMOOTH",
"59 307 OFFCURVE",
"67 302 OFFCURVE",
"83 300 CURVE SMOOTH",
"99 299 OFFCURVE",
"139 298 OFFCURVE",
"203 298 CURVE",
"186 246 OFFCURVE",
"170 203 OFFCURVE",
"156 168 CURVE",
"31 167 LINE SMOOTH",
"6 167 OFFCURVE",
"-6 162 OFFCURVE",
"-6 151 CURVE SMOOTH",
"-6 142 OFFCURVE",
"2 136 OFFCURVE",
"18 134 CURVE SMOOTH",
"34 133 OFFCURVE",
"75 132 OFFCURVE",
"142 132 CURVE",
"125 71 LINE",
"102 20 OFFCURVE",
"98 2 OFFCURVE",
"110 2 CURVE SMOOTH",
"121 2 OFFCURVE",
"134 21 OFFCURVE",
"149 59 CURVE SMOOTH",
"175 132 LINE",
"324 133 LINE",
"299 61 OFFCURVE",
"287 21 OFFCURVE",
"287 13 CURVE SMOOTH",
"287 6 OFFCURVE",
"289 2 OFFCURVE",
"294 2 CURVE SMOOTH",
"305 2 OFFCURVE",
"314 21 OFFCURVE",
"329 59 CURVE SMOOTH",
"361 133 LINE",
"429 135 LINE SMOOTH",
"442 135 OFFCURVE",
"460 138 OFFCURVE",
"484 143 CURVE SMOOTH",
"508 148 OFFCURVE",
"520 154 OFFCURVE",
"520 159 CURVE SMOOTH",
"520 165 OFFCURVE",
"508 168 OFFCURVE",
"483 168 CURVE SMOOTH",
"373 168 LINE",
"424 299 LINE",
"494 299 LINE SMOOTH",
"506 299 OFFCURVE",
"524 302 OFFCURVE",
"549 309 CURVE SMOOTH",
"574 316 OFFCURVE",
"586 321 OFFCURVE",
"586 326 CURVE SMOOTH",
"586 331 OFFCURVE",
"578 334 OFFCURVE",
"563 334 CURVE SMOOTH"
);
},
{
closed = 1;
nodes = (
"383 298 LINE",
"352 214 OFFCURVE",
"337 171 OFFCURVE",
"336 168 CURVE",
"188 168 LINE",
"239 298 LINE"
);
}
);
width = 596;
}
);
note = numbersign;
unicode = 0023;
},
{
glyphname = dollar;
layers = (
{
hints = (
{
horizontal = 1;
place = "{112, 30}";
type = Stem;
},
{
horizontal = 1;
place = "{437, 29}";
type = Stem;
},
{
place = "{33, 9}";
type = Stem;
},
{
place = "{152, 20}";
type = Stem;
},
{
place = "{230, 10}";
type = Stem;
},
{
place = "{44, 16}";
type = Stem;
},
{
place = "{269, 20}";
type = Stem;
}
);
layerId = "8B85D65B-9817-42FC-8CCD-19CD4C331E33";
paths = (
{
closed = 1;
nodes = (
"230 534 LINE SMOOTH",
"230 517 OFFCURVE",
"216 491 OFFCURVE",
"189 458 CURVE",
"92 433 OFFCURVE",
"44 396 OFFCURVE",
"44 347 CURVE SMOOTH",
"44 321 OFFCURVE",
"62 288 OFFCURVE",
"98 249 CURVE SMOOTH",
"134 213 OFFCURVE",
"152 191 OFFCURVE",
"152 184 CURVE SMOOTH",
"153 149 OFFCURVE",
"41 126 OFFCURVE",
"-3 155 CURVE",
"-4 151 LINE",
"9 132 OFFCURVE",
"28 120 OFFCURVE",
"55 114 CURVE",
"55 113 LINE",
"26 58 OFFCURVE",
"30 20 OFFCURVE",
"43 20 CURVE",
"45 22 LINE",
"42 32 LINE",
"42 49 OFFCURVE",
"57 75 OFFCURVE",
"88 112 CURVE",
"101 112 LINE SMOOTH",
"137 112 OFFCURVE",
"172 135 OFFCURVE",
"172 162 CURVE SMOOTH",
"172 182 OFFCURVE",
"153 212 OFFCURVE",
"116 251 CURVE SMOOTH",
"79 290 OFFCURVE",
"60 318 OFFCURVE",
"60 335 CURVE SMOOTH",
"60 360 OFFCURVE",
"82 384 OFFCURVE",
"125 405 CURVE SMOOTH",
"169 426 OFFCURVE",
"212 437 OFFCURVE",
"253 437 CURVE SMOOTH",
"264 437 OFFCURVE",
"269 435 OFFCURVE",
"269 432 CURVE SMOOTH",
"269 427 OFFCURVE",
"250 410 OFFCURVE",
"213 383 CURVE",
"213 380 LINE",
"219 380 OFFCURVE",
"233 386 OFFCURVE",
"255 399 CURVE SMOOTH",
"278 412 OFFCURVE",
"289 422 OFFCURVE",
"289 430 CURVE SMOOTH",
"289 436 OFFCURVE",
"286 443 OFFCURVE",
"279 450 CURVE SMOOTH",
"262 467 LINE",
"257 468 OFFCURVE",
"235 469 OFFCURVE",
"226 466 CURVE",
"245 515 OFFCURVE",
"243 545 OFFCURVE",
"230 545 CURVE",
"229 543 LINE"
);
}
);
width = 318;
}
);
note = dollar;
unicode = 0024;
},
{
glyphname = percent;
layers = (
{
hints = (
{
horizontal = 1;
place = "{-89, 22}";
type = Stem;
},
{
horizontal = 1;
place = "{254, 24}";
type = Stem;
},
{
horizontal = 1;
place = "{422, 24}";
type = Stem;
},
{
place = "{82, 25}";
type = Stem;
},
{
place = "{223, 35}";
type = Stem;
},
{
place = "{408, 19}";
type = Stem;
},
{
place = "{486, 45}";
type = Stem;
},
{
horizontal = 1;
place = "{456, 59}";
type = Stem;
},
{
place = "{72, 35}";
type = Stem;
},
{
place = "{257, 19}";
type = Stem;
},
{
horizontal = 1;
place = "{-114, 12}";
type = Stem;
},
{
horizontal = 1;
place = "{112, 60}";
type = Stem;
}
);
layerId = "8B85D65B-9817-42FC-8CCD-19CD4C331E33";
paths = (
{
closed = 1;
nodes = (
"107 -45 OFFCURVE",
"169 46 OFFCURVE",
"292 191 CURVE SMOOTH",
"523 456 LINE",
"534 465 OFFCURVE",
"537 472 OFFCURVE",
"513 491 CURVE SMOOTH",
"489 510 OFFCURVE",
"487 505 OFFCURVE",
"486 504 CURVE",
"405 465 OFFCURVE",
"338 446 OFFCURVE",
"287 446 CURVE SMOOTH",
"282 446 OFFCURVE",
"279 447 OFFCURVE",
"279 448 CURVE SMOOTH",
"281 458 OFFCURVE",
"282 467 OFFCURVE",
"282 475 CURVE SMOOTH",
"282 502 OFFCURVE",
"269 515 OFFCURVE",
"244 515 CURVE SMOOTH",
"217 515 OFFCURVE",
"181 487 OFFCURVE",
"137 431 CURVE SMOOTH",
"94 376 OFFCURVE",
"72 334 OFFCURVE",
"72 307 CURVE SMOOTH",
"72 280 OFFCURVE",
"90 254 OFFCURVE",
"111 254 CURVE SMOOTH",
"123 254 LINE SMOOTH",
"147 254 OFFCURVE",
"178 276 OFFCURVE",
"217 319 CURVE SMOOTH",
"256 362 OFFCURVE",
"276 396 OFFCURVE",
"276 419 CURVE SMOOTH",
"276 420 OFFCURVE",
"276 421 OFFCURVE",
"275 422 CURVE",
"325 423 OFFCURVE",
"386 440 OFFCURVE",
"457 474 CURVE",
"398 407 OFFCURVE",
"327 316 OFFCURVE",
"245 203 CURVE SMOOTH",
"136 52 OFFCURVE",
"82 -44 OFFCURVE",
"82 -86 CURVE SMOOTH",
"82 -105 OFFCURVE",
"88 -114 OFFCURVE",
"100 -114 CURVE SMOOTH",
"112 -114 OFFCURVE",
"118 -110 OFFCURVE",
"118 -102 CURVE",
"111 -96 OFFCURVE",
"107 -89 OFFCURVE",
"107 -82 CURVE SMOOTH"
);
},
{
closed = 1;
nodes = (
"443 100 OFFCURVE",
"429 102 OFFCURVE",
"429 105 CURVE",
"432 113 OFFCURVE",
"433 122 OFFCURVE",
"433 131 CURVE SMOOTH",
"433 158 OFFCURVE",
"420 172 OFFCURVE",
"395 172 CURVE SMOOTH",
"368 172 OFFCURVE",
"333 144 OFFCURVE",
"289 88 CURVE SMOOTH",
"245 33 OFFCURVE",
"223 -9 OFFCURVE",
"223 -37 CURVE SMOOTH",
"223 -62 OFFCURVE",
"241 -89 OFFCURVE",
"262 -89 CURVE SMOOTH",
"274 -89 LINE SMOOTH",
"297 -89 OFFCURVE",
"329 -67 OFFCURVE",
"368 -23 CURVE SMOOTH",
"407 20 OFFCURVE",
"427 53 OFFCURVE",
"427 76 CURVE SMOOTH",
"427 77 OFFCURVE",
"427 78 OFFCURVE",
"426 79 CURVE",
"437 84 OFFCURVE",
"443 90 OFFCURVE",
"443 96 CURVE SMOOTH"
);
},
{
closed = 1;
nodes = (
"113 278 OFFCURVE",
"107 287 OFFCURVE",
"107 304 CURVE SMOOTH",
"107 321 OFFCURVE",
"122 351 OFFCURVE",
"153 392 CURVE SMOOTH",
"184 433 OFFCURVE",
"208 455 OFFCURVE",
"227 456 CURVE",
"239 439 OFFCURVE",
"249 427 OFFCURVE",
"257 420 CURVE",
"256 401 OFFCURVE",
"238 373 OFFCURVE",
"204 335 CURVE SMOOTH",
"171 297 OFFCURVE",
"144 278 OFFCURVE",
"125 278 CURVE SMOOTH"
);
},
{
closed = 1;
nodes = (
"264 -67 OFFCURVE",
"258 -58 OFFCURVE",
"258 -40 CURVE SMOOTH",
"258 -22 OFFCURVE",
"273 8 OFFCURVE",
"304 49 CURVE SMOOTH",
"335 90 OFFCURVE",
"360 111 OFFCURVE",
"378 112 CURVE",
"387 96 OFFCURVE",
"397 84 OFFCURVE",
"408 77 CURVE",
"407 59 OFFCURVE",
"389 31 OFFCURVE",
"355 -8 CURVE SMOOTH",
"321 -47 OFFCURVE",
"295 -67 OFFCURVE",
"276 -67 CURVE SMOOTH"
);
}
);
width = 529;
}
);
note = percent;
unicode = 0025;
},
{
glyphname = ampersand;
layers = (
{
hints = (
{
horizontal = 1;
place = "{-108, 13}";
type = Stem;
},
{
horizontal = 1;
place = "{-36, 15}";
type = Stem;
},
{
horizontal = 1;
place = "{175, 14}";
type = Stem;
},
{
horizontal = 1;
place = "{235, 26}";
type = Stem;
},
{
horizontal = 1;
place = "{376, 8}";
type = Stem;
},
{
place = "{17, 30}";
type = Stem;
},
{
place = "{101, 20}";
type = Stem;
},
{
place = "{158, 31}";
type = Stem;
},
{
place = "{355, 16}";
type = Stem;
},
{
place = "{450, 20}";
type = Stem;
},
{
place = "{346, 26}";
type = Stem;
}
);
layerId = "8B85D65B-9817-42FC-8CCD-19CD4C331E33";
paths = (
{
closed = 1;
nodes = (
"439 299 OFFCURVE",
"450 297 OFFCURVE",
"450 293 CURVE SMOOTH",
"450 286 OFFCURVE",
"431 268 OFFCURVE",
"393 239 CURVE SMOOTH",
"355 210 OFFCURVE",
"324 193 OFFCURVE",
"301 187 CURVE",
"288 188 OFFCURVE",
"278 189 OFFCURVE",
"272 189 CURVE SMOOTH",
"200 189 OFFCURVE",
"150 154 OFFCURVE",
"150 125 CURVE SMOOTH",
"150 120 OFFCURVE",
"151 117 OFFCURVE",
"152 116 CURVE",
"155 128 OFFCURVE",
"169 141 OFFCURVE",
"193 154 CURVE SMOOTH",
"217 168 OFFCURVE",
"239 175 OFFCURVE",
"259 175 CURVE SMOOTH",
"266 175 OFFCURVE",
"270 174 OFFCURVE",
"271 171 CURVE",
"237 152 LINE",
"201 131 LINE SMOOTH",
"195 128 OFFCURVE",
"185 122 OFFCURVE",
"171 113 CURVE SMOOTH",
"157 104 OFFCURVE",
"147 97 OFFCURVE",
"141 91 CURVE SMOOTH",
"130 79 OFFCURVE",
"112 61 OFFCURVE",
"105 44 CURVE SMOOTH",
"100 28 OFFCURVE",
"99 5 OFFCURVE",
"106 -15 CURVE",
"67 0 OFFCURVE",
"47 26 OFFCURVE",
"47 65 CURVE SMOOTH",
"47 104 OFFCURVE",
"72 142 OFFCURVE",
"122 179 CURVE SMOOTH",
"173 216 OFFCURVE",
"224 235 OFFCURVE",
"276 235 CURVE SMOOTH",
"289 234 LINE",
"302 234 LINE",
"315 232 LINE SMOOTH",
"318 232 OFFCURVE",
"320 236 OFFCURVE",
"320 243 CURVE SMOOTH",
"320 255 OFFCURVE",
"309 261 OFFCURVE",
"288 261 CURVE",
"213 253 LINE",
"197 253 OFFCURVE",
"189 257 OFFCURVE",
"189 266 CURVE SMOOTH",
"189 278 OFFCURVE",
"218 315 OFFCURVE",
"282 348 CURVE SMOOTH",
"315 365 OFFCURVE",
"349 374 OFFCURVE",
"386 376 CURVE",
"345 323 OFFCURVE",
"350 281 OFFCURVE",
"371 277 CURVE",
"371 282 OFFCURVE",
"373 289 OFFCURVE",
"376 298 CURVE",
"376 308 OFFCURVE",
"391 325 OFFCURVE",
"415 352 CURVE SMOOTH",
"434 373 OFFCURVE",
"462 399 OFFCURVE",
"475 419 CURVE",
"475 430 OFFCURVE",
"469 435 OFFCURVE",
"456 435 CURVE SMOOTH",
"444 435 OFFCURVE",
"423 418 OFFCURVE",
"392 384 CURVE",
"333 384 OFFCURVE",
"279 371 OFFCURVE",
"230 345 CURVE SMOOTH",
"182 320 OFFCURVE",
"158 295 OFFCURVE",
"158 272 CURVE SMOOTH",
"158 261 OFFCURVE",
"165 253 OFFCURVE",
"180 249 CURVE",
"208 245 LINE",
"153 234 OFFCURVE",
"107 212 OFFCURVE",
"71 180 CURVE SMOOTH",
"35 148 OFFCURVE",
"17 113 OFFCURVE",
"17 74 CURVE SMOOTH",
"17 22 OFFCURVE",
"48 -23 OFFCURVE",
"113 -30 CURVE",
"142 -82 OFFCURVE",
"178 -108 OFFCURVE",
"221 -108 CURVE SMOOTH",
"237 -108 OFFCURVE",
"259 -100 OFFCURVE",
"259 -92 CURVE",
"258 -91 OFFCURVE",
"255 -95 OFFCURVE",
"228 -95 CURVE SMOOTH",
"201 -95 OFFCURVE",
"155 -66 OFFCURVE",
"131 -34 CURVE",
"135 -34 OFFCURVE",
"144 -35 OFFCURVE",
"157 -36 CURVE SMOOTH",
"212 -36 OFFCURVE",
"262 -22 OFFCURVE",
"306 6 CURVE SMOOTH",
"350 34 OFFCURVE",
"372 68 OFFCURVE",
"372 107 CURVE SMOOTH",
"372 136 OFFCURVE",
"357 159 OFFCURVE",
"326 177 CURVE",
"403 213 LINE SMOOTH",
"448 236 OFFCURVE",
"470 259 OFFCURVE",
"470 282 CURVE SMOOTH",
"470 298 OFFCURVE",
"462 306 OFFCURVE",
"445 306 CURVE",
"441 305 OFFCURVE",
"439 303 OFFCURVE",
"439 300 CURVE SMOOTH"
);
},
{
closed = 1;
nodes = (
"346 91 OFFCURVE",
"324 57 OFFCURVE",
"280 26 CURVE SMOOTH",
"237 -5 OFFCURVE",
"192 -21 OFFCURVE",
"147 -21 CURVE SMOOTH",
"137 -21 OFFCURVE",
"128 -20 OFFCURVE",
"121 -18 CURVE",
"121 -11 LINE SMOOTH",
"121 12 OFFCURVE",
"147 47 OFFCURVE",
"199 95 CURVE SMOOTH",
"251 144 OFFCURVE",
"286 168 OFFCURVE",
"303 168 CURVE SMOOTH",
"322 168 OFFCURVE",
"346 145 OFFCURVE",
"346 126 CURVE SMOOTH"
);
}
);
width = 445;
}
);
note = ampersand;
unicode = 0026;
},
{
glyphname = quotesingle;
layers = (
{
hints = (
{
horizontal = 1;
place = "{290, 132}";
type = Stem;
},
{
place = "{83, 81}";
type = Stem;
}
);
layerId = "8B85D65B-9817-42FC-8CCD-19CD4C331E33";
paths = (
{
closed = 1;
nodes = (
"168 401 OFFCURVE",
"161 413 OFFCURVE",
"146 418 CURVE SMOOTH",
"139 421 OFFCURVE",
"127 422 OFFCURVE",
"120 422 CURVE SMOOTH",
"100 421 OFFCURVE",
"106 411 OFFCURVE",
"111 407 CURVE SMOOTH",
"131 393 OFFCURVE",
"112 347 OFFCURVE",
"104 331 CURVE SMOOTH",
"100 324 OFFCURVE",
"93 314 OFFCURVE",
"83 300 CURVE",
"83 296 OFFCURVE",
"80 283 OFFCURVE",
"95 295 CURVE SMOOTH",
"122 318 OFFCURVE",
"147 359 OFFCURVE",
"162 389 CURVE SMOOTH"
);
}
);
width = 149;
}
);
note = quotesingle;
unicode = 0027;
},
{
glyphname = parenleft;
layers = (
{
hints = (
{
horizontal = 1;
place = "{-53, 27}";
type = Stem;
},
{
place = "{-4, 44}";
type = Stem;
}
);
layerId = "8B85D65B-9817-42FC-8CCD-19CD4C331E33";
paths = (
{
closed = 1;
nodes = (
"152 -53 LINE SMOOTH",
"163 -53 OFFCURVE",
"169 -49 OFFCURVE",
"169 -42 CURVE SMOOTH",
"169 -39 OFFCURVE",
"161 -36 OFFCURVE",
"145 -32 CURVE SMOOTH",
"129 -28 OFFCURVE",
"118 -26 OFFCURVE",
"113 -26 CURVE",
"64 -8 OFFCURVE",
"40 33 OFFCURVE",
"40 96 CURVE SMOOTH",
"40 143 OFFCURVE",
"54 195 OFFCURVE",
"83 250 CURVE SMOOTH",
"112 306 OFFCURVE",
"153 358 OFFCURVE",
"204 406 CURVE SMOOTH",
"255 454 OFFCURVE",
"310 488 OFFCURVE",
"369 509 CURVE",
"426 521 LINE SMOOTH",
"461 528 OFFCURVE",
"478 533 OFFCURVE",
"478 537 CURVE SMOOTH",
"478 542 OFFCURVE",
"473 545 OFFCURVE",
"463 545 CURVE SMOOTH",
"415 545 OFFCURVE",
"361 531 OFFCURVE",
"300 502 CURVE SMOOTH",
"239 473 OFFCURVE",
"184 436 OFFCURVE",
"133 391 CURVE SMOOTH",
"83 346 OFFCURVE",
"48 302 OFFCURVE",
"27 257 CURVE SMOOTH",
"-14 169 OFFCURVE",
"-18 72 OFFCURVE",
"38 3 CURVE SMOOTH",
"67 -32 OFFCURVE",
"102 -50 OFFCURVE",
"144 -53 CURVE SMOOTH"
);
}
);
width = 282;
}
);
note = parenleft;
unicode = 0028;
},
{
glyphname = parenright;
layers = (
{
hints = (
{
horizontal = 1;
place = "{-54, 599}";
type = Stem;
},
{
place = "{447, 42}";
type = Stem;
}
);
layerId = "8B85D65B-9817-42FC-8CCD-19CD4C331E33";
paths = (
{
closed = 1;
nodes = (
"499 332 OFFCURVE",
"503 420 OFFCURVE",
"447 489 CURVE SMOOTH",
"419 524 OFFCURVE",
"384 542 OFFCURVE",
"341 545 CURVE SMOOTH",
"337 545 LINE SMOOTH",
"324 545 OFFCURVE",
"317 542 OFFCURVE",
"317 535 CURVE SMOOTH",
"317 530 OFFCURVE",
"330 526 OFFCURVE",
"356 522 CURVE SMOOTH",
"365 520 OFFCURVE",
"371 519 OFFCURVE",
"372 518 CURVE",
"422 499 OFFCURVE",
"447 460 OFFCURVE",
"447 399 CURVE SMOOTH",
"447 339 OFFCURVE",
"428 277 OFFCURVE",
"389 213 CURVE SMOOTH",
"350 150 OFFCURVE",
"298 94 OFFCURVE",
"232 47 CURVE SMOOTH",
"166 0 OFFCURVE",
"97 -27 OFFCURVE",
"26 -36 CURVE SMOOTH",
"13 -38 OFFCURVE",
"6 -41 OFFCURVE",
"6 -44 CURVE SMOOTH",
"6 -51 OFFCURVE",
"11 -54 OFFCURVE",
"22 -54 CURVE SMOOTH",
"95 -54 OFFCURVE",
"178 -23 OFFCURVE",
"271 39 CURVE SMOOTH",
"364 101 OFFCURVE",
"427 167 OFFCURVE",
"458 236 CURVE SMOOTH"
);
}
);
width = 490;
}
);
note = parenright;
unicode = 0029;
},
{
glyphname = asterisk;
layers = (
{
hints = (
{
horizontal = 1;
place = "{231, 16}";
type = Stem;
},
{
horizontal = 1;
place = "{312, -20}";
target = down;
type = TopGhost;
},
{
place = "{29, 216}";
type = Stem;
},
{
horizontal = 1;
place = "{228, 20}";
type = Stem;
}
);
layerId = "8B85D65B-9817-42FC-8CCD-19CD4C331E33";
paths = (
{
closed = 1;
nodes = (
"245 245 OFFCURVE",
"239 247 OFFCURVE",
"227 247 CURVE SMOOTH",
"167 247 LINE",
"204 273 OFFCURVE",
"229 290 OFFCURVE",
"229 299 CURVE SMOOTH",
"229 309 OFFCURVE",
"230 312 OFFCURVE",
"218 312 CURVE SMOOTH",
"215 312 OFFCURVE",
"193 289 OFFCURVE",
"152 260 CURVE",
"159 297 OFFCURVE",
"162 320 OFFCURVE",
"162 329 CURVE SMOOTH",
"162 339 OFFCURVE",
"160 344 OFFCURVE",
"155 344 CURVE SMOOTH",
"152 344 OFFCURVE",
"149 336 OFFCURVE",
"144 319 CURVE SMOOTH",
"132 263 LINE",
"93 311 LINE SMOOTH",
"88 318 OFFCURVE",
"83 321 OFFCURVE",
"78 321 CURVE SMOOTH",
"75 321 OFFCURVE",
"74 318 OFFCURVE",
"73 311 CURVE SMOOTH",
"73 305 OFFCURVE",
"86 284 OFFCURVE",
"113 249 CURVE",
"47 247 LINE SMOOTH",
"35 246 OFFCURVE",
"29 243 OFFCURVE",
"29 237 CURVE SMOOTH",
"29 231 OFFCURVE",
"55 228 OFFCURVE",
"108 228 CURVE",
"61 190 LINE SMOOTH",
"55 185 OFFCURVE",
"49 182 OFFCURVE",
"49 177 CURVE SMOOTH",
"49 174 OFFCURVE",
"51 173 OFFCURVE",
"56 173 CURVE SMOOTH",
"61 173 OFFCURVE",
"82 189 OFFCURVE",
"119 216 CURVE",
"112 179 OFFCURVE",
"109 157 OFFCURVE",
"109 153 CURVE SMOOTH",
"109 143 OFFCURVE",
"111 138 OFFCURVE",
"116 138 CURVE SMOOTH",
"125 138 OFFCURVE",
"134 163 OFFCURVE",
"144 212 CURVE",
"178 174 OFFCURVE",
"197 154 OFFCURVE",
"205 151 CURVE SMOOTH",
"210 149 OFFCURVE",
"220 154 OFFCURVE",
"216 162 CURVE SMOOTH",
"215 165 OFFCURVE",
"194 189 OFFCURVE",
"161 231 CURVE",
"216 233 OFFCURVE",
"245 234 OFFCURVE",
"245 242 CURVE SMOOTH"
);
}
);
width = 265;
}
);
note = asterisk;
unicode = 002A;
},
{
glyphname = plus;
layers = (
{
hints = (
{
horizontal = 1;
place = "{132, 37}";
type = Stem;
},
{
place = "{177, 8}";
type = Stem;
}
);
layerId = "8B85D65B-9817-42FC-8CCD-19CD4C331E33";
paths = (
{
closed = 1;
nodes = (
"300 169 OFFCURVE",
"300 170 OFFCURVE",
"299 171 CURVE",
"279 170 OFFCURVE",
"255 169 OFFCURVE",
"228 169 CURVE SMOOTH",
"174 169 LINE",
"181 225 OFFCURVE",
"185 261 OFFCURVE",
"185 278 CURVE SMOOTH",
"185 295 OFFCURVE",
"182 303 OFFCURVE",
"177 303 CURVE",
"152 214 OFFCURVE",
"139 170 OFFCURVE",
"139 169 CURVE",
"50 169 LINE SMOOTH",
"25 169 OFFCURVE",
"14 166 OFFCURVE",
"14 150 CURVE SMOOTH",
"14 138 OFFCURVE",
"52 132 OFFCURVE",
"128 132 CURVE",
"113 75 OFFCURVE",
"105 45 OFFCURVE",
"105 43 CURVE SMOOTH",
"105 30 OFFCURVE",
"110 23 OFFCURVE",
"119 23 CURVE SMOOTH",
"132 23 OFFCURVE",
"148 61 OFFCURVE",
"168 136 CURVE",
"241 146 LINE",
"280 154 OFFCURVE",
"300 161 OFFCURVE",
"300 168 CURVE SMOOTH"
);
}
);
width = 306;
}
);
note = plus;
unicode = 002B;
},
{
glyphname = comma;
layers = (
{
hints = (
{
horizontal = 1;
place = "{-87, 107}";
type = Stem;
},
{
place = "{93, 33}";
type = Stem;
}
);
layerId = "8B85D65B-9817-42FC-8CCD-19CD4C331E33";
paths = (
{
closed = 1;
nodes = (
"82 -87 OFFCURVE",
"96 -77 OFFCURVE",
"108 -58 CURVE SMOOTH",
"120 -39 OFFCURVE",
"126 -23 OFFCURVE",
"126 -12 CURVE SMOOTH",
"126 11 OFFCURVE",
"111 20 OFFCURVE",
"95 20 CURVE SMOOTH",
"80 20 OFFCURVE",
"73 13 OFFCURVE",
"73 -2 CURVE SMOOTH",
"73 -7 OFFCURVE",
"93 -22 OFFCURVE",
"93 -33 CURVE",
"90 -47 OFFCURVE",
"80 -64 OFFCURVE",
"61 -85 CURVE",
"61 -86 OFFCURVE",
"62 -87 OFFCURVE",
"65 -87 CURVE SMOOTH"
);
}
);
width = 147;
}
);
note = comma;
unicode = 002C;
},
{
glyphname = hyphen;
layers = (
{
hints = (
{
horizontal = 1;
place = "{132, 36}";
type = Stem;
},
{
place = "{14, 201}";
type = Stem;
}
);
layerId = "8B85D65B-9817-42FC-8CCD-19CD4C331E33";
paths = (
{
closed = 1;
nodes = (
"33 168 LINE SMOOTH",
"20 168 OFFCURVE",
"14 162 OFFCURVE",
"14 150 CURVE SMOOTH",
"14 138 OFFCURVE",
"29 132 OFFCURVE",
"59 132 CURVE SMOOTH",
"63 132 OFFCURVE",
"94 136 OFFCURVE",
"152 145 CURVE SMOOTH",
"194 152 OFFCURVE",
"215 159 OFFCURVE",
"215 168 CURVE SMOOTH",
"215 171 LINE",
"195 170 OFFCURVE",
"176 169 OFFCURVE",
"159 169 CURVE SMOOTH",
"128 169 LINE",
"80 168 LINE"
);
}
);
width = 224;
}
);
note = hyphen;
unicode = 002D;
},
{
glyphname = period;
layers = (
{
hints = (
{
horizontal = 1;
place = "{-33, 58}";
type = Stem;
},
{
place = "{66, 60}";
type = Stem;
}
);
layerId = "8B85D65B-9817-42FC-8CCD-19CD4C331E33";
paths = (
{
closed = 1;
nodes = (
"90 -33 OFFCURVE",
"126 -17 OFFCURVE",
"126 -4 CURVE SMOOTH",
"126 8 OFFCURVE",
"118 25 OFFCURVE",
"102 25 CURVE SMOOTH",
"83 25 OFFCURVE",
"66 13 OFFCURVE",
"66 -1 CURVE SMOOTH",
"66 -19 OFFCURVE",
"57 -33 OFFCURVE",
"78 -33 CURVE SMOOTH"
);
}
);
width = 170;
}
);
note = period;
unicode = 002E;
},
{
glyphname = slash;
layers = (
{
hints = (
{
horizontal = 1;
place = "{-105, 12}";
type = Stem;
},
{
place = "{18, 26}";
type = Stem;
}
);
layerId = "8B85D65B-9817-42FC-8CCD-19CD4C331E33";
paths = (
{
closed = 1;
nodes = (
"44 -36 OFFCURVE",
"147 103 OFFCURVE",
"354 342 CURVE SMOOTH",
"461 466 LINE SMOOTH",
"466 472 OFFCURVE",
"468 477 OFFCURVE",
"468 480 CURVE SMOOTH",
"468 493 OFFCURVE",
"453 499 OFFCURVE",
"423 499 CURVE SMOOTH",
"401 499 OFFCURVE",
"295 363 OFFCURVE",
"105 91 CURVE SMOOTH",
"61 26 OFFCURVE",
"35 -12 OFFCURVE",
"28 -25 CURVE SMOOTH",
"21 -38 OFFCURVE",
"18 -55 OFFCURVE",
"18 -75 CURVE SMOOTH",
"18 -95 OFFCURVE",
"24 -105 OFFCURVE",
"36 -105 CURVE SMOOTH",
"49 -105 OFFCURVE",
"55 -101 OFFCURVE",
"55 -93 CURVE",
"48 -87 OFFCURVE",
"44 -81 OFFCURVE",
"44 -74 CURVE SMOOTH"
);
}
);
width = 455;
}
);
note = slash;
unicode = 002F;
},
{
glyphname = zero;
layers = (
{
hints = (
{
horizontal = 1;
place = "{-43, 44}";
type = Stem;
},
{
horizontal = 1;
place = "{285, 34}";
type = Stem;
},
{
horizontal = 1;
place = "{361, 31}";
type = Stem;
},
{
place = "{15, 32}";
type = Stem;
},
{
place = "{407, 37}";
type = Stem;
}
);
layerId = "8B85D65B-9817-42FC-8CCD-19CD4C331E33";
paths = (
{
closed = 1;
nodes = (
"105 334 LINE",
"152 352 OFFCURVE",
"208 361 OFFCURVE",
"272 361 CURVE SMOOTH",
"362 361 OFFCURVE",
"407 339 OFFCURVE",
"407 295 CURVE SMOOTH",
"407 260 OFFCURVE",
"389 219 OFFCURVE",
"352 172 CURVE SMOOTH",
"316 125 OFFCURVE",
"274 84 OFFCURVE",
"226 51 CURVE SMOOTH",
"178 18 OFFCURVE",
"138 1 OFFCURVE",
"106 1 CURVE SMOOTH",
"67 1 OFFCURVE",
"47 19 OFFCURVE",
"47 54 CURVE SMOOTH",
"47 85 OFFCURVE",
"68 132 OFFCURVE",
"111 193 CURVE SMOOTH",
"154 254 OFFCURVE",
"187 285 OFFCURVE",
"210 285 CURVE SMOOTH",
"217 285 LINE SMOOTH",
"225 285 OFFCURVE",
"229 286 OFFCURVE",
"229 289 CURVE SMOOTH",
"229 294 OFFCURVE",
"223 300 OFFCURVE",
"211 307 CURVE SMOOTH",
"200 315 OFFCURVE",
"191 319 OFFCURVE",
"185 319 CURVE SMOOTH",
"154 319 OFFCURVE",
"118 285 OFFCURVE",
"77 216 CURVE SMOOTH",
"36 148 OFFCURVE",
"15 94 OFFCURVE",
"15 55 CURVE SMOOTH",
"17 -30 OFFCURVE",
"116 -78 OFFCURVE",
"225 -12 CURVE",
"301 29 OFFCURVE",
"367 91 OFFCURVE",
"411 166 CURVE SMOOTH",
"455 241 OFFCURVE",
"462 309 OFFCURVE",
"391 356 CURVE SMOOTH",
"356 380 OFFCURVE",
"319 392 OFFCURVE",
"282 392 CURVE SMOOTH",
"245 392 OFFCURVE",
"208 387 OFFCURVE",
"169 377 CURVE SMOOTH",
"131 367 OFFCURVE",
"107 352 OFFCURVE",
"97 333 CURVE",
"97 332 OFFCURVE",
"98 331 OFFCURVE",
"100 331 CURVE"
);
}
);
width = 447;
}
);
note = zero;
unicode = 0030;
},
{
glyphname = one;
layers = (
{
hints = (
{
horizontal = 1;
place = "{-41, 435}";
type = Stem;
},
{
place = "{19, 30}";
type = Stem;
}
);
layerId = "8B85D65B-9817-42FC-8CCD-19CD4C331E33";
paths = (
{
closed = 1;
nodes = (
"49 -1 LINE",
"49 32 OFFCURVE",
"67 91 OFFCURVE",
"103 175 CURVE SMOOTH",
"139 259 OFFCURVE",
"173 323 OFFCURVE",
"205 367 CURVE SMOOTH",
"206 369 OFFCURVE",
"207 370 OFFCURVE",
"207 371 CURVE SMOOTH",
"207 376 OFFCURVE",
"200 381 OFFCURVE",
"187 386 CURVE SMOOTH",
"174 391 OFFCURVE",
"164 394 OFFCURVE",
"157 394 CURVE SMOOTH",
"150 394 OFFCURVE",
"132 374 OFFCURVE",
"103 335 CURVE SMOOTH",
"50 262 LINE",
"49 259 OFFCURVE",
"49 258 OFFCURVE",
"50 255 CURVE",
"73 274 OFFCURVE",
"92 291 OFFCURVE",
"106 306 CURVE",
"48 186 OFFCURVE",
"19 97 OFFCURVE",
"19 40 CURVE SMOOTH",
"19 -1 OFFCURVE",
"33 -41 OFFCURVE",
"52 -41 CURVE SMOOTH",
"55 -41 OFFCURVE",
"56 -40 OFFCURVE",
"56 -37 CURVE"
);
}
);
width = 180;
}
);
note = one;
unicode = 0031;
},
{
glyphname = two;
layers = (
{
hints = (
{
horizontal = 1;
place = "{-12, 53}";
type = Stem;
},
{
horizontal = 1;
place = "{365, 25}";
type = Stem;
},
{
place = "{116, 33}";
type = Stem;
},
{
place = "{340, 14}";
type = Stem;
},
{
place = "{396, 44}";
type = Stem;
}
);
layerId = "8B85D65B-9817-42FC-8CCD-19CD4C331E33";
paths = (
{
closed = 1;
nodes = (
"149 265 LINE",
"149 284 OFFCURVE",
"179 305 OFFCURVE",
"238 329 CURVE SMOOTH",
"297 353 OFFCURVE",
"341 365 OFFCURVE",
"370 365 CURVE SMOOTH",
"387 365 OFFCURVE",
"396 360 OFFCURVE",
"396 350 CURVE SMOOTH",
"396 345 OFFCURVE",
"394 338 OFFCURVE",
"389 331 CURVE",
"328 220 OFFCURVE",
"204 112 OFFCURVE",
"19 6 CURVE",
"24 -18 OFFCURVE",
"30 -30 OFFCURVE",
"37 -30 CURVE",
"152 -18 LINE SMOOTH",
"232 -10 OFFCURVE",
"303 -10 OFFCURVE",
"323 -17 CURVE SMOOTH",
"334 -20 OFFCURVE",
"339 -23 OFFCURVE",
"340 -26 CURVE",
"343 -31 OFFCURVE",
"339 -40 OFFCURVE",
"342 -40 CURVE SMOOTH",
"350 -40 OFFCURVE",
"354 -30 OFFCURVE",
"354 -10 CURVE SMOOTH",
"354 24 OFFCURVE",
"314 41 OFFCURVE",
"234 41 CURVE SMOOTH",
"193 41 OFFCURVE",
"152 37 OFFCURVE",
"111 29 CURVE",
"207 80 OFFCURVE",
"286 135 OFFCURVE",
"347 195 CURVE SMOOTH",
"409 256 OFFCURVE",
"440 301 OFFCURVE",
"440 330 CURVE SMOOTH",
"440 370 OFFCURVE",
"413 390 OFFCURVE",
"360 390 CURVE SMOOTH",
"314 390 OFFCURVE",
"262 379 OFFCURVE",
"203 358 CURVE SMOOTH",
"145 337 OFFCURVE",
"116 315 OFFCURVE",
"116 293 CURVE SMOOTH",
"116 286 OFFCURVE",
"121 277 OFFCURVE",
"130 265 CURVE SMOOTH",
"139 254 OFFCURVE",
"146 248 OFFCURVE",
"150 248 CURVE SMOOTH",
"154 248 OFFCURVE",
"156 249 OFFCURVE",
"156 252 CURVE"
);
}
);
width = 414;
}
);
note = two;
unicode = 0032;
},
{
glyphname = three;
layers = (
{
hints = (
{
horizontal = 1;
place = "{-56, 61}";
type = Stem;
},
{
horizontal = 1;
place = "{183, 37}";
type = Stem;
},
{
horizontal = 1;
place = "{356, 38}";
type = Stem;
},
{
place = "{15, 13}";
type = Stem;
},
{
place = "{141, 19}";
type = Stem;
},
{
place = "{392, 35}";
type = Stem;
},
{
place = "{336, 32}";
type = Stem;
}
);
layerId = "8B85D65B-9817-42FC-8CCD-19CD4C331E33";
paths = (
{
closed = 1;
nodes = (
"160 308 LINE",
"160 337 OFFCURVE",
"211 356 OFFCURVE",
"290 356 CURVE SMOOTH",
"426 356 OFFCURVE",
"422 318 OFFCURVE",
"302 266 CURVE SMOOTH",
"242 240 OFFCURVE",
"201 226 OFFCURVE",
"178 224 CURVE SMOOTH",
"163 223 OFFCURVE",
"139 220 OFFCURVE",
"136 220 CURVE",
"149 193 LINE SMOOTH",
"154 181 OFFCURVE",
"159 175 OFFCURVE",
"166 175 CURVE",
"233 183 LINE",
"302 183 OFFCURVE",
"336 168 OFFCURVE",
"336 138 CURVE SMOOTH",
"336 109 OFFCURVE",
"312 79 OFFCURVE",
"264 49 CURVE SMOOTH",
"216 20 OFFCURVE",
"167 5 OFFCURVE",
"116 5 CURVE SMOOTH",
"57 5 OFFCURVE",
"28 25 OFFCURVE",
"28 64 CURVE SMOOTH",
"28 69 OFFCURVE",
"30 78 OFFCURVE",
"34 91 CURVE SMOOTH",
"39 104 OFFCURVE",
"41 112 OFFCURVE",
"41 113 CURVE SMOOTH",
"41 118 OFFCURVE",
"39 120 OFFCURVE",
"36 120 CURVE SMOOTH",
"22 120 OFFCURVE",
"15 102 OFFCURVE",
"15 65 CURVE SMOOTH",
"15 29 OFFCURVE",
"26 0 OFFCURVE",
"47 -22 CURVE SMOOTH",
"68 -45 OFFCURVE",
"97 -56 OFFCURVE",
"134 -56 CURVE SMOOTH",
"188 -56 OFFCURVE",
"240 -38 OFFCURVE",
"291 -3 CURVE SMOOTH",
"342 32 OFFCURVE",
"368 70 OFFCURVE",
"368 113 CURVE SMOOTH",
"368 146 OFFCURVE",
"346 178 OFFCURVE",
"302 208 CURVE",
"394 255 OFFCURVE",
"427 279 OFFCURVE",
"427 322 CURVE SMOOTH",
"427 344 OFFCURVE",
"412 361 OFFCURVE",
"382 374 CURVE SMOOTH",
"353 387 OFFCURVE",
"318 394 OFFCURVE",
"277 394 CURVE SMOOTH",
"236 394 OFFCURVE",
"203 388 OFFCURVE",
"178 377 CURVE SMOOTH",
"153 366 OFFCURVE",
"141 353 OFFCURVE",
"141 336 CURVE SMOOTH",
"141 331 OFFCURVE",
"143 322 OFFCURVE",
"147 310 CURVE SMOOTH",
"152 298 OFFCURVE",
"155 292 OFFCURVE",
"158 292 CURVE SMOOTH",
"161 292 OFFCURVE",
"162 294 OFFCURVE",
"162 298 CURVE"
);
}
);
width = 412;
}
);
note = three;
unicode = 0033;
},
{
glyphname = four;
layers = (
{
hints = (
{
horizontal = 1;
place = "{144, 38}";
type = Stem;
},
{
place = "{223, 43}";
type = Stem;
},
{
place = "{353, 19}";
type = Stem;
},
{
horizontal = 1;
place = "{147, 28}";
type = Stem;
},
{
place = "{335, 60}";
type = Stem;
}
);
layerId = "8B85D65B-9817-42FC-8CCD-19CD4C331E33";
paths = (
{
closed = 1;
nodes = (
"339 99 LINE",
"339 92 OFFCURVE",
"349 90 OFFCURVE",
"362 106 CURVE SMOOTH",
"369 115 OFFCURVE",
"372 123 OFFCURVE",
"372 132 CURVE SMOOTH",
"372 149 OFFCURVE",
"343 171 OFFCURVE",
"319 175 CURVE",
"363 269 LINE SMOOTH",
"384 316 OFFCURVE",
"395 345 OFFCURVE",
"395 356 CURVE SMOOTH",
"395 368 OFFCURVE",
"389 378 OFFCURVE",
"377 385 CURVE SMOOTH",
"353 400 OFFCURVE",
"322 399 OFFCURVE",
"318 388 CURVE",
"318 387 OFFCURVE",
"335 378 OFFCURVE",
"335 370 CURVE SMOOTH",
"335 357 OFFCURVE",
"325 327 OFFCURVE",
"304 279 CURVE SMOOTH",
"261 182 LINE",
"239 182 LINE SMOOTH",
"182 182 OFFCURVE",
"120 174 OFFCURVE",
"53 159 CURVE",
"79 181 OFFCURVE",
"112 207 OFFCURVE",
"151 237 CURVE",
"109 167 OFFCURVE",
"121 175 OFFCURVE",
"184 263 CURVE",
"208 281 LINE SMOOTH",
"272 331 OFFCURVE",
"304 359 OFFCURVE",
"304 365 CURVE SMOOTH",
"304 381 OFFCURVE",
"294 389 OFFCURVE",
"273 389 CURVE SMOOTH",
"252 389 OFFCURVE",
"241 387 OFFCURVE",
"241 382 CURVE",
"215 341 LINE",
"114 267 LINE SMOOTH",
"39 207 OFFCURVE",
"1 165 OFFCURVE",
"1 141 CURVE SMOOTH",
"1 129 OFFCURVE",
"16 105 OFFCURVE",
"23 105 CURVE",
"32 107 LINE",
"77 119 LINE SMOOTH",
"139 134 OFFCURVE",
"190 143 OFFCURVE",
"230 144 CURVE SMOOTH",
"237 144 OFFCURVE",
"242 144 OFFCURVE",
"245 143 CURVE",
"230 95 OFFCURVE",
"223 53 OFFCURVE",
"223 16 CURVE SMOOTH",
"223 -43 OFFCURVE",
"235 -72 OFFCURVE",
"258 -72 CURVE SMOOTH",
"278 -72 OFFCURVE",
"255 -67 OFFCURVE",
"255 -40 CURVE SMOOTH",
"255 -32 OFFCURVE",
"262 -3 OFFCURVE",
"277 47 CURVE SMOOTH",
"292 98 OFFCURVE",
"303 131 OFFCURVE",
"310 147 CURVE",
"318 147 LINE SMOOTH",
"341 147 OFFCURVE",
"353 143 OFFCURVE",
"353 136 CURVE"
);
}
);
width = 376;
}
);
note = four;
unicode = 0034;
},
{
glyphname = five;
layers = (
{
hints = (
{
horizontal = 1;
place = "{-68, 23}";
type = Stem;
},
{
horizontal = 1;
place = "{234, 33}";
type = Stem;
},
{
horizontal = 1;
place = "{328, 52}";
type = Stem;
},
{
place = "{302, 28}";
type = Stem;
}
);
layerId = "8B85D65B-9817-42FC-8CCD-19CD4C331E33";
paths = (
{
closed = 1;
nodes = (
"384 388 OFFCURVE",
"384 390 OFFCURVE",
"372 390 CURVE SMOOTH",
"366 390 OFFCURVE",
"349 388 OFFCURVE",
"322 385 CURVE SMOOTH",
"295 382 OFFCURVE",
"267 380 OFFCURVE",
"240 380 CURVE SMOOTH",
"187 380 OFFCURVE",
"138 390 OFFCURVE",
"129 390 CURVE SMOOTH",
"124 390 OFFCURVE",
"116 378 OFFCURVE",
"103 355 CURVE SMOOTH",
"88 328 OFFCURVE",
"78 311 OFFCURVE",
"53 260 CURVE SMOOTH",
"19 196 LINE",
"19 191 OFFCURVE",
"23 185 OFFCURVE",
"30 176 CURVE SMOOTH",
"38 167 OFFCURVE",
"44 163 OFFCURVE",
"47 163 CURVE SMOOTH",
"54 163 OFFCURVE",
"73 188 OFFCURVE",
"89 197 CURVE SMOOTH",
"136 222 OFFCURVE",
"178 234 OFFCURVE",
"214 234 CURVE SMOOTH",
"273 234 OFFCURVE",
"302 218 OFFCURVE",
"302 185 CURVE SMOOTH",
"302 156 OFFCURVE",
"283 122 OFFCURVE",
"246 85 CURVE SMOOTH",
"209 48 OFFCURVE",
"164 18 OFFCURVE",
"113 -7 CURVE SMOOTH",
"62 -32 OFFCURVE",
"18 -45 OFFCURVE",
"-19 -45 CURVE SMOOTH",
"-72 -45 OFFCURVE",
"-113 -20 OFFCURVE",
"-141 30 CURVE",
"-145 30 OFFCURVE",
"-147 27 OFFCURVE",
"-147 20 CURVE SMOOTH",
"-147 -6 OFFCURVE",
"-131 -27 OFFCURVE",
"-99 -43 CURVE SMOOTH",
"-68 -60 OFFCURVE",
"-30 -68 OFFCURVE",
"15 -68 CURVE SMOOTH",
"60 -68 OFFCURVE",
"106 -58 OFFCURVE",
"153 -38 CURVE SMOOTH",
"201 -19 OFFCURVE",
"242 10 OFFCURVE",
"277 48 CURVE SMOOTH",
"312 86 OFFCURVE",
"330 127 OFFCURVE",
"330 171 CURVE SMOOTH",
"335 266 OFFCURVE",
"209 287 OFFCURVE",
"95 249 CURVE",
"154 337 LINE",
"166 331 OFFCURVE",
"183 328 OFFCURVE",
"204 328 CURVE SMOOTH",
"277 328 OFFCURVE",
"333 344 OFFCURVE",
"371 376 CURVE SMOOTH"
);
}
);
width = 350;
}
);
note = five;
unicode = 0035;
},
{
glyphname = six;
layers = (
{
hints = (
{
horizontal = 1;
place = "{-47, 29}";
type = Stem;
},
{
horizontal = 1;
place = "{186, 28}";
type = Stem;
},
{
horizontal = 1;
place = "{397, 33}";
type = Stem;
},
{
place = "{10, 25}";
type = Stem;
},
{
place = "{314, 47}";
type = Stem;
}
);
layerId = "8B85D65B-9817-42FC-8CCD-19CD4C331E33";
paths = (
{
closed = 1;
nodes = (
"404 382 OFFCURVE",
"410 400 OFFCURVE",
"383 417 CURVE SMOOTH",
"370 426 OFFCURVE",
"358 430 OFFCURVE",
"346 430 CURVE SMOOTH",
"287 430 OFFCURVE",
"217 382 OFFCURVE",
"134 285 CURVE SMOOTH",
"51 190 OFFCURVE",
"10 114 OFFCURVE",
"10 56 CURVE SMOOTH",
"10 -13 OFFCURVE",
"43 -47 OFFCURVE",
"108 -47 CURVE SMOOTH",
"161 -47 OFFCURVE",
"217 -26 OFFCURVE",
"274 15 CURVE SMOOTH",
"332 56 OFFCURVE",
"361 98 OFFCURVE",
"361 140 CURVE SMOOTH",
"361 183 OFFCURVE",
"319 214 OFFCURVE",
"258 214 CURVE SMOOTH",
"227 214 OFFCURVE",
"193 199 OFFCURVE",
"154 169 CURVE SMOOTH",
"116 140 OFFCURVE",
"97 109 OFFCURVE",
"97 78 CURVE SMOOTH",
"97 65 OFFCURVE",
"103 64 OFFCURVE",
"108 79 CURVE SMOOTH",
"115 100 OFFCURVE",
"139 123 OFFCURVE",
"180 148 CURVE SMOOTH",
"222 173 OFFCURVE",
"255 186 OFFCURVE",
"278 186 CURVE SMOOTH",
"302 186 OFFCURVE",
"314 176 OFFCURVE",
"314 155 CURVE SMOOTH",
"314 122 OFFCURVE",
"284 85 OFFCURVE",
"225 44 CURVE SMOOTH",
"166 3 OFFCURVE",
"118 -18 OFFCURVE",
"80 -18 CURVE SMOOTH",
"20 -18 OFFCURVE",
"14 43 OFFCURVE",
"99 162 CURVE SMOOTH",
"142 222 OFFCURVE",
"191 276 OFFCURVE",
"246 324 CURVE SMOOTH",
"301 373 OFFCURVE",
"345 397 OFFCURVE",
"376 397 CURVE SMOOTH",
"383 397 OFFCURVE",
"391 392 OFFCURVE",
"401 382 CURVE"
);
}
);
width = 371;
}
);
note = six;
unicode = 0036;
},
{
glyphname = seven;
layers = (
{
hints = (
{
horizontal = 1;
place = "{341, 42}";
type = Stem;
},
{
place = "{13, 21}";
type = Stem;
}
);
layerId = "8B85D65B-9817-42FC-8CCD-19CD4C331E33";
paths = (
{
closed = 1;
nodes = (
"376 347 LINE",
"376 371 OFFCURVE",
"337 383 OFFCURVE",
"258 383 CURVE SMOOTH",
"180 383 OFFCURVE",
"107 371 OFFCURVE",
"39 346 CURVE",
"29 329 OFFCURVE",
"24 311 OFFCURVE",
"24 294 CURVE SMOOTH",
"24 277 OFFCURVE",
"27 269 OFFCURVE",
"34 269 CURVE SMOOTH",
"35 269 OFFCURVE",
"37 275 OFFCURVE",
"41 286 CURVE SMOOTH",
"46 298 OFFCURVE",
"51 306 OFFCURVE",
"57 310 CURVE SMOOTH",
"91 331 OFFCURVE",
"152 341 OFFCURVE",
"239 341 CURVE SMOOTH",
"262 341 OFFCURVE",
"284 340 OFFCURVE",
"303 338 CURVE",
"248 312 OFFCURVE",
"186 259 OFFCURVE",
"117 178 CURVE SMOOTH",
"48 98 OFFCURVE",
"13 37 OFFCURVE",
"13 -6 CURVE SMOOTH",
"13 -37 OFFCURVE",
"23 -72 OFFCURVE",
"40 -72 CURVE SMOOTH",
"55 -72 OFFCURVE",
"34 -62 OFFCURVE",
"34 -47 CURVE SMOOTH",
"34 -30 OFFCURVE",
"43 -8 OFFCURVE",
"60 20 CURVE SMOOTH",
"141 148 OFFCURVE",
"250 245 OFFCURVE",
"387 310 CURVE",
"387 323 OFFCURVE",
"381 333 OFFCURVE",
"370 339 CURVE"
);
}
);
width = 326;
}
);
note = seven;
unicode = 0037;
},
{
glyphname = eight;
layers = (
{
hints = (
{
horizontal = 1;
place = "{-43, 44}";
type = Stem;
},
{
horizontal = 1;
place = "{366, 31}";
type = Stem;
},
{
place = "{19, 33}";
type = Stem;
},
{
place = "{106, 30}";
type = Stem;
},
{
place = "{251, 44}";
type = Stem;
},
{
place = "{478, 8}";
type = Stem;
}
);
layerId = "8B85D65B-9817-42FC-8CCD-19CD4C331E33";
paths = (
{
closed = 1;
nodes = (
"486 444 OFFCURVE",
"484 447 OFFCURVE",
"480 447 CURVE SMOOTH",
"478 447 LINE",
"461 405 OFFCURVE",
"429 365 OFFCURVE",
"381 326 CURVE",
"283 258 OFFCURVE",
"233 223 OFFCURVE",
"230 222 CURVE",
"215 211 OFFCURVE",
"192 191 OFFCURVE",
"192 196 CURVE",
"190 196 OFFCURVE",
"180 203 OFFCURVE",
"162 217 CURVE SMOOTH",
"145 231 OFFCURVE",
"136 239 OFFCURVE",
"136 242 CURVE SMOOTH",
"136 271 OFFCURVE",
"202 307 OFFCURVE",
"335 351 CURVE SMOOTH",
"365 361 OFFCURVE",
"390 366 OFFCURVE",
"410 366 CURVE SMOOTH",
"413 366 OFFCURVE",
"415 367 OFFCURVE",
"415 370 CURVE SMOOTH",
"415 385 OFFCURVE",
"382 397 OFFCURVE",
"355 397 CURVE SMOOTH",
"353 397 LINE SMOOTH",
"322 395 OFFCURVE",
"287 387 OFFCURVE",
"249 374 CURVE SMOOTH",
"211 361 OFFCURVE",
"178 343 OFFCURVE",
"149 322 CURVE SMOOTH",
"120 301 OFFCURVE",
"106 281 OFFCURVE",
"106 262 CURVE SMOOTH",
"106 251 OFFCURVE",
"113 236 OFFCURVE",
"127 215 CURVE SMOOTH",
"141 194 OFFCURVE",
"153 181 OFFCURVE",
"163 174 CURVE",
"75 107 LINE",
"38 73 OFFCURVE",
"19 44 OFFCURVE",
"19 19 CURVE SMOOTH",
"19 2 OFFCURVE",
"33 -12 OFFCURVE",
"61 -24 CURVE SMOOTH",
"89 -37 OFFCURVE",
"118 -43 OFFCURVE",
"147 -43 CURVE SMOOTH",
"194 -43 OFFCURVE",
"232 -29 OFFCURVE",
"261 -2 CURVE SMOOTH",
"284 18 OFFCURVE",
"295 39 OFFCURVE",
"295 61 CURVE SMOOTH",
"295 90 OFFCURVE",
"269 127 OFFCURVE",
"218 174 CURVE",
"379 290 LINE",
"450 349 OFFCURVE",
"486 399 OFFCURVE",
"486 438 CURVE SMOOTH"
);
},
{
closed = 1;
nodes = (
"98 -2 LINE",
"94 -1 LINE",
"87 -4 OFFCURVE",
"78 -5 OFFCURVE",
"66 -5 CURVE",
"52 2 LINE",
"52 35 OFFCURVE",
"70 58 OFFCURVE",
"134 110 CURVE SMOOTH",
"167 136 OFFCURVE",
"187 150 OFFCURVE",
"194 152 CURVE",
"201 152 OFFCURVE",
"213 143 OFFCURVE",
"228 126 CURVE SMOOTH",
"243 109 OFFCURVE",
"251 97 OFFCURVE",
"251 92 CURVE SMOOTH",
"251 65 OFFCURVE",
"214 38 OFFCURVE",
"141 10 CURVE SMOOTH",
"125 4 OFFCURVE",
"115 1 OFFCURVE",
"111 1 CURVE SMOOTH",
"106 2 LINE"
);
}
);
width = 458;
}
);
note = eight;
unicode = 0038;
},
{
glyphname = nine;
layers = (
{
hints = (
{
horizontal = 1;
place = "{-102, 11}";
type = Stem;
},
{
horizontal = 1;
place = "{168, 31}";
type = Stem;
},
{
horizontal = 1;
place = "{310, -20}";
target = down;
type = TopGhost;
},
{
horizontal = 1;
place = "{380, 22}";
type = Stem;
},
{
place = "{0, 29}";
type = Stem;
},
{
place = "{120, 34}";
type = Stem;
}
);
layerId = "8B85D65B-9817-42FC-8CCD-19CD4C331E33";
paths = (
{
closed = 1;
nodes = (
"171 -91 LINE SMOOTH",
"160 -91 OFFCURVE",
"154 -81 OFFCURVE",
"154 -62 CURVE SMOOTH",
"154 -17 OFFCURVE",
"193 73 OFFCURVE",
"272 210 CURVE SMOOTH",
"287 235 OFFCURVE",
"300 264 OFFCURVE",
"312 280 CURVE",
"312 285 OFFCURVE",
"307 292 OFFCURVE",
"297 299 CURVE SMOOTH",
"288 306 OFFCURVE",
"281 310 OFFCURVE",
"276 310 CURVE",
"246 281 OFFCURVE",
"215 257 OFFCURVE",
"184 238 CURVE SMOOTH",
"149 217 OFFCURVE",
"101 199 OFFCURVE",
"60 199 CURVE SMOOTH",
"39 199 OFFCURVE",
"29 206 OFFCURVE",
"29 219 CURVE SMOOTH",
"29 248 OFFCURVE",
"52 282 OFFCURVE",
"97 321 CURVE SMOOTH",
"143 360 OFFCURVE",
"180 380 OFFCURVE",
"209 380 CURVE SMOOTH",
"221 380 OFFCURVE",
"229 370 OFFCURVE",
"232 350 CURVE SMOOTH",
"235 331 OFFCURVE",
"240 321 OFFCURVE",
"247 321 CURVE SMOOTH",
"272 321 OFFCURVE",
"275 358 OFFCURVE",
"239 383 CURVE SMOOTH",
"222 396 OFFCURVE",
"207 402 OFFCURVE",
"195 402 CURVE SMOOTH",
"158 402 OFFCURVE",
"117 384 OFFCURVE",
"70 348 CURVE SMOOTH",
"23 312 OFFCURVE",
"0 278 OFFCURVE",
"0 247 CURVE SMOOTH",
"0 206 OFFCURVE",
"41 168 OFFCURVE",
"82 168 CURVE SMOOTH",
"115 168 OFFCURVE",
"164 192 OFFCURVE",
"230 240 CURVE",
"204 205 OFFCURVE",
"179 159 OFFCURVE",
"155 102 CURVE SMOOTH",
"132 45 OFFCURVE",
"120 0 OFFCURVE",
"120 -32 CURVE SMOOTH",
"120 -79 OFFCURVE",
"137 -102 OFFCURVE",
"171 -102 CURVE SMOOTH",
"185 -102 OFFCURVE",
"193 -99 OFFCURVE",
"195 -93 CURVE",
"194 -90 OFFCURVE",
"191 -89 OFFCURVE",
"188 -89 CURVE SMOOTH"
);
}
);
width = 305;
}
);
note = nine;
unicode = 0039;
},
{
glyphname = colon;
layers = (
{
hints = (
{
horizontal = 1;
place = "{-28, 48}";
type = Stem;
},
{
horizontal = 1;
place = "{119, 48}";
type = Stem;
},
{
place = "{66, 60}";
type = Stem;
},
{
place = "{96, 60}";
type = Stem;
}
);
layerId = "8B85D65B-9817-42FC-8CCD-19CD4C331E33";
paths = (
{
closed = 1;
nodes = (
"141 119 OFFCURVE",
"156 129 OFFCURVE",
"156 141 CURVE SMOOTH",
"156 154 OFFCURVE",
"140 167 OFFCURVE",
"125 167 CURVE SMOOTH",
"106 167 OFFCURVE",
"96 160 OFFCURVE",
"96 145 CURVE SMOOTH",
"96 128 OFFCURVE",
"107 119 OFFCURVE",
"128 119 CURVE SMOOTH"
);
},
{
closed = 1;
nodes = (
"110 -28 OFFCURVE",
"126 -17 OFFCURVE",
"126 -4 CURVE SMOOTH",
"126 8 OFFCURVE",
"111 20 OFFCURVE",
"95 20 CURVE SMOOTH",
"76 20 OFFCURVE",
"66 13 OFFCURVE",
"66 -1 CURVE SMOOTH",
"66 -19 OFFCURVE",
"77 -28 OFFCURVE",
"98 -28 CURVE SMOOTH"
);
}
);
width = 170;
}
);
note = colon;
unicode = 003A;
},
{
glyphname = semicolon;
layers = (
{
hints = (
{
horizontal = 1;
place = "{119, 48}";
type = Stem;
},
{
place = "{93, 33}";
type = Stem;
},
{
place = "{96, 60}";
type = Stem;
}
);
layerId = "8B85D65B-9817-42FC-8CCD-19CD4C331E33";
paths = (
{
closed = 1;
nodes = (
"141 119 OFFCURVE",
"156 129 OFFCURVE",
"156 141 CURVE SMOOTH",
"156 154 OFFCURVE",
"140 167 OFFCURVE",
"125 167 CURVE SMOOTH",
"106 167 OFFCURVE",
"96 160 OFFCURVE",
"96 145 CURVE SMOOTH",
"96 128 OFFCURVE",
"107 119 OFFCURVE",
"128 119 CURVE SMOOTH"
);
},
{
closed = 1;
nodes = (
"82 -87 OFFCURVE",
"96 -77 OFFCURVE",
"108 -58 CURVE SMOOTH",
"120 -39 OFFCURVE",
"126 -23 OFFCURVE",
"126 -12 CURVE SMOOTH",
"126 11 OFFCURVE",
"111 20 OFFCURVE",
"95 20 CURVE SMOOTH",
"80 20 OFFCURVE",
"73 13 OFFCURVE",
"73 -2 CURVE SMOOTH",
"73 -7 OFFCURVE",
"93 -22 OFFCURVE",
"93 -33 CURVE",
"90 -47 OFFCURVE",
"80 -64 OFFCURVE",
"61 -85 CURVE",
"61 -86 OFFCURVE",
"62 -87 OFFCURVE",
"65 -87 CURVE SMOOTH"
);
}
);
width = 170;
}
);
note = semicolon;
unicode = 003B;
},
{
glyphname = less;
layers = (
{
hints = (
{
horizontal = 1;
place = "{76, 230}";
type = Stem;
},
{
place = "{64, 108}";
type = Stem;
}
);
layerId = "8B85D65B-9817-42FC-8CCD-19CD4C331E33";
paths = (
{
closed = 1;
nodes = (
"172 304 OFFCURVE",
"170 306 OFFCURVE",
"167 306 CURVE SMOOTH",
"161 306 OFFCURVE",
"142 284 OFFCURVE",
"111 241 CURVE SMOOTH",
"80 198 OFFCURVE",
"64 173 OFFCURVE",
"64 166 CURVE SMOOTH",
"64 164 OFFCURVE",
"65 162 OFFCURVE",
"66 161 CURVE SMOOTH",
"115 124 OFFCURVE",
"145 97 OFFCURVE",
"157 79 CURVE",
"164 76 LINE",
"165 76 LINE SMOOTH",
"169 76 OFFCURVE",
"171 79 OFFCURVE",
"171 85 CURVE SMOOTH",
"171 92 OFFCURVE",
"147 125 OFFCURVE",
"98 186 CURVE",
"147 254 OFFCURVE",
"172 292 OFFCURVE",
"172 301 CURVE SMOOTH"
);
}
);
width = 240;
}
);
note = less;
unicode = 003C;
},
{
glyphname = equal;
layers = (
{
hints = (
{
horizontal = 1;
place = "{132, 37}";
type = Stem;
},
{
horizontal = 1;
place = "{223, 37}";
type = Stem;
},
{
place = "{14, 309}";
type = Stem;
}
);
layerId = "8B85D65B-9817-42FC-8CCD-19CD4C331E33";
paths = (
{
closed = 1;
nodes = (
"323 261 LINE",
"313 260 OFFCURVE",
"289 260 OFFCURVE",
"251 260 CURVE SMOOTH",
"58 259 LINE SMOOTH",
"46 259 OFFCURVE",
"40 253 OFFCURVE",
"40 240 CURVE SMOOTH",
"40 229 OFFCURVE",
"79 223 OFFCURVE",
"156 223 CURVE SMOOTH",
"179 223 OFFCURVE",
"213 227 OFFCURVE",
"257 236 CURVE SMOOTH",
"301 245 OFFCURVE",
"323 252 OFFCURVE",
"323 259 CURVE SMOOTH"
);
},
{
closed = 1;
nodes = (
"300 169 OFFCURVE",
"300 170 OFFCURVE",
"299 171 CURVE",
"279 170 OFFCURVE",
"255 169 OFFCURVE",
"227 169 CURVE SMOOTH",
"33 168 LINE SMOOTH",
"20 168 OFFCURVE",
"14 162 OFFCURVE",
"14 150 CURVE SMOOTH",
"14 138 OFFCURVE",
"53 132 OFFCURVE",
"132 132 CURVE SMOOTH",
"154 132 OFFCURVE",
"187 136 OFFCURVE",
"232 145 CURVE SMOOTH",
"277 154 OFFCURVE",
"300 162 OFFCURVE",
"300 168 CURVE SMOOTH"
);
}
);
width = 306;
}
);
note = equal;
unicode = 003D;
},
{
glyphname = greater;
layers = (
{
hints = (
{
horizontal = 1;
place = "{70, 230}";
type = Stem;
},
{
place = "{64, 108}";
type = Stem;
}
);
layerId = "8B85D65B-9817-42FC-8CCD-19CD4C331E33";
paths = (
{
closed = 1;
nodes = (
"172 213 OFFCURVE",
"171 214 OFFCURVE",
"170 215 CURVE SMOOTH",
"122 252 OFFCURVE",
"92 280 OFFCURVE",
"79 298 CURVE",
"73 300 LINE",
"71 300 LINE SMOOTH",
"67 300 OFFCURVE",
"65 297 OFFCURVE",
"65 292 CURVE SMOOTH",
"65 287 OFFCURVE",
"90 253 OFFCURVE",
"139 190 CURVE",
"89 121 OFFCURVE",
"64 82 OFFCURVE",
"64 75 CURVE SMOOTH",
"64 72 OFFCURVE",
"65 70 OFFCURVE",
"68 70 CURVE SMOOTH",
"73 70 OFFCURVE",
"92 91 OFFCURVE",
"124 134 CURVE SMOOTH",
"156 177 OFFCURVE",
"172 203 OFFCURVE",
"172 211 CURVE SMOOTH"
);
}
);
width = 240;
}
);
note = greater;
unicode = 003E;
},
{
glyphname = question;
layers = (
{
hints = (
{
horizontal = 1;
place = "{361, 39}";
type = Stem;
},
{
place = "{75, 22}";
type = Stem;
},
{
place = "{325, 38}";
type = Stem;
},
{
horizontal = 1;
place = "{9, 12}";
type = Stem;
},
{
place = "{48, 10}";
type = Stem;
}
);
layerId = "8B85D65B-9817-42FC-8CCD-19CD4C331E33";
paths = (
{
closed = 1;
nodes = (
"97 319 LINE",
"97 347 OFFCURVE",
"135 361 OFFCURVE",
"211 361 CURVE SMOOTH",
"287 361 OFFCURVE",
"325 352 OFFCURVE",
"325 335 CURVE SMOOTH",
"325 313 OFFCURVE",
"283 285 OFFCURVE",
"200 251 CURVE SMOOTH",
"169 238 OFFCURVE",
"140 222 OFFCURVE",
"114 202 CURVE SMOOTH",
"88 182 OFFCURVE",
"75 162 OFFCURVE",
"75 142 CURVE SMOOTH",
"75 123 OFFCURVE",
"82 104 OFFCURVE",
"96 87 CURVE SMOOTH",
"111 70 OFFCURVE",
"126 62 OFFCURVE",
"141 62 CURVE SMOOTH",
"157 62 OFFCURVE",
"165 64 OFFCURVE",
"165 69 CURVE SMOOTH",
"165 70 OFFCURVE",
"159 73 OFFCURVE",
"148 78 CURVE SMOOTH",
"114 95 OFFCURVE",
"97 111 OFFCURVE",
"97 125 CURVE SMOOTH",
"97 150 OFFCURVE",
"141 180 OFFCURVE",
"230 215 CURVE SMOOTH",
"263 228 OFFCURVE",
"294 244 OFFCURVE",
"321 263 CURVE SMOOTH",
"349 282 OFFCURVE",
"363 302 OFFCURVE",
"363 323 CURVE SMOOTH",
"363 344 OFFCURVE",
"347 362 OFFCURVE",
"315 377 CURVE SMOOTH",
"283 392 OFFCURVE",
"246 400 OFFCURVE",
"204 400 CURVE SMOOTH",
"163 400 OFFCURVE",
"130 395 OFFCURVE",
"107 385 CURVE SMOOTH",
"84 376 OFFCURVE",
"73 363 OFFCURVE",
"73 346 CURVE SMOOTH",
"73 342 OFFCURVE",
"76 333 OFFCURVE",
"82 319 CURVE SMOOTH",
"89 305 OFFCURVE",
"94 298 OFFCURVE",
"98 298 CURVE SMOOTH",
"100 298 OFFCURVE",
"101 300 OFFCURVE",
"101 303 CURVE"
);
},
{
closed = 1;
nodes = (
"125 17 OFFCURVE",
"116 21 OFFCURVE",
"99 21 CURVE SMOOTH",
"82 21 OFFCURVE",
"70 14 OFFCURVE",
"61 1 CURVE SMOOTH",
"52 -12 OFFCURVE",
"48 -27 OFFCURVE",
"48 -45 CURVE SMOOTH",
"48 -52 OFFCURVE",
"51 -55 OFFCURVE",
"58 -55 CURVE",
"103 -10 OFFCURVE",
"125 11 OFFCURVE",
"125 9 CURVE SMOOTH"
);
}
);
width = 302;
}
);
note = question;
unicode = 003F;
},
{
glyphname = at;
layers = (
{
hints = (
{
horizontal = 1;
place = "{-8, 16}";
type = Stem;
},
{
horizontal = 1;
place = "{109, 18}";
type = Stem;
},
{
horizontal = 1;
place = "{395, 22}";
type = Stem;
},
{
horizontal = 1;
place = "{497, 15}";
type = Stem;
},
{
place = "{11, 40}";
type = Stem;
},
{
place = "{128, 42}";
type = Stem;
},
{
place = "{324, 42}";
type = Stem;
},
{
place = "{596, 22}";
type = Stem;
},
{
place = "{559, 46}";
type = Stem;
},
{
horizontal = 1;
place = "{108, 32}";
type = Stem;
},
{
place = "{422, 12}";
type = Stem;
}
);
layerId = "8B85D65B-9817-42FC-8CCD-19CD4C331E33";
paths = (
{
closed = 1;
nodes = (
"618 473 OFFCURVE",
"561 512 OFFCURVE",
"464 512 CURVE SMOOTH",
"415 512 OFFCURVE",
"364 501 OFFCURVE",
"310 479 CURVE SMOOTH",
"202 436 OFFCURVE",
"111 367 OFFCURVE",
"54 272 CURVE SMOOTH",
"25 225 OFFCURVE",
"11 177 OFFCURVE",
"11 130 CURVE SMOOTH",
"11 38 OFFCURVE",
"68 -8 OFFCURVE",
"182 -8 CURVE SMOOTH",
"238 -8 OFFCURVE",
"299 6 OFFCURVE",
"365 33 CURVE SMOOTH",
"431 61 OFFCURVE",
"487 100 OFFCURVE",
"534 149 CURVE SMOOTH",
"581 198 OFFCURVE",
"605 250 OFFCURVE",
"605 304 CURVE",
"599 343 LINE",
"612 374 OFFCURVE",
"618 397 OFFCURVE",
"618 412 CURVE SMOOTH"
);
},
{
closed = 1;
nodes = (
"565 400 OFFCURVE",
"560 376 OFFCURVE",
"556 330 CURVE",
"557 319 LINE",
"480 207 LINE SMOOTH",
"443 154 OFFCURVE",
"414 127 OFFCURVE",
"392 127 CURVE SMOOTH",
"375 127 OFFCURVE",
"366 141 OFFCURVE",
"366 170 CURVE SMOOTH",
"366 214 OFFCURVE",
"381 264 OFFCURVE",
"412 319 CURVE",
"412 328 OFFCURVE",
"383 343 OFFCURVE",
"375 343 CURVE SMOOTH",
"372 343 OFFCURVE",
"370 343 OFFCURVE",
"370 342 CURVE",
"273 207 OFFCURVE",
"209 140 OFFCURVE",
"180 140 CURVE SMOOTH",
"167 140 OFFCURVE",
"159 168 OFFCURVE",
"203 243 CURVE SMOOTH",
"225 281 OFFCURVE",
"253 316 OFFCURVE",
"286 347 CURVE SMOOTH",
"353 411 OFFCURVE",
"402 408 OFFCURVE",
"422 357 CURVE",
"423 356 OFFCURVE",
"424 355 OFFCURVE",
"425 355 CURVE SMOOTH",
"431 355 OFFCURVE",
"434 359 OFFCURVE",
"434 366 CURVE SMOOTH",
"434 398 OFFCURVE",
"394 417 OFFCURVE",
"346 417 CURVE SMOOTH",
"336 417 LINE SMOOTH",
"312 417 OFFCURVE",
"283 401 OFFCURVE",
"249 370 CURVE SMOOTH",
"216 339 OFFCURVE",
"187 304 OFFCURVE",
"163 264 CURVE SMOOTH",
"140 224 OFFCURVE",
"128 192 OFFCURVE",
"128 167 CURVE SMOOTH",
"128 139 OFFCURVE",
"154 108 OFFCURVE",
"181 108 CURVE SMOOTH",
"214 108 OFFCURVE",
"257 150 OFFCURVE",
"311 234 CURVE SMOOTH",
"328 262 OFFCURVE",
"337 276 OFFCURVE",
"338 276 CURVE",
"309 178 OFFCURVE",
"325 109 OFFCURVE",
"380 109 CURVE SMOOTH",
"425 109 OFFCURVE",
"483 168 OFFCURVE",
"556 285 CURVE",
"558 285 OFFCURVE",
"559 284 OFFCURVE",
"559 283 CURVE SMOOTH",
"559 241 OFFCURVE",
"524 189 OFFCURVE",
"455 127 CURVE SMOOTH",
"366 48 OFFCURVE",
"271 8 OFFCURVE",
"170 8 CURVE SMOOTH",
"91 8 OFFCURVE",
"51 43 OFFCURVE",
"51 113 CURVE SMOOTH",
"51 170 OFFCURVE",
"72 229 OFFCURVE",
"114 289 CURVE SMOOTH",
"156 350 OFFCURVE",
"209 399 OFFCURVE",
"274 438 CURVE SMOOTH",
"339 477 OFFCURVE",
"403 497 OFFCURVE",
"465 497 CURVE SMOOTH",
"545 497 OFFCURVE",
"596 460 OFFCURVE",
"596 403 CURVE SMOOTH",
"596 386 OFFCURVE",
"593 374 OFFCURVE",
"588 369 CURVE"
);
}
);
width = 635;
}
);
note = at;
unicode = 0040;
},
{
glyphname = A;
layers = (
{
hints = (
{
horizontal = 1;
place = "{-28, 22}";
type = Stem;
},
{
horizontal = 1;
place = "{109, 38}";
type = Stem;
},
{
place = "{447, 31}";
type = Stem;
},
{
horizontal = 1;
place = "{138, 19}";
type = Stem;
}
);
layerId = "8B85D65B-9817-42FC-8CCD-19CD4C331E33";
paths = (
{
closed = 1;
nodes = (
"249 147 LINE SMOOTH",
"200 147 OFFCURVE",
"173 150 OFFCURVE",
"166 157 CURVE",
"163 159 LINE",
"162 159 OFFCURVE",
"162 159 OFFCURVE",
"162 158 CURVE",
"160 156 LINE",
"160 129 OFFCURVE",
"187 109 OFFCURVE",
"219 109 CURVE SMOOTH",
"273 111 LINE",
"273 110 LINE",
"174 33 OFFCURVE",
"100 -6 OFFCURVE",
"51 -6 CURVE",
"22 -1 LINE SMOOTH",
"21 -1 OFFCURVE",
"20 -1 OFFCURVE",
"17 -2 CURVE",
"31 -19 OFFCURVE",
"51 -28 OFFCURVE",
"77 -28 CURVE SMOOTH",
"138 -28 OFFCURVE",
"224 19 OFFCURVE",
"333 114 CURVE",
"343 117 OFFCURVE",
"369 121 OFFCURVE",
"411 128 CURVE SMOOTH",
"453 135 OFFCURVE",
"479 138 OFFCURVE",
"488 138 CURVE",
"461 54 OFFCURVE",
"447 -1 OFFCURVE",
"447 -26 CURVE SMOOTH",
"447 -52 OFFCURVE",
"451 -73 OFFCURVE",
"459 -89 CURVE SMOOTH",
"468 -106 OFFCURVE",
"479 -114 OFFCURVE",
"492 -114 CURVE SMOOTH",
"495 -114 OFFCURVE",
"493 -106 OFFCURVE",
"486 -90 CURVE SMOOTH",
"481 -76 OFFCURVE",
"478 -64 OFFCURVE",
"478 -55 CURVE SMOOTH",
"478 24 OFFCURVE",
"537 163 OFFCURVE",
"655 360 CURVE SMOOTH",
"679 400 OFFCURVE",
"700 436 OFFCURVE",
"717 461 CURVE",
"717 470 OFFCURVE",
"690 481 OFFCURVE",
"675 481 CURVE SMOOTH",
"662 481 OFFCURVE",
"644 455 OFFCURVE",
"631 430 CURVE SMOOTH",
"612 393 LINE",
"565 303 LINE SMOOTH",
"540 256 OFFCURVE",
"516 209 OFFCURVE",
"495 163 CURVE",
"376 151 LINE",
"480 261 LINE SMOOTH",
"527 313 OFFCURVE",
"551 354 OFFCURVE",
"551 384 CURVE SMOOTH",
"551 391 OFFCURVE",
"550 395 OFFCURVE",
"547 395 CURVE",
"516 350 LINE SMOOTH",
"499 325 OFFCURVE",
"469 291 OFFCURVE",
"426 248 CURVE SMOOTH",
"383 205 OFFCURVE",
"347 172 OFFCURVE",
"317 148 CURVE",
"284 148 LINE"
);
}
);
width = 580;
}
);
note = A;
unicode = 0041;
},
{
glyphname = B;
layers = (
{
hints = (
{
horizontal = 1;
place = "{-64, 36}";
type = Stem;
},
{
horizontal = 1;
place = "{181, 17}";
type = Stem;
},
{
horizontal = 1;
place = "{457, 21}";
type = Stem;
},
{
place = "{60, 30}";
type = Stem;
},
{
place = "{467, 37}";
type = Stem;
},
{
place = "{522, 58}";
type = Stem;
}
);
layerId = "8B85D65B-9817-42FC-8CCD-19CD4C331E33";
paths = (
{
closed = 1;
nodes = (
"580 445 OFFCURVE",
"513 478 OFFCURVE",
"379 478 CURVE SMOOTH",
"263 478 OFFCURVE",
"142 453 OFFCURVE",
"17 403 CURVE SMOOTH",
"12 401 OFFCURVE",
"10 396 OFFCURVE",
"10 389 CURVE SMOOTH",
"10 373 OFFCURVE",
"16 365 OFFCURVE",
"27 365 CURVE SMOOTH",
"29 365 OFFCURVE",
"64 376 OFFCURVE",
"132 399 CURVE SMOOTH",
"200 422 OFFCURVE",
"249 438 OFFCURVE",
"278 445 CURVE SMOOTH",
"308 453 OFFCURVE",
"345 457 OFFCURVE",
"389 457 CURVE SMOOTH",
"478 457 OFFCURVE",
"522 431 OFFCURVE",
"522 392 CURVE SMOOTH",
"522 313 OFFCURVE",
"435 248 OFFCURVE",
"287 208 CURVE",
"255 203 LINE",
"241 199 OFFCURVE",
"234 192 OFFCURVE",
"234 183 CURVE SMOOTH",
"234 176 OFFCURVE",
"237 171 OFFCURVE",
"244 170 CURVE",
"280 185 OFFCURVE",
"349 190 OFFCURVE",
"416 155 CURVE SMOOTH",
"450 138 OFFCURVE",
"467 116 OFFCURVE",
"467 91 CURVE SMOOTH",
"467 66 OFFCURVE",
"446 40 OFFCURVE",
"403 13 CURVE SMOOTH",
"360 -14 OFFCURVE",
"310 -28 OFFCURVE",
"253 -28 CURVE SMOOTH",
"230 -28 OFFCURVE",
"210 -23 OFFCURVE",
"195 -13 CURVE",
"189 -11 LINE",
"188 -11 OFFCURVE",
"187 -12 OFFCURVE",
"187 -13 CURVE SMOOTH",
"187 -28 OFFCURVE",
"201 -40 OFFCURVE",
"230 -49 CURVE SMOOTH",
"259 -59 OFFCURVE",
"288 -64 OFFCURVE",
"317 -64 CURVE SMOOTH",
"368 -64 OFFCURVE",
"411 -51 OFFCURVE",
"448 -24 CURVE SMOOTH",
"485 3 OFFCURVE",
"504 34 OFFCURVE",
"504 71 CURVE SMOOTH",
"504 146 OFFCURVE",
"438 190 OFFCURVE",
"335 198 CURVE",
"404 215 OFFCURVE",
"462 240 OFFCURVE",
"509 275 CURVE SMOOTH",
"556 310 OFFCURVE",
"580 345 OFFCURVE",
"580 380 CURVE SMOOTH"
);
},
{
closed = 1;
nodes = (
"307 406 OFFCURVE",
"280 417 OFFCURVE",
"261 417 CURVE SMOOTH",
"252 417 OFFCURVE",
"233 391 OFFCURVE",
"205 338 CURVE",
"108 175 OFFCURVE",
"60 50 OFFCURVE",
"60 -37 CURVE SMOOTH",
"60 -85 OFFCURVE",
"79 -127 OFFCURVE",
"102 -127 CURVE SMOOTH",
"105 -127 OFFCURVE",
"107 -125 OFFCURVE",
"108 -123 CURVE",
"105 -123 OFFCURVE",
"90 -93 OFFCURVE",
"90 -68 CURVE SMOOTH",
"90 32 OFFCURVE",
"162 186 OFFCURVE",
"306 395 CURVE SMOOTH",
"307 396 OFFCURVE",
"307 397 OFFCURVE",
"307 398 CURVE SMOOTH"
);
}
);
width = 530;
}
);
note = B;
unicode = 0042;
},
{
glyphname = C;
layers = (
{
hints = (
{
horizontal = 1;
place = "{-76, 25}";
type = Stem;
},
{
horizontal = 1;
place = "{448, 15}";
type = Stem;
},
{
place = "{24, 49}";
type = Stem;
},
{
place = "{501, 10}";
type = Stem;
}
);
layerId = "8B85D65B-9817-42FC-8CCD-19CD4C331E33";
paths = (
{
closed = 1;
nodes = (
"495 471 OFFCURVE",
"395 475 OFFCURVE",
"290 427 CURVE SMOOTH",
"238 404 OFFCURVE",
"193 374 OFFCURVE",
"154 338 CURVE SMOOTH",
"77 266 OFFCURVE",
"24 171 OFFCURVE",
"24 79 CURVE SMOOTH",
"24 34 OFFCURVE",
"40 -3 OFFCURVE",
"71 -32 CURVE SMOOTH",
"103 -61 OFFCURVE",
"144 -76 OFFCURVE",
"195 -76 CURVE SMOOTH",
"246 -76 OFFCURVE",
"299 -64 OFFCURVE",
"356 -41 CURVE SMOOTH",
"413 -18 OFFCURVE",
"459 13 OFFCURVE",
"495 54 CURVE SMOOTH",
"507 67 OFFCURVE",
"505 79 OFFCURVE",
"500 79 CURVE SMOOTH",
"496 79 OFFCURVE",
"489 74 OFFCURVE",
"480 65 CURVE SMOOTH",
"407 -12 OFFCURVE",
"324 -51 OFFCURVE",
"233 -51 CURVE SMOOTH",
"94 -55 OFFCURVE",
"10 93 OFFCURVE",
"131 256 CURVE SMOOTH",
"170 311 OFFCURVE",
"219 357 OFFCURVE",
"279 393 CURVE SMOOTH",
"339 430 OFFCURVE",
"397 448 OFFCURVE",
"454 448 CURVE SMOOTH",
"491 448 OFFCURVE",
"520 439 OFFCURVE",
"541 420 CURVE",
"514 365 OFFCURVE",
"501 323 OFFCURVE",
"501 294 CURVE SMOOTH",
"501 277 OFFCURVE",
"505 268 OFFCURVE",
"513 268 CURVE SMOOTH",
"514 268 OFFCURVE",
"515 269 OFFCURVE",
"515 270 CURVE SMOOTH",
"511 285 LINE",
"511 310 OFFCURVE",
"531 349 OFFCURVE",
"570 402 CURVE SMOOTH",
"577 412 OFFCURVE",
"597 438 OFFCURVE",
"629 479 CURVE",
"629 488 OFFCURVE",
"618 492 OFFCURVE",
"595 492 CURVE SMOOTH",
"581 492 OFFCURVE",
"566 474 OFFCURVE",
"551 438 CURVE"
);
}
);
width = 513;
}
);
note = C;
unicode = 0043;
},
{
glyphname = D;
layers = (
{
hints = (
{
horizontal = 1;
place = "{-57, 24}";
type = Stem;
},
{
horizontal = 1;
place = "{450, 24}";
type = Stem;
},
{
place = "{86, 24}";
type = Stem;
},
{
place = "{652, 34}";
type = Stem;
}
);
layerId = "8B85D65B-9817-42FC-8CCD-19CD4C331E33";
paths = (
{
closed = 1;
nodes = (
"686 331 OFFCURVE",
"661 381 OFFCURVE",
"610 418 CURVE SMOOTH",
"559 455 OFFCURVE",
"495 474 OFFCURVE",
"416 474 CURVE SMOOTH",
"317 474 OFFCURVE",
"207 456 OFFCURVE",
"88 420 CURVE SMOOTH",
"55 411 OFFCURVE",
"36 404 OFFCURVE",
"30 401 CURVE SMOOTH",
"24 398 OFFCURVE",
"21 394 OFFCURVE",
"21 387 CURVE SMOOTH",
"21 366 OFFCURVE",
"28 356 OFFCURVE",
"42 356 CURVE",
"207 417 OFFCURVE",
"336 448 OFFCURVE",
"427 450 CURVE SMOOTH",
"434 450 LINE SMOOTH",
"498 450 OFFCURVE",
"550 435 OFFCURVE",
"591 404 CURVE SMOOTH",
"632 374 OFFCURVE",
"652 333 OFFCURVE",
"652 282 CURVE SMOOTH",
"652 217 OFFCURVE",
"604 140 OFFCURVE",
"527 76 CURVE SMOOTH",
"489 45 OFFCURVE",
"440 19 OFFCURVE",
"381 -2 CURVE SMOOTH",
"322 -23 OFFCURVE",
"259 -33 OFFCURVE",
"193 -33 CURVE SMOOTH",
"186 -33 OFFCURVE",
"180 -33 OFFCURVE",
"175 -32 CURVE",
"159 -32 LINE SMOOTH",
"149 -32 OFFCURVE",
"144 -35 OFFCURVE",
"144 -41 CURVE SMOOTH",
"144 -52 OFFCURVE",
"176 -57 OFFCURVE",
"240 -57 CURVE SMOOTH",
"305 -57 OFFCURVE",
"365 -47 OFFCURVE",
"422 -27 CURVE SMOOTH",
"479 -8 OFFCURVE",
"527 18 OFFCURVE",
"564 49 CURVE SMOOTH",
"640 112 OFFCURVE",
"686 193 OFFCURVE",
"686 269 CURVE SMOOTH"
);
},
{
closed = 1;
nodes = (
"124 -102 LINE",
"124 -100 OFFCURVE",
"122 -93 OFFCURVE",
"117 -81 CURVE SMOOTH",
"112 -69 OFFCURVE",
"110 -59 OFFCURVE",
"110 -52 CURVE SMOOTH",
"110 13 OFFCURVE",
"161 133 OFFCURVE",
"263 310 CURVE",
"282 339 OFFCURVE",
"300 368 OFFCURVE",
"317 398 CURVE",
"317 406 OFFCURVE",
"293 415 OFFCURVE",
"278 415 CURVE SMOOTH",
"271 415 OFFCURVE",
"263 407 OFFCURVE",
"254 390 CURVE SMOOTH",
"245 374 OFFCURVE",
"226 344 OFFCURVE",
"226 339 CURVE",
"133 175 OFFCURVE",
"86 52 OFFCURVE",
"86 -31 CURVE SMOOTH",
"86 -78 OFFCURVE",
"101 -103 OFFCURVE",
"122 -103 CURVE"
);
}
);
width = 694;
}
);
note = D;
unicode = 0044;
},
{
glyphname = E;
layers = (
{
hints = (
{
horizontal = 1;
place = "{-76, 25}";
type = Stem;
},
{
horizontal = 1;
place = "{135, 40}";
type = Stem;
},
{
horizontal = 1;
place = "{447, 24}";
type = Stem;
},
{
place = "{24, 49}";
type = Stem;
},
{
place = "{452, 13}";
type = Stem;
},
{
horizontal = 1;
place = "{492, 13}";
type = Stem;
}
);
layerId = "8B85D65B-9817-42FC-8CCD-19CD4C331E33";
paths = (
{
closed = 1;
nodes = (
"13 183 LINE",
"8 183 OFFCURVE",
"7 179 OFFCURVE",
"16 155 CURVE SMOOTH",
"21 144 OFFCURVE",
"26 138 OFFCURVE",
"29 138 CURVE",
"26 118 OFFCURVE",
"24 101 OFFCURVE",
"24 86 CURVE SMOOTH",
"24 -14 OFFCURVE",
"94 -76 OFFCURVE",
"195 -76 CURVE SMOOTH",
"246 -76 OFFCURVE",
"299 -64 OFFCURVE",
"356 -41 CURVE SMOOTH",
"413 -18 OFFCURVE",
"459 13 OFFCURVE",
"495 54 CURVE SMOOTH",
"507 67 OFFCURVE",
"505 79 OFFCURVE",
"500 79 CURVE SMOOTH",
"496 79 OFFCURVE",
"489 74 OFFCURVE",
"480 65 CURVE SMOOTH",
"409 -12 OFFCURVE",
"326 -51 OFFCURVE",
"233 -51 CURVE SMOOTH",
"140 -51 OFFCURVE",
"73 10 OFFCURVE",
"73 99 CURVE SMOOTH",
"73 110 OFFCURVE",
"74 122 OFFCURVE",
"76 135 CURVE",
"132 136 OFFCURVE",
"201 143 OFFCURVE",
"284 155 CURVE SMOOTH",
"367 168 OFFCURVE",
"408 180 OFFCURVE",
"408 193 CURVE SMOOTH",
"408 196 OFFCURVE",
"406 198 OFFCURVE",
"401 198 CURVE",
"358 187 OFFCURVE",
"316 181 OFFCURVE",
"276 178 CURVE SMOOTH",
"233 176 OFFCURVE",
"170 175 OFFCURVE",
"88 175 CURVE",
"113 245 OFFCURVE",
"163 308 OFFCURVE",
"236 363 CURVE SMOOTH",
"309 419 OFFCURVE",
"381 447 OFFCURVE",
"450 447 CURVE SMOOTH",
"457 447 OFFCURVE",
"466 446 OFFCURVE",
"475 445 CURVE",
"460 419 OFFCURVE",
"452 394 OFFCURVE",
"452 370 CURVE SMOOTH",
"452 346 OFFCURVE",
"457 334 OFFCURVE",
"467 334 CURVE SMOOTH",
"468 334 OFFCURVE",
"469 335 OFFCURVE",
"469 336 CURVE SMOOTH",
"465 351 LINE",
"465 361 OFFCURVE",
"472 378 OFFCURVE",
"485 401 CURVE SMOOTH",
"499 424 OFFCURVE",
"513 445 OFFCURVE",
"526 464 CURVE SMOOTH",
"540 483 OFFCURVE",
"548 492 OFFCURVE",
"549 492 CURVE",
"549 501 OFFCURVE",
"537 505 OFFCURVE",
"514 505 CURVE SMOOTH",
"511 505 OFFCURVE",
"509 505 OFFCURVE",
"507 504 CURVE SMOOTH",
"499 501 OFFCURVE",
"492 487 OFFCURVE",
"485 463 CURVE",
"476 468 OFFCURVE",
"458 471 OFFCURVE",
"432 471 CURVE SMOOTH",
"357 471 OFFCURVE",
"280 441 OFFCURVE",
"201 382 CURVE SMOOTH",
"122 323 OFFCURVE",
"69 254 OFFCURVE",
"42 177 CURVE"
);
}
);
width = 490;
}
);
note = E;
unicode = 0045;
},
{
glyphname = F;
layers = (
{
hints = (
{
horizontal = 1;
place = "{135, 40}";
type = Stem;
},
{
horizontal = 1;
place = "{484, 17}";
type = Stem;
},
{
place = "{281, 16}";
type = Stem;
},
{
place = "{465, 43}";
type = Stem;
}
);
layerId = "8B85D65B-9817-42FC-8CCD-19CD4C331E33";
paths = (
{
closed = 1;
nodes = (
"297 -88 LINE",
"297 -33 OFFCURVE",
"335 56 OFFCURVE",
"411 178 CURVE",
"462 188 LINE",
"482 190 OFFCURVE",
"493 195 OFFCURVE",
"493 200 CURVE SMOOTH",
"493 203 OFFCURVE",
"490 204 OFFCURVE",
"483 204 CURVE SMOOTH",
"477 204 OFFCURVE",
"456 200 OFFCURVE",
"419 193 CURVE",
"461 259 OFFCURVE",
"486 302 OFFCURVE",
"495 322 CURVE SMOOTH",
"504 343 OFFCURVE",
"508 368 OFFCURVE",
"508 399 CURVE SMOOTH",
"508 467 OFFCURVE",
"470 501 OFFCURVE",
"394 501 CURVE SMOOTH",
"360 501 OFFCURVE",
"314 493 OFFCURVE",
"257 478 CURVE SMOOTH",
"200 463 OFFCURVE",
"147 443 OFFCURVE",
"99 418 CURVE SMOOTH",
"51 393 OFFCURVE",
"27 370 OFFCURVE",
"27 347 CURVE SMOOTH",
"27 328 OFFCURVE",
"32 319 OFFCURVE",
"41 319 CURVE SMOOTH",
"44 319 OFFCURVE",
"46 320 OFFCURVE",
"47 321 CURVE SMOOTH",
"88 362 OFFCURVE",
"144 399 OFFCURVE",
"215 433 CURVE SMOOTH",
"286 467 OFFCURVE",
"344 484 OFFCURVE",
"388 484 CURVE SMOOTH",
"439 484 OFFCURVE",
"465 461 OFFCURVE",
"465 415 CURVE SMOOTH",
"465 384 OFFCURVE",
"454 345 OFFCURVE",
"433 298 CURVE SMOOTH",
"379 188 LINE",
"220 171 OFFCURVE",
"141 172 OFFCURVE",
"100 183 CURVE",
"99 182 OFFCURVE",
"98 181 OFFCURVE",
"98 180 CURVE SMOOTH",
"98 150 OFFCURVE",
"113 135 OFFCURVE",
"143 135 CURVE SMOOTH",
"173 135 OFFCURVE",
"224 142 OFFCURVE",
"296 157 CURVE SMOOTH",
"331 163 OFFCURVE",
"356 168 OFFCURVE",
"370 171 CURVE",
"311 52 OFFCURVE",
"281 -29 OFFCURVE",
"281 -74 CURVE SMOOTH",
"281 -101 OFFCURVE",
"290 -130 OFFCURVE",
"301 -130 CURVE SMOOTH",
"302 -130 OFFCURVE",
"302 -128 OFFCURVE",
"302 -125 CURVE SMOOTH"
);
}
);
width = 476;
}
);
note = F;
unicode = 0046;
},
{
glyphname = G;
layers = (
{
hints = (
{
horizontal = 1;
place = "{-76, 25}";
type = Stem;
},
{
horizontal = 1;
place = "{176, 10}";
type = Stem;
},
{
horizontal = 1;
place = "{448, 15}";
type = Stem;
},
{
place = "{24, 38}";
type = Stem;
},
{
place = "{506, 17}";
type = Stem;
}
);
layerId = "8B85D65B-9817-42FC-8CCD-19CD4C331E33";
paths = (
{
closed = 1;
nodes = (
"297 192 LINE SMOOTH",
"294 192 OFFCURVE",
"293 191 OFFCURVE",
"293 188 CURVE SMOOTH",
"293 163 OFFCURVE",
"309 145 OFFCURVE",
"325 145 CURVE SMOOTH",
"352 145 OFFCURVE",
"418 155 OFFCURVE",
"523 176 CURVE",
"513 147 LINE",
"508 138 OFFCURVE",
"496 124 OFFCURVE",
"479 105 CURVE SMOOTH",
"388 1 OFFCURVE",
"305 -51 OFFCURVE",
"228 -51 CURVE SMOOTH",
"79 -57 OFFCURVE",
"1 85 OFFCURVE",
"120 252 CURVE SMOOTH",
"159 307 OFFCURVE",
"209 354 OFFCURVE",
"270 391 CURVE SMOOTH",
"331 429 OFFCURVE",
"392 448 OFFCURVE",
"452 448 CURVE SMOOTH",
"482 448 OFFCURVE",
"509 442 OFFCURVE",
"534 429 CURVE",
"515 390 OFFCURVE",
"506 352 OFFCURVE",
"506 315 CURVE SMOOTH",
"506 295 OFFCURVE",
"511 285 OFFCURVE",
"521 285 CURVE SMOOTH",
"524 285 OFFCURVE",
"526 287 OFFCURVE",
"526 290 CURVE",
"523 293 LINE",
"524 302 OFFCURVE",
"537 322 OFFCURVE",
"560 352 CURVE SMOOTH",
"577 373 OFFCURVE",
"600 401 OFFCURVE",
"600 402 CURVE SMOOTH",
"600 405 OFFCURVE",
"585 420 OFFCURVE",
"568 431 CURVE",
"574 438 OFFCURVE",
"585 449 OFFCURVE",
"600 463 CURVE SMOOTH",
"615 478 OFFCURVE",
"623 486 OFFCURVE",
"623 488 CURVE SMOOTH",
"623 495 OFFCURVE",
"615 498 OFFCURVE",
"600 498 CURVE SMOOTH",
"585 498 OFFCURVE",
"571 491 OFFCURVE",
"560 476 CURVE",
"542 445 LINE",
"490 469 OFFCURVE",
"393 475 OFFCURVE",
"288 427 CURVE SMOOTH",
"183 380 OFFCURVE",
"107 304 OFFCURVE",
"59 215 CURVE SMOOTH",
"36 170 OFFCURVE",
"24 125 OFFCURVE",
"24 79 CURVE SMOOTH",
"24 33 OFFCURVE",
"40 -4 OFFCURVE",
"71 -33 CURVE SMOOTH",
"103 -62 OFFCURVE",
"145 -76 OFFCURVE",
"198 -76 CURVE SMOOTH",
"296 -76 OFFCURVE",
"391 -27 OFFCURVE",
"483 70 CURVE",
"428 -68 OFFCURVE",
"373 -160 OFFCURVE",
"320 -207 CURVE",
"315 -210 OFFCURVE",
"298 -218 OFFCURVE",
"268 -229 CURVE SMOOTH",
"259 -232 OFFCURVE",
"255 -235 OFFCURVE",
"255 -237 CURVE SMOOTH",
"255 -243 OFFCURVE",
"261 -246 OFFCURVE",
"273 -246 CURVE SMOOTH",
"312 -246 OFFCURVE",
"360 -204 OFFCURVE",
"419 -120 CURVE SMOOTH",
"478 -37 OFFCURVE",
"532 66 OFFCURVE",
"580 187 CURVE",
"602 191 OFFCURVE",
"613 195 OFFCURVE",
"613 198 CURVE SMOOTH",
"613 202 OFFCURVE",
"610 204 OFFCURVE",
"605 204 CURVE",
"575 199 LINE",
"546 216 OFFCURVE",
"538 219 OFFCURVE",
"530 192 CURVE",
"490 188 OFFCURVE",
"432 186 OFFCURVE",
"356 186 CURVE"
);
},
{
closed = 1;
nodes = (
"576 401 LINE",
"551 362 OFFCURVE",
"533 336 OFFCURVE",
"523 323 CURVE",
"530 348 OFFCURVE",
"544 377 OFFCURVE",
"565 411 CURVE"
);
}
);
width = 606;
}
);
note = G;
unicode = 0047;
},
{
glyphname = H;
layers = (
{
hints = (
{
horizontal = 1;
place = "{-17, 15}";
type = Stem;
},
{
horizontal = 1;
place = "{133, 45}";
type = Stem;
},
{
place = "{87, 29}";
type = Stem;
},
{
place = "{434, 25}";
type = Stem;
},
{
horizontal = 1;
place = "{142, 45}";
type = Stem;
}
);
layerId = "8B85D65B-9817-42FC-8CCD-19CD4C331E33";
paths = (
{
closed = 1;
nodes = (
"13 183 LINE",
"10 183 OFFCURVE",
"9 182 OFFCURVE",
"9 180 CURVE SMOOTH",
"9 149 OFFCURVE",
"25 133 OFFCURVE",
"58 133 CURVE SMOOTH",
"73 133 OFFCURVE",
"100 134 OFFCURVE",
"139 137 CURVE",
"70 -43 OFFCURVE",
"75 -148 OFFCURVE",
"123 -148 CURVE SMOOTH",
"139 -148 OFFCURVE",
"116 -148 OFFCURVE",
"116 -98 CURVE SMOOTH",
"116 -45 OFFCURVE",
"140 35 OFFCURVE",
"189 142 CURVE",
"267 142 OFFCURVE",
"360 155 OFFCURVE",
"468 181 CURVE",
"445 134 OFFCURVE",
"434 91 OFFCURVE",
"434 53 CURVE SMOOTH",
"434 13 OFFCURVE",
"455 -17 OFFCURVE",
"486 -17 CURVE SMOOTH",
"493 -17 OFFCURVE",
"502 -15 OFFCURVE",
"514 -10 CURVE SMOOTH",
"526 -6 OFFCURVE",
"532 -2 OFFCURVE",
"532 1 CURVE SMOOTH",
"532 2 OFFCURVE",
"531 3 OFFCURVE",
"529 3 CURVE SMOOTH",
"495 -2 LINE",
"471 -2 OFFCURVE",
"459 13 OFFCURVE",
"459 43 CURVE SMOOTH",
"459 108 OFFCURVE",
"509 208 OFFCURVE",
"609 341 CURVE SMOOTH",
"628 366 OFFCURVE",
"646 393 OFFCURVE",
"661 413 CURVE",
"661 421 OFFCURVE",
"638 430 OFFCURVE",
"622 430 CURVE SMOOTH",
"614 430 OFFCURVE",
"595 405 OFFCURVE",
"564 356 CURVE SMOOTH",
"533 307 OFFCURVE",
"504 256 OFFCURVE",
"477 203 CURVE",
"432 196 OFFCURVE",
"398 192 OFFCURVE",
"373 191 CURVE SMOOTH",
"208 183 LINE",
"234 239 OFFCURVE",
"267 301 OFFCURVE",
"307 369 CURVE SMOOTH",
"355 446 LINE",
"355 455 OFFCURVE",
"346 459 OFFCURVE",
"328 459 CURVE SMOOTH",
"310 459 OFFCURVE",
"299 457 OFFCURVE",
"294 452 CURVE",
"239 358 OFFCURVE",
"193 268 OFFCURVE",
"156 181 CURVE",
"143 179 OFFCURVE",
"101 178 OFFCURVE",
"32 178 CURVE"
);
}
);
width = 547;
}
);
note = H;
unicode = 0048;
},
{
glyphname = I;
layers = (
{
hints = (
{
horizontal = 1;
place = "{-57, 41}";
type = Stem;
},
{
horizontal = 1;
place = "{430, 21}";
type = Stem;
},
{
place = "{106, 26}";
type = Stem;
},
{
horizontal = 1;
place = "{-68, 16}";
type = Stem;
},
{
horizontal = 1;
place = "{-41, 26}";
type = Stem;
},
{
place = "{103, 19}";
type = Stem;
}
);
layerId = "8B85D65B-9817-42FC-8CCD-19CD4C331E33";
paths = (
{
closed = 1;
nodes = (
"-10 -11 LINE SMOOTH",
"-13 -11 OFFCURVE",
"-15 -13 OFFCURVE",
"-15 -16 CURVE SMOOTH",
"-15 -48 OFFCURVE",
"-12 -57 OFFCURVE",
"17 -57 CURVE SMOOTH",
"32 -57 OFFCURVE",
"64 -53 OFFCURVE",
"113 -44 CURVE",
"121 -60 OFFCURVE",
"134 -68 OFFCURVE",
"152 -68 CURVE SMOOTH",
"159 -68 OFFCURVE",
"170 -66 OFFCURVE",
"184 -61 CURVE SMOOTH",
"198 -56 OFFCURVE",
"206 -52 OFFCURVE",
"208 -47 CURVE",
"208 -46 OFFCURVE",
"206 -45 OFFCURVE",
"203 -45 CURVE",
"165 -52 LINE",
"151 -52 OFFCURVE",
"141 -48 OFFCURVE",
"136 -41 CURVE",
"282 -13 LINE SMOOTH",
"299 -10 OFFCURVE",
"307 -7 OFFCURVE",
"307 -2 CURVE SMOOTH",
"307 3 OFFCURVE",
"297 2 OFFCURVE",
"292 1 CURVE SMOOTH",
"255 -8 OFFCURVE",
"202 -14 OFFCURVE",
"132 -15 CURVE",
"134 20 OFFCURVE",
"161 78 OFFCURVE",
"214 161 CURVE SMOOTH",
"267 244 OFFCURVE",
"336 333 OFFCURVE",
"423 430 CURVE",
"441 430 LINE SMOOTH",
"448 430 OFFCURVE",
"459 443 OFFCURVE",
"459 448 CURVE SMOOTH",
"459 449 OFFCURVE",
"453 450 OFFCURVE",
"441 451 CURVE",
"446 456 OFFCURVE",
"448 460 OFFCURVE",
"448 462 CURVE SMOOTH",
"448 471 OFFCURVE",
"418 481 OFFCURVE",
"401 481 CURVE SMOOTH",
"388 481 OFFCURVE",
"377 471 OFFCURVE",
"368 450 CURVE",
"191 443 OFFCURVE",
"103 400 OFFCURVE",
"103 323 CURVE SMOOTH",
"103 320 OFFCURVE",
"104 319 OFFCURVE",
"106 319 CURVE SMOOTH",
"113 319 OFFCURVE",
"117 326 OFFCURVE",
"120 340 CURVE SMOOTH",
"124 354 LINE",
"148 391 OFFCURVE",
"223 415 OFFCURVE",
"350 426 CURVE",
"187 205 OFFCURVE",
"106 61 OFFCURVE",
"106 -8 CURVE SMOOTH",
"106 -16 LINE",
"49 -16 LINE"
);
}
);
width = 351;
}
);
note = I;
unicode = 0049;
},
{
glyphname = J;
layers = (
{
hints = (
{
horizontal = 1;
place = "{-140, 12}";
type = Stem;
},
{
horizontal = 1;
place = "{457, 15}";
type = Stem;
},
{
place = "{9, 15}";
type = Stem;
},
{
place = "{97, 22}";
type = Stem;
},
{
place = "{651, 46}";
type = Stem;
}
);
layerId = "8B85D65B-9817-42FC-8CCD-19CD4C331E33";
paths = (
{
closed = 1;
nodes = (
"697 434 OFFCURVE",
"640 472 OFFCURVE",
"525 472 CURVE SMOOTH",
"473 472 OFFCURVE",
"406 456 OFFCURVE",
"323 423 CURVE SMOOTH",
"240 391 OFFCURVE",
"167 353 OFFCURVE",
"104 308 CURVE SMOOTH",
"41 263 OFFCURVE",
"9 225 OFFCURVE",
"9 193 CURVE SMOOTH",
"9 174 OFFCURVE",
"30 145 OFFCURVE",
"41 145 CURVE SMOOTH",
"52 145 OFFCURVE",
"49 150 OFFCURVE",
"48 150 CURVE",
"32 160 OFFCURVE",
"24 172 OFFCURVE",
"24 186 CURVE SMOOTH",
"24 210 OFFCURVE",
"54 243 OFFCURVE",
"113 285 CURVE SMOOTH",
"173 327 OFFCURVE",
"238 364 OFFCURVE",
"309 395 CURVE SMOOTH",
"405 436 OFFCURVE",
"482 457 OFFCURVE",
"541 457 CURVE SMOOTH",
"614 457 OFFCURVE",
"651 431 OFFCURVE",
"651 380 CURVE SMOOTH",
"651 323 OFFCURVE",
"614 248 OFFCURVE",
"541 156 CURVE SMOOTH",
"468 65 OFFCURVE",
"387 -12 OFFCURVE",
"296 -74 CURVE SMOOTH",
"243 -110 OFFCURVE",
"198 -128 OFFCURVE",
"159 -128 CURVE SMOOTH",
"132 -128 OFFCURVE",
"119 -114 OFFCURVE",
"119 -87 CURVE SMOOTH",
"119 -12 OFFCURVE",
"260 100 OFFCURVE",
"541 249 CURVE SMOOTH",
"551 254 OFFCURVE",
"556 258 OFFCURVE",
"556 262 CURVE SMOOTH",
"556 266 OFFCURVE",
"552 262 OFFCURVE",
"547 262 CURVE",
"454 231 OFFCURVE",
"364 187 OFFCURVE",
"276 129 CURVE SMOOTH",
"157 52 OFFCURVE",
"97 -20 OFFCURVE",
"97 -85 CURVE SMOOTH",
"97 -118 OFFCURVE",
"132 -140 OFFCURVE",
"177 -140 CURVE SMOOTH",
"218 -140 OFFCURVE",
"268 -123 OFFCURVE",
"328 -89 CURVE SMOOTH",
"389 -55 OFFCURVE",
"446 -13 OFFCURVE",
"500 36 CURVE SMOOTH",
"554 85 OFFCURVE",
"600 140 OFFCURVE",
"639 199 CURVE SMOOTH",
"678 258 OFFCURVE",
"697 311 OFFCURVE",
"697 357 CURVE SMOOTH"
);
}
);
width = 636;
}
);
note = J;
unicode = 004A;
},
{
glyphname = K;
layers = (
{
hints = (
{
horizontal = 1;
place = "{-128, 27}";
type = Stem;
},
{
horizontal = 1;
place = "{160, 23}";
type = Stem;
},
{
horizontal = 1;
place = "{417, 21}";
type = Stem;
},
{
place = "{7, 25}";
type = Stem;
},
{
place = "{449, 21}";
type = Stem;
}
);
layerId = "8B85D65B-9817-42FC-8CCD-19CD4C331E33";
paths = (
{
closed = 1;
nodes = (
"596 410 OFFCURVE",
"600 422 OFFCURVE",
"571 431 CURVE SMOOTH",
"556 436 OFFCURVE",
"539 438 OFFCURVE",
"520 438 CURVE SMOOTH",
"481 438 OFFCURVE",
"434 422 OFFCURVE",
"350 354 CURVE",
"261 273 LINE SMOOTH",
"216 231 OFFCURVE",
"176 199 OFFCURVE",
"142 176 CURVE",
"141 185 OFFCURVE",
"135 186 OFFCURVE",
"124 173 CURVE SMOOTH",
"119 166 OFFCURVE",
"117 162 OFFCURVE",
"117 160 CURVE SMOOTH",
"117 159 OFFCURVE",
"129 133 OFFCURVE",
"153 82 CURVE",
"222 -45 OFFCURVE",
"313 -128 OFFCURVE",
"397 -128 CURVE SMOOTH",
"440 -128 OFFCURVE",
"470 -106 OFFCURVE",
"470 -75 CURVE SMOOTH",
"470 -50 OFFCURVE",
"454 -22 OFFCURVE",
"422 9 CURVE SMOOTH",
"412 19 OFFCURVE",
"405 24 OFFCURVE",
"401 24 CURVE",
"399 22 LINE",
"432 -27 OFFCURVE",
"449 -60 OFFCURVE",
"449 -76 CURVE SMOOTH",
"449 -93 OFFCURVE",
"440 -101 OFFCURVE",
"422 -101 CURVE SMOOTH",
"387 -101 OFFCURVE",
"342 -77 OFFCURVE",
"287 -28 CURVE SMOOTH",
"232 20 OFFCURVE",
"186 83 OFFCURVE",
"149 160 CURVE",
"272 254 LINE SMOOTH",
"339 305 OFFCURVE",
"394 345 OFFCURVE",
"438 374 CURVE SMOOTH",
"482 403 OFFCURVE",
"519 417 OFFCURVE",
"549 417 CURVE SMOOTH",
"554 417 OFFCURVE",
"566 415 OFFCURVE",
"583 410 CURVE"
);
},
{
closed = 1;
nodes = (
"32 13 OFFCURVE",
"83 133 OFFCURVE",
"185 310 CURVE SMOOTH",
"198 333 OFFCURVE",
"212 354 OFFCURVE",
"220 367 CURVE SMOOTH",
"240 398 LINE",
"240 403 OFFCURVE",
"216 415 OFFCURVE",
"201 415 CURVE SMOOTH",
"192 415 OFFCURVE",
"174 390 OFFCURVE",
"149 339 CURVE",
"54 173 OFFCURVE",
"7 50 OFFCURVE",
"7 -31 CURVE SMOOTH",
"7 -80 OFFCURVE",
"24 -103 OFFCURVE",
"44 -103 CURVE SMOOTH",
"46 -103 OFFCURVE",
"44 -96 OFFCURVE",
"39 -82 CURVE SMOOTH",
"34 -70 OFFCURVE",
"32 -60 OFFCURVE",
"32 -52 CURVE SMOOTH"
);
}
);
width = 455;
}
);
note = K;
unicode = 004B;
},
{
glyphname = L;
layers = (
{
hints = (
{
horizontal = 1;
place = "{2, 28}";
type = Stem;
},
{
horizontal = 1;
place = "{528, -20}";
target = down;
type = TopGhost;
},
{
place = "{65, 26}";
type = Stem;
},
{
place = "{440, 17}";
type = Stem;
},
{
horizontal = 1;
place = "{494, 34}";
type = Stem;
},
{
place = "{382, 32}";
type = Stem;
}
);
layerId = "8B85D65B-9817-42FC-8CCD-19CD4C331E33";
paths = (
{
closed = 1;
nodes = (
"457 7 OFFCURVE",
"407 30 OFFCURVE",
"308 30 CURVE SMOOTH",
"246 30 OFFCURVE",
"177 22 OFFCURVE",
"100 6 CURVE",
"113 61 OFFCURVE",
"142 132 OFFCURVE",
"185 219 CURVE SMOOTH",
"229 306 OFFCURVE",
"276 386 OFFCURVE",
"327 459 CURVE SMOOTH",
"344 482 OFFCURVE",
"358 494 OFFCURVE",
"369 494 CURVE SMOOTH",
"378 494 OFFCURVE",
"382 487 OFFCURVE",
"382 474 CURVE SMOOTH",
"382 429 OFFCURVE",
"330 340 OFFCURVE",
"226 206 CURVE SMOOTH",
"189 159 OFFCURVE",
"171 135 OFFCURVE",
"171 132 CURVE",
"174 130 LINE",
"178 130 OFFCURVE",
"186 137 OFFCURVE",
"198 152 CURVE SMOOTH",
"211 167 OFFCURVE",
"218 177 OFFCURVE",
"220 182 CURVE",
"275 246 OFFCURVE",
"321 306 OFFCURVE",
"358 363 CURVE SMOOTH",
"395 420 OFFCURVE",
"414 459 OFFCURVE",
"414 481 CURVE SMOOTH",
"414 492 OFFCURVE",
"406 503 OFFCURVE",
"389 513 CURVE SMOOTH",
"373 523 OFFCURVE",
"357 528 OFFCURVE",
"341 528 CURVE SMOOTH",
"316 528 OFFCURVE",
"283 496 OFFCURVE",
"242 433 CURVE SMOOTH",
"201 370 OFFCURVE",
"164 296 OFFCURVE",
"131 212 CURVE SMOOTH",
"98 128 OFFCURVE",
"77 57 OFFCURVE",
"70 0 CURVE",
"35 -7 OFFCURVE",
"15 -13 OFFCURVE",
"9 -17 CURVE",
"4 -22 OFFCURVE",
"1 -34 OFFCURVE",
"1 -53 CURVE SMOOTH",
"1 -62 OFFCURVE",
"4 -66 OFFCURVE",
"10 -66 CURVE",
"36 -57 OFFCURVE",
"54 -51 OFFCURVE",
"65 -48 CURVE",
"67 -92 OFFCURVE",
"80 -114 OFFCURVE",
"104 -114 CURVE SMOOTH",
"107 -114 OFFCURVE",
"109 -120 OFFCURVE",
"98 -85 CURVE SMOOTH",
"93 -68 OFFCURVE",
"91 -53 OFFCURVE",
"91 -41 CURVE",
"186 -12 OFFCURVE",
"261 2 OFFCURVE",
"316 2 CURVE SMOOTH",
"399 2 OFFCURVE",
"440 -14 OFFCURVE",
"440 -45 CURVE SMOOTH",
"440 -52 OFFCURVE",
"432 -74 OFFCURVE",
"411 -95 CURVE",
"411 -96 OFFCURVE",
"412 -97 OFFCURVE",
"413 -98 CURVE",
"424 -98 OFFCURVE",
"434 -90 OFFCURVE",
"443 -73 CURVE SMOOTH",
"452 -56 OFFCURVE",
"457 -45 OFFCURVE",
"457 -39 CURVE SMOOTH"
);
}
);
width = 468;
}
);
note = L;
unicode = 004C;
},
{
glyphname = M;
layers = (
{
hints = (
{
horizontal = 1;
place = "{-72, 13}";
type = Stem;
},
{
horizontal = 1;
place = "{389, 28}";
type = Stem;
},
{
place = "{21, 31}";
type = Stem;
},
{
place = "{411, 43}";
type = Stem;
},
{
place = "{539, 41}";
type = Stem;
}
);
layerId = "8B85D65B-9817-42FC-8CCD-19CD4C331E33";
paths = (
{
closed = 1;
nodes = (
"700 355 OFFCURVE",
"712 378 OFFCURVE",
"712 381 CURVE SMOOTH",
"712 385 OFFCURVE",
"707 387 OFFCURVE",
"697 387 CURVE SMOOTH",
"675 387 OFFCURVE",
"654 372 OFFCURVE",
"633 342 CURVE SMOOTH",
"612 313 OFFCURVE",
"595 277 OFFCURVE",
"582 236 CURVE SMOOTH",
"569 195 OFFCURVE",
"558 155 OFFCURVE",
"550 116 CURVE SMOOTH",
"535 39 OFFCURVE",
"534 -8 OFFCURVE",
"555 -44 CURVE SMOOTH",
"566 -63 OFFCURVE",
"581 -72 OFFCURVE",
"600 -72 CURVE SMOOTH",
"639 -72 OFFCURVE",
"669 -34 OFFCURVE",
"688 43 CURVE SMOOTH",
"690 49 OFFCURVE",
"690 74 OFFCURVE",
"675 46 CURVE",
"645 -24 OFFCURVE",
"622 -59 OFFCURVE",
"606 -59 CURVE SMOOTH",
"589 -59 OFFCURVE",
"580 -33 OFFCURVE",
"580 19 CURVE SMOOTH",
"580 98 OFFCURVE",
"612 196 OFFCURVE",
"676 312 CURVE SMOOTH"
);
},
{
closed = 1;
nodes = (
"335 40 LINE",
"389 87 OFFCURVE",
"491 193 OFFCURVE",
"641 358 CURVE",
"641 360 OFFCURVE",
"640 361 OFFCURVE",
"638 361 CURVE SMOOTH",
"629 361 OFFCURVE",
"611 347 OFFCURVE",
"585 320 CURVE SMOOTH",
"560 293 OFFCURVE",
"544 275 OFFCURVE",
"538 266 CURVE",
"455 181 OFFCURVE",
"396 122 OFFCURVE",
"361 90 CURVE",
"423 216 OFFCURVE",
"454 305 OFFCURVE",
"454 356 CURVE SMOOTH",
"454 397 OFFCURVE",
"436 417 OFFCURVE",
"401 417 CURVE SMOOTH",
"328 417 OFFCURVE",
"243 349 OFFCURVE",
"146 214 CURVE",
"167 257 OFFCURVE",
"215 340 OFFCURVE",
"289 461 CURVE",
"289 472 OFFCURVE",
"262 481 OFFCURVE",
"245 481 CURVE SMOOTH",
"237 481 OFFCURVE",
"226 469 OFFCURVE",
"212 446 CURVE SMOOTH",
"199 423 OFFCURVE",
"190 407 OFFCURVE",
"185 396 CURVE",
"76 207 OFFCURVE",
"21 66 OFFCURVE",
"21 -27 CURVE SMOOTH",
"21 -74 OFFCURVE",
"42 -117 OFFCURVE",
"62 -117 CURVE SMOOTH",
"69 -117 OFFCURVE",
"69 -112 OFFCURVE",
"62 -105 CURVE SMOOTH",
"59 -102 OFFCURVE",
"52 -86 OFFCURVE",
"52 -55 CURVE SMOOTH",
"52 12 OFFCURVE",
"79 85 OFFCURVE",
"132 162 CURVE SMOOTH",
"174 227 OFFCURVE",
"218 281 OFFCURVE",
"264 324 CURVE SMOOTH",
"310 367 OFFCURVE",
"352 388 OFFCURVE",
"389 389 CURVE SMOOTH",
"404 389 OFFCURVE",
"411 380 OFFCURVE",
"411 361 CURVE SMOOTH",
"411 327 OFFCURVE",
"385 259 OFFCURVE",
"334 157 CURVE SMOOTH",
"283 55 OFFCURVE",
"258 4 OFFCURVE",
"259 4 CURVE",
"259 -5 OFFCURVE",
"267 -10 OFFCURVE",
"284 -10 CURVE SMOOTH",
"301 -10 OFFCURVE",
"311 -7 OFFCURVE",
"316 0 CURVE"
);
}
);
width = 694;
}
);
note = M;
unicode = 004D;
},
{
glyphname = N;
layers = (
{
hints = (
{
horizontal = 1;
place = "{-72, 13}";
type = Stem;
},
{
place = "{29, 34}";
type = Stem;
},
{
place = "{321, 41}";
type = Stem;
}
);
layerId = "8B85D65B-9817-42FC-8CCD-19CD4C331E33";
paths = (
{
closed = 1;
nodes = (
"63 2 OFFCURVE",
"109 73 OFFCURVE",
"202 167 CURVE",
"407 352 LINE",
"384 300 OFFCURVE",
"363 241 OFFCURVE",
"346 176 CURVE SMOOTH",
"329 111 OFFCURVE",
"321 63 OFFCURVE",
"321 30 CURVE SMOOTH",
"321 -34 OFFCURVE",
"347 -72 OFFCURVE",
"383 -72 CURVE SMOOTH",
"420 -72 OFFCURVE",
"449 -34 OFFCURVE",
"470 43 CURVE SMOOTH",
"473 53 OFFCURVE",
"472 73 OFFCURVE",
"457 46 CURVE",
"428 -24 OFFCURVE",
"405 -59 OFFCURVE",
"388 -59 CURVE SMOOTH",
"371 -59 OFFCURVE",
"362 -35 OFFCURVE",
"362 14 CURVE SMOOTH",
"362 105 OFFCURVE",
"411 248 OFFCURVE",
"509 442 CURVE",
"510 446 LINE",
"510 451 OFFCURVE",
"506 453 OFFCURVE",
"498 453 CURVE SMOOTH",
"481 452 OFFCURVE",
"467 447 OFFCURVE",
"457 438 CURVE SMOOTH",
"379 367 LINE SMOOTH",
"218 224 OFFCURVE",
"116 117 OFFCURVE",
"73 46 CURVE",
"91 104 OFFCURVE",
"123 175 OFFCURVE",
"169 258 CURVE SMOOTH",
"177 271 OFFCURVE",
"194 302 OFFCURVE",
"233 367 CURVE SMOOTH",
"289 461 LINE",
"289 472 OFFCURVE",
"262 481 OFFCURVE",
"246 481 CURVE SMOOTH",
"233 481 OFFCURVE",
"213 454 OFFCURVE",
"186 399 CURVE",
"81 224 OFFCURVE",
"29 91 OFFCURVE",
"29 2 CURVE SMOOTH",
"29 -43 OFFCURVE",
"46 -89 OFFCURVE",
"70 -89 CURVE SMOOTH",
"73 -89 OFFCURVE",
"75 -88 OFFCURVE",
"75 -85 CURVE",
"67 -73 OFFCURVE",
"63 -60 OFFCURVE",
"63 -47 CURVE SMOOTH"
);
}
);
width = 473;
}
);
note = N;
unicode = 004E;
},
{
glyphname = O;
layers = (
{
hints = (
{
horizontal = 1;
place = "{-75, 26}";
type = Stem;
},
{
horizontal = 1;
place = "{374, 18}";
type = Stem;
},
{
horizontal = 1;
place = "{436, 16}";
type = Stem;
},
{
place = "{22, 55}";
type = Stem;
},
{
place = "{603, 24}";
type = Stem;
},
{
place = "{567, 43}";
type = Stem;
}
);
layerId = "8B85D65B-9817-42FC-8CCD-19CD4C331E33";
paths = (
{
closed = 1;
nodes = (
"627 413 OFFCURVE",
"566 452 OFFCURVE",
"473 452 CURVE SMOOTH",
"406 452 OFFCURVE",
"338 434 OFFCURVE",
"267 398 CURVE SMOOTH",
"197 362 OFFCURVE",
"139 315 OFFCURVE",
"92 256 CURVE SMOOTH",
"45 198 OFFCURVE",
"22 139 OFFCURVE",
"22 80 CURVE SMOOTH",
"22 35 OFFCURVE",
"36 -2 OFFCURVE",
"65 -31 CURVE SMOOTH",
"94 -60 OFFCURVE",
"131 -75 OFFCURVE",
"175 -75 CURVE SMOOTH",
"240 -75 OFFCURVE",
"297 -65 OFFCURVE",
"346 -45 CURVE SMOOTH",
"395 -26 OFFCURVE",
"447 8 OFFCURVE",
"502 56 CURVE SMOOTH",
"574 120 OFFCURVE",
"610 184 OFFCURVE",
"610 249 CURVE SMOOTH",
"610 263 OFFCURVE",
"609 274 OFFCURVE",
"606 282 CURVE",
"620 311 OFFCURVE",
"627 333 OFFCURVE",
"627 350 CURVE SMOOTH"
);
},
{
closed = 1;
nodes = (
"603 330 OFFCURVE",
"601 318 OFFCURVE",
"596 306 CURVE",
"581 332 OFFCURVE",
"557 353 OFFCURVE",
"524 368 CURVE SMOOTH",
"491 384 OFFCURVE",
"458 392 OFFCURVE",
"427 392 CURVE SMOOTH",
"396 392 OFFCURVE",
"369 388 OFFCURVE",
"346 381 CURVE",
"343 379 LINE",
"346 378 OFFCURVE",
"362 376 OFFCURVE",
"391 374 CURVE SMOOTH",
"421 373 OFFCURVE",
"442 371 OFFCURVE",
"453 368 CURVE SMOOTH",
"513 351 OFFCURVE",
"557 309 OFFCURVE",
"566 257 CURVE",
"541 226 OFFCURVE",
"503 189 OFFCURVE",
"452 146 CURVE SMOOTH",
"433 131 OFFCURVE",
"424 123 OFFCURVE",
"424 124 CURVE",
"424 123 OFFCURVE",
"426 122 OFFCURVE",
"431 125 CURVE SMOOTH",
"488 155 OFFCURVE",
"533 189 OFFCURVE",
"567 227 CURVE",
"562 176 OFFCURVE",
"539 129 OFFCURVE",
"500 85 CURVE SMOOTH",
"461 42 OFFCURVE",
"416 9 OFFCURVE",
"365 -14 CURVE SMOOTH",
"314 -37 OFFCURVE",
"266 -49 OFFCURVE",
"221 -49 CURVE SMOOTH",
"132 -49 OFFCURVE",
"77 1 OFFCURVE",
"77 89 CURVE SMOOTH",
"77 146 OFFCURVE",
"97 202 OFFCURVE",
"138 257 CURVE SMOOTH",
"179 312 OFFCURVE",
"230 355 OFFCURVE",
"291 387 CURVE SMOOTH",
"352 420 OFFCURVE",
"413 436 OFFCURVE",
"473 436 CURVE SMOOTH",
"552 436 OFFCURVE",
"603 399 OFFCURVE",
"603 342 CURVE SMOOTH"
);
}
);
width = 591;
}
);
note = O;
unicode = 004F;
},
{
glyphname = P;
layers = (
{
hints = (
{
horizontal = 1;
place = "{147, 28}";
type = Stem;
},
{
horizontal = 1;
place = "{431, 34}";
type = Stem;
},
{
place = "{158, 30}";
type = Stem;
},
{
place = "{668, 21}";
type = Stem;
}
);
layerId = "8B85D65B-9817-42FC-8CCD-19CD4C331E33";
paths = (
{
closed = 1;
nodes = (
"188 -82 LINE",
"188 -57 OFFCURVE",
"199 -17 OFFCURVE",
"221 38 CURVE SMOOTH",
"243 94 OFFCURVE",
"265 137 OFFCURVE",
"286 167 CURVE",
"323 154 OFFCURVE",
"359 147 OFFCURVE",
"396 147 CURVE SMOOTH",
"463 147 OFFCURVE",
"528 165 OFFCURVE",
"592 202 CURVE SMOOTH",
"657 239 OFFCURVE",
"689 279 OFFCURVE",
"689 324 CURVE SMOOTH",
"689 413 OFFCURVE",
"587 465 OFFCURVE",
"418 465 CURVE SMOOTH",
"285 465 OFFCURVE",
"161 438 OFFCURVE",
"46 383 CURVE SMOOTH",
"19 370 OFFCURVE",
"5 355 OFFCURVE",
"5 338 CURVE SMOOTH",
"5 321 OFFCURVE",
"10 313 OFFCURVE",
"21 313 CURVE SMOOTH",
"24 313 OFFCURVE",
"26 314 OFFCURVE",
"27 315 CURVE SMOOTH",
"115 379 OFFCURVE",
"240 418 OFFCURVE",
"402 431 CURVE",
"402 430 LINE",
"332 348 OFFCURVE",
"274 261 OFFCURVE",
"227 170 CURVE SMOOTH",
"181 79 OFFCURVE",
"158 5 OFFCURVE",
"158 -53 CURVE SMOOTH",
"158 -83 OFFCURVE",
"167 -98 OFFCURVE",
"186 -98 CURVE SMOOTH",
"189 -98 OFFCURVE",
"190 -97 OFFCURVE",
"190 -94 CURVE SMOOTH"
);
},
{
closed = 1;
nodes = (
"668 322 OFFCURVE",
"650 295 OFFCURVE",
"613 267 CURVE SMOOTH",
"576 240 OFFCURVE",
"533 217 OFFCURVE",
"482 200 CURVE SMOOTH",
"382 167 OFFCURVE",
"319 173 OFFCURVE",
"292 181 CURVE",
"292 192 OFFCURVE",
"343 270 OFFCURVE",
"445 413 CURVE",
"445 414 OFFCURVE",
"436 420 OFFCURVE",
"419 431 CURVE",
"585 431 OFFCURVE",
"668 404 OFFCURVE",
"668 349 CURVE SMOOTH"
);
}
);
width = 625;
}
);
note = P;
unicode = 0050;
},
{
glyphname = Q;
layers = (
{
hints = (
{
horizontal = 1;
place = "{-229, 43}";
type = Stem;
},
{
horizontal = 1;
place = "{-82, 39}";
type = Stem;
},
{
horizontal = 1;
place = "{52, 19}";
type = Stem;
},
{
horizontal = 1;
place = "{355, 12}";
type = Stem;
},
{
horizontal = 1;
place = "{435, 24}";
type = Stem;
},
{
place = "{59, 16}";
type = Stem;
},
{
place = "{585, 39}";
type = Stem;
},
{
place = "{755, 21}";
type = Stem;
}
);
layerId = "8B85D65B-9817-42FC-8CCD-19CD4C331E33";
paths = (
{
closed = 1;
nodes = (
"776 -119 OFFCURVE",
"756 -77 OFFCURVE",
"717 -42 CURVE SMOOTH",
"678 -7 OFFCURVE",
"625 10 OFFCURVE",
"556 10 CURVE SMOOTH",
"549 10 OFFCURVE",
"545 9 OFFCURVE",
"545 8 CURVE",
"545 9 OFFCURVE",
"562 4 OFFCURVE",
"596 -7 CURVE SMOOTH",
"631 -18 OFFCURVE",
"659 -31 OFFCURVE",
"682 -45 CURVE SMOOTH",
"731 -75 OFFCURVE",
"755 -107 OFFCURVE",
"755 -140 CURVE SMOOTH",
"755 -171 OFFCURVE",
"734 -186 OFFCURVE",
"693 -186 CURVE SMOOTH",
"652 -186 OFFCURVE",
"611 -176 OFFCURVE",
"568 -156 CURVE SMOOTH",
"526 -136 OFFCURVE",
"464 -96 OFFCURVE",
"381 -37 CURVE",
"449 -1 OFFCURVE",
"506 46 OFFCURVE",
"553 105 CURVE SMOOTH",
"600 164 OFFCURVE",
"624 217 OFFCURVE",
"624 266 CURVE SMOOTH",
"624 315 OFFCURVE",
"602 360 OFFCURVE",
"557 399 CURVE SMOOTH",
"512 439 OFFCURVE",
"465 459 OFFCURVE",
"414 459 CURVE SMOOTH",
"351 459 OFFCURVE",
"288 443 OFFCURVE",
"225 410 CURVE SMOOTH",
"162 377 OFFCURVE",
"108 335 OFFCURVE",
"62 283 CURVE SMOOTH",
"42 260 OFFCURVE",
"32 246 OFFCURVE",
"32 240 CURVE SMOOTH",
"32 235 OFFCURVE",
"34 232 OFFCURVE",
"37 232 CURVE",
"64 283 OFFCURVE",
"119 330 OFFCURVE",
"201 372 CURVE SMOOTH",
"283 414 OFFCURVE",
"358 435 OFFCURVE",
"425 435 CURVE SMOOTH",
"524 435 OFFCURVE",
"585 386 OFFCURVE",
"585 298 CURVE SMOOTH",
"585 242 OFFCURVE",
"562 185 OFFCURVE",
"515 126 CURVE SMOOTH",
"468 67 OFFCURVE",
"411 22 OFFCURVE",
"342 -9 CURVE",
"267 44 OFFCURVE",
"208 71 OFFCURVE",
"167 71 CURVE SMOOTH",
"154 71 OFFCURVE",
"139 67 OFFCURVE",
"121 60 CURVE SMOOTH",
"104 53 OFFCURVE",
"95 44 OFFCURVE",
"95 35 CURVE SMOOTH",
"95 34 OFFCURVE",
"96 33 OFFCURVE",
"98 33 CURVE",
"113 46 OFFCURVE",
"132 52 OFFCURVE",
"157 52 CURVE SMOOTH",
"202 52 OFFCURVE",
"256 29 OFFCURVE",
"321 -18 CURVE",
"278 -35 OFFCURVE",
"240 -43 OFFCURVE",
"205 -43 CURVE SMOOTH",
"118 -43 OFFCURVE",
"75 -7 OFFCURVE",
"75 66 CURVE SMOOTH",
"75 99 OFFCURVE",
"93 138 OFFCURVE",
"129 184 CURVE SMOOTH",
"166 231 OFFCURVE",
"208 271 OFFCURVE",
"257 304 CURVE SMOOTH",
"306 338 OFFCURVE",
"346 355 OFFCURVE",
"379 355 CURVE SMOOTH",
"397 355 OFFCURVE",
"410 353 OFFCURVE",
"417 349 CURVE",
"415 361 OFFCURVE",
"399 367 OFFCURVE",
"370 367 CURVE SMOOTH",
"293 367 OFFCURVE",
"221 337 OFFCURVE",
"156 277 CURVE SMOOTH",
"91 218 OFFCURVE",
"59 152 OFFCURVE",
"59 81 CURVE SMOOTH",
"59 32 OFFCURVE",
"74 -7 OFFCURVE",
"105 -37 CURVE SMOOTH",
"136 -67 OFFCURVE",
"175 -82 OFFCURVE",
"221 -82 CURVE SMOOTH",
"267 -82 OFFCURVE",
"314 -70 OFFCURVE",
"361 -47 CURVE",
"448 -114 OFFCURVE",
"501 -153 OFFCURVE",
"522 -166 CURVE SMOOTH",
"591 -208 OFFCURVE",
"653 -229 OFFCURVE",
"707 -229 CURVE SMOOTH",
"753 -229 OFFCURVE",
"776 -208 OFFCURVE",
"776 -166 CURVE SMOOTH"
);
}
);
width = 600;
}
);
note = Q;
unicode = 0051;
},
{
glyphname = R;
layers = (
{
hints = (
{
horizontal = 1;
place = "{-58, 21}";
type = Stem;
},
{
horizontal = 1;
place = "{152, 17}";
type = Stem;
},
{
horizontal = 1;
place = "{436, 24}";
type = Stem;
},
{
place = "{154, 14}";
type = Stem;
},
{
place = "{523, 10}";
type = Stem;
},
{
place = "{670, 24}";
type = Stem;
},
{
horizontal = 1;
place = "{402, 14}";
type = Stem;
},
{
place = "{209, 42}";
type = Stem;
}
);
layerId = "8B85D65B-9817-42FC-8CCD-19CD4C331E33";
paths = (
{
closed = 1;
nodes = (
"509 149 OFFCURVE",
"699 240 OFFCURVE",
"694 344 CURVE SMOOTH",
"694 379 OFFCURVE",
"668 407 OFFCURVE",
"617 428 CURVE SMOOTH",
"566 449 OFFCURVE",
"498 460 OFFCURVE",
"415 460 CURVE SMOOTH",
"402 460 LINE SMOOTH",
"347 459 OFFCURVE",
"288 454 OFFCURVE",
"227 443 CURVE SMOOTH",
"166 432 OFFCURVE",
"113 417 OFFCURVE",
"68 397 CURVE SMOOTH",
"23 378 OFFCURVE",
"1 357 OFFCURVE",
"1 334 CURVE SMOOTH",
"1 323 OFFCURVE",
"6 318 OFFCURVE",
"17 318 CURVE SMOOTH",
"22 318 OFFCURVE",
"28 321 OFFCURVE",
"37 326 CURVE",
"142 399 OFFCURVE",
"281 436 OFFCURVE",
"452 436 CURVE SMOOTH",
"583 436 OFFCURVE",
"670 404 OFFCURVE",
"670 352 CURVE SMOOTH",
"670 326 OFFCURVE",
"652 299 OFFCURVE",
"617 270 CURVE SMOOTH",
"582 241 OFFCURVE",
"538 217 OFFCURVE",
"486 198 CURVE SMOOTH",
"434 179 OFFCURVE",
"385 169 OFFCURVE",
"340 169 CURVE SMOOTH",
"321 169 OFFCURVE",
"307 171 OFFCURVE",
"300 175 CURVE SMOOTH",
"293 180 OFFCURVE",
"285 191 OFFCURVE",
"275 209 CURVE",
"322 268 OFFCURVE",
"364 317 OFFCURVE",
"403 356 CURVE SMOOTH",
"449 402 LINE",
"453 402 OFFCURVE",
"455 409 OFFCURVE",
"443 416 CURVE SMOOTH",
"431 423 OFFCURVE",
"426 421 OFFCURVE",
"422 420 CURVE",
"364 392 OFFCURVE",
"307 336 OFFCURVE",
"251 252 CURVE",
"248 260 OFFCURVE",
"242 264 OFFCURVE",
"235 264 CURVE SMOOTH",
"218 264 OFFCURVE",
"209 258 OFFCURVE",
"209 245 CURVE SMOOTH",
"209 240 OFFCURVE",
"214 227 OFFCURVE",
"225 208 CURVE",
"178 127 OFFCURVE",
"154 56 OFFCURVE",
"154 -3 CURVE SMOOTH",
"154 -42 OFFCURVE",
"161 -61 OFFCURVE",
"175 -61 CURVE SMOOTH",
"178 -61 OFFCURVE",
"180 -60 OFFCURVE",
"180 -58 CURVE",
"172 -53 OFFCURVE",
"168 -45 OFFCURVE",
"168 -33 CURVE SMOOTH",
"168 11 OFFCURVE",
"195 78 OFFCURVE",
"248 169 CURVE",
"290 102 OFFCURVE",
"331 48 OFFCURVE",
"372 5 CURVE SMOOTH",
"413 -37 OFFCURVE",
"444 -58 OFFCURVE",
"465 -58 CURVE SMOOTH",
"486 -58 OFFCURVE",
"502 -51 OFFCURVE",
"514 -38 CURVE SMOOTH",
"539 -11 OFFCURVE",
"536 21 OFFCURVE",
"523 30 CURVE",
"515 -12 LINE SMOOTH",
"511 -29 OFFCURVE",
"501 -37 OFFCURVE",
"486 -37 CURVE SMOOTH",
"447 -37 OFFCURVE",
"387 27 OFFCURVE",
"308 155 CURVE",
"323 153 OFFCURVE",
"339 152 OFFCURVE",
"357 152 CURVE SMOOTH"
);
}
);
width = 583;
}
);
note = R;
unicode = 0052;
},
{
glyphname = S;
layers = (
{
hints = (
{
horizontal = 1;
place = "{-56, 45}";
type = Stem;
},
{
horizontal = 1;
place = "{443, 49}";
type = Stem;
},
{
place = "{89, 24}";
type = Stem;
},
{
place = "{256, 31}";
type = Stem;
},
{
place = "{435, 33}";
type = Stem;
}
);
layerId = "8B85D65B-9817-42FC-8CCD-19CD4C331E33";
paths = (
{
closed = 1;
nodes = (
"435 424 OFFCURVE",
"423 411 OFFCURVE",
"399 395 CURVE SMOOTH",
"348 360 LINE",
"349 355 LINE",
"357 355 OFFCURVE",
"379 364 OFFCURVE",
"414 383 CURVE SMOOTH",
"450 402 OFFCURVE",
"468 419 OFFCURVE",
"468 433 CURVE SMOOTH",
"467 441 OFFCURVE",
"461 451 OFFCURVE",
"450 463 CURVE SMOOTH",
"425 489 LINE",
"418 491 OFFCURVE",
"410 492 OFFCURVE",
"401 492 CURVE SMOOTH",
"392 492 OFFCURVE",
"357 485 OFFCURVE",
"296 471 CURVE SMOOTH",
"158 435 OFFCURVE",
"89 380 OFFCURVE",
"89 306 CURVE SMOOTH",
"89 277 OFFCURVE",
"96 253 OFFCURVE",
"109 232 CURVE SMOOTH",
"123 211 OFFCURVE",
"158 172 OFFCURVE",
"213 114 CURVE SMOOTH",
"242 83 OFFCURVE",
"256 63 OFFCURVE",
"256 53 CURVE SMOOTH",
"256 36 OFFCURVE",
"240 21 OFFCURVE",
"207 8 CURVE SMOOTH",
"175 -5 OFFCURVE",
"143 -11 OFFCURVE",
"110 -11 CURVE SMOOTH",
"77 -11 OFFCURVE",
"47 -4 OFFCURVE",
"18 9 CURVE",
"16 3 LINE",
"41 -36 OFFCURVE",
"86 -56 OFFCURVE",
"150 -56 CURVE SMOOTH",
"175 -56 LINE SMOOTH",
"236 -56 OFFCURVE",
"287 -23 OFFCURVE",
"287 21 CURVE SMOOTH",
"287 52 OFFCURVE",
"258 97 OFFCURVE",
"200 158 CURVE SMOOTH",
"142 219 OFFCURVE",
"113 261 OFFCURVE",
"113 286 CURVE SMOOTH",
"113 311 OFFCURVE",
"129 337 OFFCURVE",
"162 362 CURVE SMOOTH",
"195 387 OFFCURVE",
"235 407 OFFCURVE",
"281 421 CURVE SMOOTH",
"327 436 OFFCURVE",
"370 443 OFFCURVE",
"410 443 CURVE SMOOTH",
"427 443 OFFCURVE",
"435 440 OFFCURVE",
"435 434 CURVE SMOOTH"
);
}
);
width = 318;
}
);
note = S;
unicode = 0053;
},
{
glyphname = T;
layers = (
{
hints = (
{
horizontal = 1;
place = "{-79, 11}";
type = Stem;
},
{
horizontal = 1;
place = "{323, 13}";
type = Stem;
},
{
horizontal = 1;
place = "{383, 32}";
type = Stem;
},
{
horizontal = 1;
place = "{468, 37}";
type = Stem;
},
{
place = "{12, 19}";
type = Stem;
},
{
place = "{230, 26}";
type = Stem;
},
{
place = "{674, 30}";
type = Stem;
}
);
layerId = "8B85D65B-9817-42FC-8CCD-19CD4C331E33";
paths = (
{
closed = 1;
nodes = (
"209 336 LINE SMOOTH",
"180 336 OFFCURVE",
"143 348 OFFCURVE",
"98 373 CURVE SMOOTH",
"53 398 OFFCURVE",
"31 422 OFFCURVE",
"31 447 CURVE SMOOTH",
"31 461 OFFCURVE",
"44 468 OFFCURVE",
"70 468 CURVE SMOOTH",
"96 468 OFFCURVE",
"124 466 OFFCURVE",
"153 461 CURVE SMOOTH",
"186 456 OFFCURVE",
"200 453 OFFCURVE",
"235 445 CURVE SMOOTH",
"453 401 LINE SMOOTH",
"498 392 OFFCURVE",
"555 386 OFFCURVE",
"624 383 CURVE SMOOTH",
"628 383 LINE SMOOTH",
"679 383 OFFCURVE",
"704 396 OFFCURVE",
"704 422 CURVE SMOOTH",
"704 445 OFFCURVE",
"689 467 OFFCURVE",
"660 490 CURVE SMOOTH",
"631 513 OFFCURVE",
"603 525 OFFCURVE",
"577 525 CURVE SMOOTH",
"568 525 OFFCURVE",
"564 523 OFFCURVE",
"564 520 CURVE",
"618 499 LINE SMOOTH",
"655 487 OFFCURVE",
"674 472 OFFCURVE",
"674 454 CURVE SMOOTH",
"674 428 OFFCURVE",
"644 415 OFFCURVE",
"585 415 CURVE SMOOTH",
"488 415 OFFCURVE",
"327 444 OFFCURVE",
"101 502 CURVE SMOOTH",
"90 504 OFFCURVE",
"79 505 OFFCURVE",
"70 505 CURVE SMOOTH",
"31 505 OFFCURVE",
"12 486 OFFCURVE",
"12 447 CURVE SMOOTH",
"12 418 OFFCURVE",
"35 390 OFFCURVE",
"81 363 CURVE SMOOTH",
"127 336 OFFCURVE",
"170 323 OFFCURVE",
"211 323 CURVE SMOOTH",
"227 323 OFFCURVE",
"235 326 OFFCURVE",
"235 333 CURVE SMOOTH",
"235 336 OFFCURVE",
"233 337 OFFCURVE",
"228 337 CURVE SMOOTH"
);
},
{
closed = 1;
nodes = (
"495 384 OFFCURVE",
"487 389 OFFCURVE",
"472 389 CURVE SMOOTH",
"444 389 OFFCURVE",
"410 362 OFFCURVE",
"370 308 CURVE SMOOTH",
"331 254 OFFCURVE",
"297 195 OFFCURVE",
"270 131 CURVE SMOOTH",
"243 67 OFFCURVE",
"230 22 OFFCURVE",
"230 -3 CURVE SMOOTH",
"230 -55 OFFCURVE",
"251 -79 OFFCURVE",
"287 -79 CURVE SMOOTH",
"294 -79 OFFCURVE",
"309 -75 OFFCURVE",
"330 -66 CURVE SMOOTH",
"351 -58 OFFCURVE",
"362 -50 OFFCURVE",
"362 -42 CURVE SMOOTH",
"362 -41 OFFCURVE",
"361 -40 OFFCURVE",
"358 -40 CURVE",
"333 -54 LINE SMOOTH",
"314 -63 OFFCURVE",
"298 -68 OFFCURVE",
"285 -68 CURVE SMOOTH",
"266 -68 OFFCURVE",
"256 -59 OFFCURVE",
"256 -40 CURVE SMOOTH",
"256 58 OFFCURVE",
"313 171 OFFCURVE",
"427 298 CURVE",
"490 361 LINE",
"493 368 OFFCURVE",
"495 372 OFFCURVE",
"495 374 CURVE SMOOTH"
);
}
);
width = 498;
}
);
note = T;
unicode = 0054;
},
{
glyphname = U;
layers = (
{
hints = (
{
horizontal = 1;
place = "{-39, 37}";
type = Stem;
},
{
horizontal = 1;
place = "{390, 20}";
type = Stem;
},
{
horizontal = 1;
place = "{446, 15}";
type = Stem;
},
{
place = "{57, 36}";
type = Stem;
},
{
place = "{264, 33}";
type = Stem;
},
{
place = "{568, 17}";
type = Stem;
}
);
layerId = "8B85D65B-9817-42FC-8CCD-19CD4C331E33";
paths = (
{
closed = 1;
nodes = (
"585 454 OFFCURVE",
"578 461 OFFCURVE",
"563 461 CURVE SMOOTH",
"496 461 OFFCURVE",
"409 364 OFFCURVE",
"332 205 CURVE SMOOTH",
"313 168 OFFCURVE",
"275 125 OFFCURVE",
"218 74 CURVE SMOOTH",
"161 23 OFFCURVE",
"124 -2 OFFCURVE",
"107 -2 CURVE SMOOTH",
"98 -2 OFFCURVE",
"93 4 OFFCURVE",
"93 15 CURVE SMOOTH",
"93 46 OFFCURVE",
"100 77 OFFCURVE",
"115 108 CURVE SMOOTH",
"130 139 OFFCURVE",
"159 188 OFFCURVE",
"201 255 CURVE SMOOTH",
"243 322 OFFCURVE",
"264 360 OFFCURVE",
"264 370 CURVE SMOOTH",
"264 390 OFFCURVE",
"242 410 OFFCURVE",
"221 410 CURVE SMOOTH",
"202 410 OFFCURVE",
"166 392 OFFCURVE",
"114 356 CURVE SMOOTH",
"63 321 OFFCURVE",
"27 290 OFFCURVE",
"7 265 CURVE",
"5 261 LINE",
"6 260 LINE",
"7 260 OFFCURVE",
"43 285 OFFCURVE",
"114 334 CURVE SMOOTH",
"154 361 OFFCURVE",
"191 379 OFFCURVE",
"224 390 CURVE",
"121 223 LINE SMOOTH",
"78 150 OFFCURVE",
"57 92 OFFCURVE",
"57 47 CURVE SMOOTH",
"57 29 OFFCURVE",
"65 10 OFFCURVE",
"80 -9 CURVE SMOOTH",
"96 -29 OFFCURVE",
"113 -39 OFFCURVE",
"131 -39 CURVE SMOOTH",
"168 -39 OFFCURVE",
"217 -1 OFFCURVE",
"280 76 CURVE",
"259 9 OFFCURVE",
"256 -60 OFFCURVE",
"288 -156 CURVE SMOOTH",
"304 -205 OFFCURVE",
"320 -229 OFFCURVE",
"337 -229 CURVE",
"340 -228 OFFCURVE",
"340 -225 OFFCURVE",
"339 -225 CURVE",
"311 -195 OFFCURVE",
"297 -140 OFFCURVE",
"297 -59 CURVE SMOOTH",
"297 -36 OFFCURVE",
"303 -1 OFFCURVE",
"314 46 CURVE SMOOTH",
"326 94 OFFCURVE",
"337 127 OFFCURVE",
"348 144 CURVE",
"409 212 OFFCURVE",
"459 268 OFFCURVE",
"500 311 CURVE SMOOTH",
"515 328 OFFCURVE",
"531 345 OFFCURVE",
"546 363 CURVE SMOOTH",
"572 394 OFFCURVE",
"585 420 OFFCURVE",
"585 441 CURVE SMOOTH"
);
},
{
closed = 1;
nodes = (
"568 430 OFFCURVE",
"546 399 OFFCURVE",
"501 347 CURVE SMOOTH",
"456 295 OFFCURVE",
"410 245 OFFCURVE",
"361 198 CURVE",
"360 199 OFFCURVE",
"360 200 OFFCURVE",
"360 201 CURVE SMOOTH",
"360 203 LINE",
"388 260 OFFCURVE",
"424 315 OFFCURVE",
"467 367 CURVE SMOOTH",
"511 420 OFFCURVE",
"543 446 OFFCURVE",
"562 446 CURVE SMOOTH",
"566 446 OFFCURVE",
"568 444 OFFCURVE",
"568 441 CURVE SMOOTH"
);
}
);
width = 381;
}
);
note = U;
unicode = 0055;
},
{
glyphname = V;
layers = (
{
hints = (
{
horizontal = 1;
place = "{460, 17}";
type = Stem;
},
{
place = "{305, 37}";
type = Stem;
},
{
horizontal = 1;
place = "{468, 15}";
type = Stem;
}
);
layerId = "8B85D65B-9817-42FC-8CCD-19CD4C331E33";
paths = (
{
closed = 1;
nodes = (
"791 467 OFFCURVE",
"761 483 OFFCURVE",
"724 483 CURVE SMOOTH",
"668 483 OFFCURVE",
"605 450 OFFCURVE",
"536 385 CURVE SMOOTH",
"467 320 OFFCURVE",
"382 212 OFFCURVE",
"281 63 CURVE",
"304 135 OFFCURVE",
"319 190 OFFCURVE",
"328 227 CURVE SMOOTH",
"337 264 OFFCURVE",
"342 299 OFFCURVE",
"342 331 CURVE SMOOTH",
"342 428 OFFCURVE",
"308 477 OFFCURVE",
"240 477 CURVE SMOOTH",
"209 477 OFFCURVE",
"174 459 OFFCURVE",
"134 424 CURVE SMOOTH",
"94 389 OFFCURVE",
"59 346 OFFCURVE",
"30 295 CURVE SMOOTH",
"25 286 OFFCURVE",
"25 279 OFFCURVE",
"28 279 CURVE SMOOTH",
"33 279 OFFCURVE",
"42 287 OFFCURVE",
"53 302 CURVE SMOOTH",
"64 318 OFFCURVE",
"72 330 OFFCURVE",
"76 338 CURVE",
"105 372 OFFCURVE",
"137 401 OFFCURVE",
"170 424 CURVE SMOOTH",
"203 448 OFFCURVE",
"230 460 OFFCURVE",
"251 460 CURVE SMOOTH",
"287 460 OFFCURVE",
"305 429 OFFCURVE",
"305 366 CURVE SMOOTH",
"304 290 OFFCURVE",
"283 188 OFFCURVE",
"242 59 CURVE SMOOTH",
"210 -43 LINE",
"210 -52 OFFCURVE",
"233 -64 OFFCURVE",
"246 -64 CURVE SMOOTH",
"257 -64 OFFCURVE",
"281 -26 OFFCURVE",
"319 49 CURVE",
"350 97 OFFCURVE",
"391 151 OFFCURVE",
"440 212 CURVE SMOOTH",
"490 273 OFFCURVE",
"545 331 OFFCURVE",
"605 386 CURVE SMOOTH",
"665 441 OFFCURVE",
"711 468 OFFCURVE",
"744 468 CURVE SMOOTH",
"759 468 OFFCURVE",
"771 462 OFFCURVE",
"778 451 CURVE SMOOTH",
"789 433 LINE",
"790 433 OFFCURVE",
"791 435 OFFCURVE",
"791 440 CURVE SMOOTH"
);
}
);
width = 501;
}
);
note = V;
unicode = 0056;
},
{
glyphname = W;
layers = (
{
hints = (
{
horizontal = 1;
place = "{-104, 25}";
type = Stem;
},
{
horizontal = 1;
place = "{-48, 17}";
type = Stem;
},
{
horizontal = 1;
place = "{310, -20}";
target = down;
type = TopGhost;
},
{
place = "{11, 29}";
type = Stem;
},
{
place = "{484, 42}";
type = Stem;
},
{
place = "{686, 39}";
type = Stem;
}
);
layerId = "8B85D65B-9817-42FC-8CCD-19CD4C331E33";
paths = (
{
closed = 1;
nodes = (
"532 306 OFFCURVE",
"527 310 OFFCURVE",
"517 310 CURVE SMOOTH",
"508 310 OFFCURVE",
"461 265 OFFCURVE",
"378 174 CURVE SMOOTH",
"295 83 OFFCURVE",
"234 21 OFFCURVE",
"196 -12 CURVE SMOOTH",
"159 -45 OFFCURVE",
"133 -65 OFFCURVE",
"119 -70 CURVE SMOOTH",
"106 -76 OFFCURVE",
"90 -79 OFFCURVE",
"71 -79 CURVE SMOOTH",
"30 -79 OFFCURVE",
"27 -22 OFFCURVE",
"80 75 CURVE SMOOTH",
"107 124 OFFCURVE",
"145 176 OFFCURVE",
"194 231 CURVE SMOOTH",
"243 286 OFFCURVE",
"285 330 OFFCURVE",
"322 362 CURVE SMOOTH",
"359 394 OFFCURVE",
"399 421 OFFCURVE",
"440 442 CURVE",
"443 443 OFFCURVE",
"445 445 OFFCURVE",
"445 448 CURVE SMOOTH",
"445 455 OFFCURVE",
"439 459 OFFCURVE",
"427 459 CURVE SMOOTH",
"391 459 OFFCURVE",
"340 431 OFFCURVE",
"273 375 CURVE SMOOTH",
"206 319 OFFCURVE",
"146 252 OFFCURVE",
"92 175 CURVE SMOOTH",
"38 98 OFFCURVE",
"11 34 OFFCURVE",
"11 -17 CURVE SMOOTH",
"11 -64 OFFCURVE",
"42 -104 OFFCURVE",
"82 -104 CURVE SMOOTH",
"117 -104 OFFCURVE",
"156 -87 OFFCURVE",
"199 -52 CURVE SMOOTH",
"242 -18 OFFCURVE",
"297 40 OFFCURVE",
"365 121 CURVE SMOOTH",
"434 203 OFFCURVE",
"477 254 OFFCURVE",
"496 273 CURVE",
"488 214 OFFCURVE",
"484 163 OFFCURVE",
"484 120 CURVE SMOOTH",
"484 8 OFFCURVE",
"511 -48 OFFCURVE",
"566 -48 CURVE SMOOTH",
"612 -48 OFFCURVE",
"650 -21 OFFCURVE",
"680 34 CURVE SMOOTH",
"710 89 OFFCURVE",
"725 153 OFFCURVE",
"725 228 CURVE SMOOTH",
"725 321 OFFCURVE",
"696 381 OFFCURVE",
"653 381 CURVE SMOOTH",
"632 381 OFFCURVE",
"621 378 OFFCURVE",
"621 371 CURVE SMOOTH",
"621 370 OFFCURVE",
"622 369 OFFCURVE",
"624 368 CURVE SMOOTH",
"665 355 OFFCURVE",
"686 308 OFFCURVE",
"686 227 CURVE SMOOTH",
"686 174 OFFCURVE",
"674 117 OFFCURVE",
"651 58 CURVE SMOOTH",
"628 -1 OFFCURVE",
"601 -31 OFFCURVE",
"571 -31 CURVE SMOOTH",
"541 -31 OFFCURVE",
"526 33 OFFCURVE",
"526 162 CURVE SMOOTH",
"526 191 OFFCURVE",
"528 237 OFFCURVE",
"532 298 CURVE SMOOTH"
);
}
);
width = 752;
}
);
note = W;
unicode = 0057;
},
{
glyphname = X;
layers = (
{
hints = (
{
horizontal = 1;
place = "{-32, 18}";
type = Stem;
},
{
place = "{150, 7}";
type = Stem;
}
);
layerId = "8B85D65B-9817-42FC-8CCD-19CD4C331E33";
paths = (
{
closed = 1;
nodes = (
"157 359 LINE",
"157 376 OFFCURVE",
"160 385 OFFCURVE",
"167 385 CURVE SMOOTH",
"168 385 LINE",
"194 324 OFFCURVE",
"215 269 OFFCURVE",
"231 221 CURVE",
"207 204 OFFCURVE",
"165 159 OFFCURVE",
"106 86 CURVE SMOOTH",
"47 13 OFFCURVE",
"13 -36 OFFCURVE",
"4 -59 CURVE",
"-6 -93 OFFCURVE",
"-3 -121 OFFCURVE",
"11 -92 CURVE",
"75 8 OFFCURVE",
"154 99 OFFCURVE",
"248 181 CURVE",
"273 116 OFFCURVE",
"294 67 OFFCURVE",
"311 34 CURVE SMOOTH",
"333 -10 OFFCURVE",
"356 -32 OFFCURVE",
"381 -32 CURVE SMOOTH",
"433 -32 OFFCURVE",
"469 10 OFFCURVE",
"469 71 CURVE SMOOTH",
"469 78 OFFCURVE",
"468 85 OFFCURVE",
"465 92 CURVE",
"438 19 OFFCURVE",
"419 -13 OFFCURVE",
"414 -14 CURVE",
"410 -17 OFFCURVE",
"400 -21 OFFCURVE",
"383 -2 CURVE SMOOTH",
"360 23 OFFCURVE",
"339 57 OFFCURVE",
"322 102 CURVE SMOOTH",
"281 211 LINE",
"461 364 LINE SMOOTH",
"540 431 OFFCURVE",
"580 464 OFFCURVE",
"580 462 CURVE SMOOTH",
"580 474 OFFCURVE",
"563 489 OFFCURVE",
"552 489 CURVE SMOOTH",
"541 489 OFFCURVE",
"447 409 OFFCURVE",
"269 249 CURVE",
"262 266 OFFCURVE",
"247 303 OFFCURVE",
"226 361 CURVE SMOOTH",
"205 419 OFFCURVE",
"191 448 OFFCURVE",
"182 448 CURVE SMOOTH",
"161 448 OFFCURVE",
"150 435 OFFCURVE",
"150 410 CURVE SMOOTH",
"150 373 OFFCURVE",
"152 353 OFFCURVE",
"155 352 CURVE",
"158 354 LINE"
);
}
);
width = 483;
}
);
note = X;
unicode = 0058;
},
{
glyphname = Y;
layers = (
{
hints = (
{
horizontal = 1;
place = "{494, 8}";
type = Stem;
},
{
place = "{76, 32}";
type = Stem;
},
{
place = "{241, 30}";
type = Stem;
},
{
place = "{510, 40}";
type = Stem;
},
{
horizontal = 1;
place = "{445, 30}";
type = Stem;
},
{
horizontal = 1;
place = "{-251, 22}";
type = Stem;
}
);
layerId = "8B85D65B-9817-42FC-8CCD-19CD4C331E33";
paths = (
{
closed = 1;
nodes = (
"547 341 OFFCURVE",
"550 358 OFFCURVE",
"550 374 CURVE SMOOTH",
"550 403 OFFCURVE",
"537 430 OFFCURVE",
"511 456 CURVE",
"517 462 LINE",
"517 471 OFFCURVE",
"506 475 OFFCURVE",
"485 475 CURVE SMOOTH",
"464 475 OFFCURVE",
"413 419 OFFCURVE",
"330 307 CURVE SMOOTH",
"179 96 LINE",
"240 236 OFFCURVE",
"271 341 OFFCURVE",
"271 410 CURVE SMOOTH",
"271 471 OFFCURVE",
"247 502 OFFCURVE",
"198 502 CURVE SMOOTH",
"174 502 OFFCURVE",
"145 488 OFFCURVE",
"111 460 CURVE SMOOTH",
"77 433 OFFCURVE",
"46 399 OFFCURVE",
"19 359 CURVE SMOOTH",
"15 352 OFFCURVE",
"15 349 OFFCURVE",
"19 349 CURVE SMOOTH",
"18 349 LINE",
"18 353 OFFCURVE",
"30 367 OFFCURVE",
"55 390 CURVE SMOOTH",
"80 413 OFFCURVE",
"107 436 OFFCURVE",
"137 459 CURVE SMOOTH",
"168 482 OFFCURVE",
"189 494 OFFCURVE",
"202 494 CURVE SMOOTH",
"228 494 OFFCURVE",
"241 474 OFFCURVE",
"241 433 CURVE SMOOTH",
"240 416 OFFCURVE",
"234 385 OFFCURVE",
"223 340 CURVE SMOOTH",
"212 295 OFFCURVE",
"195 246 OFFCURVE",
"172 193 CURVE SMOOTH",
"102 28 LINE",
"102 25 LINE SMOOTH",
"102 12 OFFCURVE",
"109 5 OFFCURVE",
"124 5 CURVE SMOOTH",
"139 5 OFFCURVE",
"150 14 OFFCURVE",
"159 32 CURVE",
"208 100 LINE SMOOTH",
"373 330 OFFCURVE",
"469 445 OFFCURVE",
"496 445 CURVE SMOOTH",
"515 445 OFFCURVE",
"514 410 OFFCURVE",
"497 333 CURVE SMOOTH",
"488 294 OFFCURVE",
"481 273 OFFCURVE",
"476 268 CURVE SMOOTH",
"431 225 OFFCURVE",
"381 178 OFFCURVE",
"326 129 CURVE SMOOTH",
"271 80 OFFCURVE",
"234 45 OFFCURVE",
"216 25 CURVE SMOOTH",
"179 -16 OFFCURVE",
"146 -60 OFFCURVE",
"118 -108 CURVE SMOOTH",
"90 -156 OFFCURVE",
"76 -189 OFFCURVE",
"76 -207 CURVE SMOOTH",
"76 -236 OFFCURVE",
"92 -251 OFFCURVE",
"123 -251 CURVE SMOOTH",
"147 -251 OFFCURVE",
"179 -230 OFFCURVE",
"218 -189 CURVE SMOOTH",
"257 -148 OFFCURVE",
"313 -74 OFFCURVE",
"386 33 CURVE SMOOTH",
"465 144 OFFCURVE",
"515 232 OFFCURVE",
"536 295 CURVE",
"564 310 LINE SMOOTH",
"572 314 OFFCURVE",
"579 320 OFFCURVE",
"579 324 CURVE SMOOTH",
"579 329 OFFCURVE",
"562 330 OFFCURVE",
"542 323 CURVE"
);
},
{
closed = 1;
nodes = (
"173 -68 OFFCURVE",
"287 72 OFFCURVE",
"460 229 CURVE",
"422 150 OFFCURVE",
"372 67 OFFCURVE",
"309 -19 CURVE SMOOTH",
"247 -106 OFFCURVE",
"191 -170 OFFCURVE",
"141 -212 CURVE SMOOTH",
"114 -235 OFFCURVE",
"113 -229 OFFCURVE",
"113 -229 CURVE",
"106 -229 OFFCURVE",
"104 -224 OFFCURVE",
"119 -192 CURVE SMOOTH"
);
}
);
width = 540;
}
);
note = Y;
unicode = 0059;
},
{
glyphname = Z;
layers = (
{
hints = (
{
horizontal = 1;
place = "{0, 21}";
target = up;
type = BottomGhost;
},
{
horizontal = 1;
place = "{407, 39}";
type = Stem;
},
{
place = "{648, 21}";
type = Stem;
},
{
horizontal = 1;
place = "{17, 34}";
type = Stem;
},
{
horizontal = 1;
place = "{387, 33}";
type = Stem;
},
{
place = "{180, 9}";
type = Stem;
}
);
layerId = "8B85D65B-9817-42FC-8CCD-19CD4C331E33";
paths = (
{
closed = 1;
nodes = (
"669 15 OFFCURVE",
"597 51 OFFCURVE",
"493 51 CURVE SMOOTH",
"384 51 OFFCURVE",
"247 37 OFFCURVE",
"82 9 CURVE",
"189 74 LINE SMOOTH",
"316 153 OFFCURVE",
"427 215 OFFCURVE",
"523 260 CURVE SMOOTH",
"586 287 LINE SMOOTH",
"621 301 OFFCURVE",
"638 310 OFFCURVE",
"638 314 CURVE SMOOTH",
"638 330 OFFCURVE",
"635 342 OFFCURVE",
"628 349 CURVE",
"614 414 OFFCURVE",
"573 446 OFFCURVE",
"505 446 CURVE SMOOTH",
"460 446 OFFCURVE",
"400 442 OFFCURVE",
"325 433 CURVE SMOOTH",
"250 424 OFFCURVE",
"210 420 OFFCURVE",
"205 420 CURVE SMOOTH",
"200 420 OFFCURVE",
"195 423 OFFCURVE",
"189 428 CURVE",
"183 423 OFFCURVE",
"180 418 OFFCURVE",
"180 411 CURVE SMOOTH",
"180 395 OFFCURVE",
"194 387 OFFCURVE",
"221 387 CURVE SMOOTH",
"233 387 OFFCURVE",
"271 390 OFFCURVE",
"336 397 CURVE SMOOTH",
"401 404 OFFCURVE",
"444 407 OFFCURVE",
"465 407 CURVE SMOOTH",
"540 407 OFFCURVE",
"588 395 OFFCURVE",
"609 371 CURVE",
"608 367 OFFCURVE",
"527 320 OFFCURVE",
"368 230 CURVE SMOOTH",
"303 193 OFFCURVE",
"251 162 OFFCURVE",
"213 138 CURVE SMOOTH",
"176 115 OFFCURVE",
"139 89 OFFCURVE",
"104 62 CURVE SMOOTH",
"69 35 OFFCURVE",
"52 17 OFFCURVE",
"52 7 CURVE SMOOTH",
"53 0 LINE",
"28 -7 OFFCURVE",
"13 -12 OFFCURVE",
"9 -14 CURVE SMOOTH",
"5 -16 OFFCURVE",
"3 -18 OFFCURVE",
"3 -21 CURVE SMOOTH",
"4 -29 LINE SMOOTH",
"4 -44 OFFCURVE",
"9 -52 OFFCURVE",
"20 -53 CURVE",
"20 -48 OFFCURVE",
"42 -40 OFFCURVE",
"85 -29 CURVE SMOOTH",
"129 -18 OFFCURVE",
"187 -8 OFFCURVE",
"258 2 CURVE SMOOTH",
"330 12 OFFCURVE",
"396 17 OFFCURVE",
"457 17 CURVE SMOOTH",
"584 17 OFFCURVE",
"648 -2 OFFCURVE",
"648 -41 CURVE SMOOTH",
"648 -74 OFFCURVE",
"619 -117 OFFCURVE",
"562 -168 CURVE",
"562 -169 OFFCURVE",
"562 -169 OFFCURVE",
"561 -170 CURVE",
"561 -174 OFFCURVE",
"565 -178 OFFCURVE",
"596 -159 CURVE SMOOTH",
"645 -128 OFFCURVE",
"669 -89 OFFCURVE",
"669 -44 CURVE SMOOTH"
);
}
);
width = 669;
}
);
note = Z;
unicode = 005A;
},
{
glyphname = bracketleft;
layers = (
{
hints = (
{
horizontal = 1;
place = "{-40, 16}";
type = Stem;
},
{
horizontal = 1;
place = "{491, 23}";
type = Stem;
},
{
place = "{6, 59}";
type = Stem;
}
);
layerId = "8B85D65B-9817-42FC-8CCD-19CD4C331E33";
paths = (
{
closed = 1;
nodes = (
"123 -24 LINE SMOOTH",
"84 -24 OFFCURVE",
"65 -10 OFFCURVE",
"65 18 CURVE SMOOTH",
"65 47 OFFCURVE",
"82 98 OFFCURVE",
"116 170 CURVE SMOOTH",
"151 242 OFFCURVE",
"189 310 OFFCURVE",
"231 374 CURVE SMOOTH",
"273 438 OFFCURVE",
"304 475 OFFCURVE",
"325 486 CURVE",
"333 489 OFFCURVE",
"347 491 OFFCURVE",
"366 491 CURVE SMOOTH",
"421 488 LINE SMOOTH",
"426 488 OFFCURVE",
"429 488 OFFCURVE",
"431 489 CURVE",
"432 498 LINE SMOOTH",
"432 509 OFFCURVE",
"409 514 OFFCURVE",
"363 514 CURVE SMOOTH",
"317 514 OFFCURVE",
"287 509 OFFCURVE",
"273 499 CURVE SMOOTH",
"223 464 OFFCURVE",
"166 384 OFFCURVE",
"102 261 CURVE SMOOTH",
"38 138 OFFCURVE",
"6 46 OFFCURVE",
"6 -13 CURVE SMOOTH",
"6 -31 OFFCURVE",
"48 -40 OFFCURVE",
"133 -40 CURVE SMOOTH",
"179 -40 OFFCURVE",
"202 -36 OFFCURVE",
"202 -29 CURVE SMOOTH",
"202 -24 OFFCURVE",
"195 -21 OFFCURVE",
"180 -21 CURVE SMOOTH"
);
}
);
width = 441;
}
);
note = bracketleft;
unicode = 005B;
},
{
glyphname = backslash;
layers = (
{
hints = (
{
horizontal = 1;
place = "{-115, 627}";
type = Stem;
},
{
place = "{376, 18}";
type = Stem;
}
);
layerId = "8B85D65B-9817-42FC-8CCD-19CD4C331E33";
paths = (
{
closed = 1;
nodes = (
"394 -41 OFFCURVE",
"369 30 OFFCURVE",
"319 123 CURVE SMOOTH",
"269 217 OFFCURVE",
"204 315 OFFCURVE",
"123 417 CURVE SMOOTH",
"91 460 OFFCURVE",
"69 486 OFFCURVE",
"57 496 CURVE SMOOTH",
"46 507 OFFCURVE",
"35 512 OFFCURVE",
"25 512 CURVE SMOOTH",
"15 512 OFFCURVE",
"9 510 OFFCURVE",
"7 507 CURVE",
"114 398 OFFCURVE",
"202 285 OFFCURVE",
"271 170 CURVE SMOOTH",
"341 55 OFFCURVE",
"376 -38 OFFCURVE",
"376 -108 CURVE SMOOTH",
"376 -111 OFFCURVE",
"375 -114 OFFCURVE",
"374 -115 CURVE",
"387 -115 OFFCURVE",
"394 -107 OFFCURVE",
"394 -90 CURVE SMOOTH"
);
}
);
width = 415;
}
);
note = backslash;
unicode = 005C;
},
{
glyphname = bracketright;
layers = (
{
hints = (
{
horizontal = 1;
place = "{-42, 24}";
type = Stem;
},
{
horizontal = 1;
place = "{496, 16}";
type = Stem;
},
{
place = "{380, 59}";
type = Stem;
}
);
layerId = "8B85D65B-9817-42FC-8CCD-19CD4C331E33";
paths = (
{
closed = 1;
nodes = (
"322 496 LINE",
"361 496 OFFCURVE",
"380 482 OFFCURVE",
"380 453 CURVE SMOOTH",
"380 408 OFFCURVE",
"353 336 OFFCURVE",
"299 235 CURVE SMOOTH",
"264 172 OFFCURVE",
"230 117 OFFCURVE",
"196 70 CURVE SMOOTH",
"163 23 OFFCURVE",
"138 -4 OFFCURVE",
"121 -13 CURVE SMOOTH",
"114 -16 OFFCURVE",
"100 -18 OFFCURVE",
"79 -18 CURVE SMOOTH",
"26 -15 LINE SMOOTH",
"21 -15 OFFCURVE",
"17 -15 OFFCURVE",
"14 -16 CURVE",
"14 -26 LINE SMOOTH",
"14 -37 OFFCURVE",
"37 -42 OFFCURVE",
"84 -42 CURVE SMOOTH",
"131 -42 OFFCURVE",
"160 -37 OFFCURVE",
"172 -28 CURVE SMOOTH",
"221 8 OFFCURVE",
"278 87 OFFCURVE",
"342 210 CURVE SMOOTH",
"407 333 OFFCURVE",
"439 425 OFFCURVE",
"439 484 CURVE SMOOTH",
"439 503 OFFCURVE",
"397 512 OFFCURVE",
"312 512 CURVE SMOOTH",
"266 512 OFFCURVE",
"243 509 OFFCURVE",
"243 502 CURVE SMOOTH",
"243 495 OFFCURVE",
"250 492 OFFCURVE",
"265 492 CURVE SMOOTH"
);
}
);
width = 419;
}
);
note = bracketright;
unicode = 005D;
},
{
glyphname = asciicircum;
layers = (
{
hints = (
{
horizontal = 1;
place = "{313, -20}";
target = down;
type = TopGhost;
},
{
place = "{48, 206}";
type = Stem;
}
);
layerId = "8B85D65B-9817-42FC-8CCD-19CD4C331E33";
paths = (
{
closed = 1;
nodes = (
"151 313 LINE",
"146 312 OFFCURVE",
"127 298 OFFCURVE",
"95 273 CURVE SMOOTH",
"64 248 OFFCURVE",
"48 233 OFFCURVE",
"48 228 CURVE SMOOTH",
"48 223 OFFCURVE",
"50 220 OFFCURVE",
"55 220 CURVE SMOOTH",
"60 220 OFFCURVE",
"88 241 OFFCURVE",
"140 283 CURVE",
"149 274 OFFCURVE",
"167 260 OFFCURVE",
"194 243 CURVE SMOOTH",
"222 226 OFFCURVE",
"241 218 OFFCURVE",
"250 217 CURVE",
"254 222 LINE",
"249 230 LINE",
"204 264 OFFCURVE",
"173 291 OFFCURVE",
"155 311 CURVE"
);
}
);
width = 279;
}
);
note = asciicircum;
unicode = 005E;
},
{
glyphname = underscore;
layers = (
{
hints = (
{
horizontal = 1;
place = "{-72, 26}";
type = Stem;
},
{
place = "{6, 591}";
type = Stem;
}
);
layerId = "8B85D65B-9817-42FC-8CCD-19CD4C331E33";
paths = (
{
closed = 1;
nodes = (
"94 -82 OFFCURVE",
"192 -80 OFFCURVE",
"312 -77 CURVE SMOOTH",
"433 -74 OFFCURVE",
"526 -72 OFFCURVE",
"593 -72 CURVE",
"597 -67 LINE",
"596 -53 OFFCURVE",
"590 -46 OFFCURVE",
"577 -46 CURVE SMOOTH",
"19 -46 LINE SMOOTH",
"10 -46 OFFCURVE",
"6 -52 OFFCURVE",
"6 -64 CURVE SMOOTH",
"6 -76 OFFCURVE",
"10 -82 OFFCURVE",
"19 -82 CURVE SMOOTH"
);
}
);
width = 608;
}
);
note = underscore;
unicode = 005F;
},
{
glyphname = grave;
layers = (
{
hints = (
{
horizontal = 1;
place = "{314, -20}";
target = down;
type = TopGhost;
},
{
place = "{16, 140}";
type = Stem;
}
);
layerId = "8B85D65B-9817-42FC-8CCD-19CD4C331E33";
paths = (
{
closed = 1;
nodes = (
"154 207 OFFCURVE",
"156 209 OFFCURVE",
"156 213 CURVE SMOOTH",
"156 218 OFFCURVE",
"135 236 OFFCURVE",
"93 267 CURVE SMOOTH",
"52 298 OFFCURVE",
"29 314 OFFCURVE",
"26 314 CURVE SMOOTH",
"19 314 OFFCURVE",
"16 310 OFFCURVE",
"16 301 CURVE SMOOTH",
"16 294 LINE SMOOTH",
"16 290 OFFCURVE",
"19 285 OFFCURVE",
"25 280 CURVE SMOOTH",
"32 275 OFFCURVE",
"52 262 OFFCURVE",
"85 242 CURVE SMOOTH",
"118 222 OFFCURVE",
"140 210 OFFCURVE",
"150 207 CURVE"
);
}
);
width = 167;
}
);
note = grave;
unicode = 0060;
},
{
glyphname = a;
layers = (
{
hints = (
{
horizontal = 1;
place = "{-37, 8}";
type = Stem;
},
{
horizontal = 1;
place = "{249, 24}";
type = Stem;
},
{
place = "{201, 42}";
type = Stem;
},
{
horizontal = 1;
place = "{-38, 32}";
type = Stem;
},
{
place = "{6, 42}";
type = Stem;
},
{
place = "{300, 12}";
type = Stem;
}
);
layerId = "8B85D65B-9817-42FC-8CCD-19CD4C331E33";
paths = (
{
closed = 1;
nodes = (
"269 -29 LINE",
"252 -29 OFFCURVE",
"243 -11 OFFCURVE",
"243 24 CURVE SMOOTH",
"243 59 OFFCURVE",
"254 100 OFFCURVE",
"276 147 CURVE SMOOTH",
"285 164 OFFCURVE",
"290 173 OFFCURVE",
"290 173 CURVE",
"290 178 OFFCURVE",
"285 183 OFFCURVE",
"274 189 CURVE SMOOTH",
"263 196 OFFCURVE",
"256 199 OFFCURVE",
"253 199 CURVE SMOOTH",
"250 199 OFFCURVE",
"248 198 OFFCURVE",
"247 197 CURVE SMOOTH",
"151 62 OFFCURVE",
"88 -6 OFFCURVE",
"58 -6 CURVE SMOOTH",
"51 -6 OFFCURVE",
"48 0 OFFCURVE",
"48 13 CURVE SMOOTH",
"48 46 OFFCURVE",
"72 93 OFFCURVE",
"121 155 CURVE SMOOTH",
"170 218 OFFCURVE",
"214 249 OFFCURVE",
"251 249 CURVE SMOOTH",
"272 249 OFFCURVE",
"289 237 OFFCURVE",
"300 212 CURVE",
"300 210 OFFCURVE",
"301 209 OFFCURVE",
"303 209 CURVE SMOOTH",
"309 209 OFFCURVE",
"312 213 OFFCURVE",
"312 220 CURVE SMOOTH",
"312 252 OFFCURVE",
"272 273 OFFCURVE",
"223 273 CURVE SMOOTH",
"213 273 LINE SMOOTH",
"189 273 OFFCURVE",
"160 257 OFFCURVE",
"127 226 CURVE SMOOTH",
"94 195 OFFCURVE",
"65 159 OFFCURVE",
"41 118 CURVE SMOOTH",
"18 78 OFFCURVE",
"6 48 OFFCURVE",
"6 28 CURVE SMOOTH",
"6 -11 OFFCURVE",
"32 -38 OFFCURVE",
"59 -38 CURVE SMOOTH",
"90 -38 OFFCURVE",
"133 4 OFFCURVE",
"188 89 CURVE SMOOTH",
"203 111 OFFCURVE",
"212 124 OFFCURVE",
"214 128 CURVE",
"196 65 OFFCURVE",
"196 14 OFFCURVE",
"216 -15 CURVE SMOOTH",
"227 -30 OFFCURVE",
"240 -37 OFFCURVE",
"256 -37 CURVE SMOOTH",
"273 -37 OFFCURVE",
"281 -34 OFFCURVE",
"281 -28 CURVE",
"279 -27 LINE"
);
}
);
width = 302;
}
);
note = a;
unicode = 0061;
},
{
glyphname = b;
layers = (
{
hints = (
{
horizontal = 1;
place = "{-64, 34}";
type = Stem;
},
{
horizontal = 1;
place = "{244, 20}";
type = Stem;
},
{
horizontal = 1;
place = "{480, 14}";
type = Stem;
},
{
place = "{41, 22}";
type = Stem;
},
{
place = "{245, 47}";
type = Stem;
},
{
place = "{185, 56}";
type = Stem;
}
);
layerId = "8B85D65B-9817-42FC-8CCD-19CD4C331E33";
paths = (
{
closed = 1;
nodes = (
"167 480 LINE",
"191 480 OFFCURVE",
"193 456 OFFCURVE",
"162 372 CURVE",
"89 204 LINE SMOOTH",
"57 130 OFFCURVE",
"41 74 OFFCURVE",
"41 37 CURVE SMOOTH",
"38 -4 OFFCURVE",
"69 -17 OFFCURVE",
"70 -6 CURVE",
"65 5 OFFCURVE",
"63 13 OFFCURVE",
"63 18 CURVE SMOOTH",
"63 52 OFFCURVE",
"83 98 OFFCURVE",
"122 156 CURVE SMOOTH",
"161 215 OFFCURVE",
"195 244 OFFCURVE",
"224 244 CURVE SMOOTH",
"238 244 OFFCURVE",
"245 234 OFFCURVE",
"245 213 CURVE SMOOTH",
"245 160 OFFCURVE",
"225 106 OFFCURVE",
"185 51 CURVE SMOOTH",
"146 -3 OFFCURVE",
"104 -30 OFFCURVE",
"60 -30 CURVE SMOOTH",
"41 -30 OFFCURVE",
"20 -22 OFFCURVE",
"-1 -7 CURVE",
"-4 -10 OFFCURVE",
"-4 -10 OFFCURVE",
"-1 -15 CURVE SMOOTH",
"20 -48 OFFCURVE",
"46 -64 OFFCURVE",
"79 -64 CURVE SMOOTH",
"123 -64 OFFCURVE",
"169 -33 OFFCURVE",
"218 28 CURVE SMOOTH",
"267 89 OFFCURVE",
"292 146 OFFCURVE",
"292 197 CURVE SMOOTH",
"292 242 OFFCURVE",
"269 264 OFFCURVE",
"223 264 CURVE SMOOTH",
"196 264 OFFCURVE",
"171 257 OFFCURVE",
"150 242 CURVE",
"202 344 LINE SMOOTH",
"228 395 OFFCURVE",
"241 429 OFFCURVE",
"241 444 CURVE SMOOTH",
"241 460 OFFCURVE",
"234 472 OFFCURVE",
"220 481 CURVE SMOOTH",
"206 490 OFFCURVE",
"187 494 OFFCURVE",
"162 494 CURVE SMOOTH",
"137 494 OFFCURVE",
"125 489 OFFCURVE",
"125 479 CURVE SMOOTH",
"125 475 OFFCURVE",
"127 473 OFFCURVE",
"132 473 CURVE"
);
}
);
width = 296;
}
);
note = b;
unicode = 0062;
},
{
glyphname = c;
layers = (
{
hints = (
{
horizontal = 1;
place = "{-41, 23}";
type = Stem;
},
{
horizontal = 1;
place = "{247, 26}";
type = Stem;
},
{
place = "{-5, 41}";
type = Stem;
},
{
place = "{205, 30}";
type = Stem;
}
);
layerId = "8B85D65B-9817-42FC-8CCD-19CD4C331E33";
paths = (
{
closed = 1;
nodes = (
"249 125 OFFCURVE",
"236 112 OFFCURVE",
"211 85 CURVE SMOOTH",
"186 58 OFFCURVE",
"165 36 OFFCURVE",
"146 19 CURVE SMOOTH",
"117 -6 OFFCURVE",
"90 -18 OFFCURVE",
"67 -18 CURVE SMOOTH",
"26 -18 OFFCURVE",
"24 44 OFFCURVE",
"72 124 CURVE SMOOTH",
"96 164 OFFCURVE",
"124 197 OFFCURVE",
"157 224 CURVE SMOOTH",
"176 239 OFFCURVE",
"189 247 OFFCURVE",
"197 247 CURVE SMOOTH",
"208 247 OFFCURVE",
"209 221 OFFCURVE",
"193 185 CURVE",
"194 182 OFFCURVE",
"197 180 OFFCURVE",
"203 180 CURVE SMOOTH",
"224 180 OFFCURVE",
"235 196 OFFCURVE",
"235 227 CURVE SMOOTH",
"235 250 OFFCURVE",
"199 273 OFFCURVE",
"172 273 CURVE SMOOTH",
"135 273 OFFCURVE",
"96 244 OFFCURVE",
"55 185 CURVE SMOOTH",
"15 127 OFFCURVE",
"-5 78 OFFCURVE",
"-5 38 CURVE SMOOTH",
"-5 -15 OFFCURVE",
"23 -41 OFFCURVE",
"80 -41 CURVE SMOOTH",
"126 -41 OFFCURVE",
"184 10 OFFCURVE",
"254 112 CURVE SMOOTH",
"257 117 OFFCURVE",
"258 125 OFFCURVE",
"250 125 CURVE SMOOTH"
);
}
);
width = 242;
}
);
note = c;
unicode = 0063;
},
{
glyphname = d;
layers = (
{
hints = (
{
horizontal = 1;
place = "{-67, 11}";
type = Stem;
},
{
horizontal = 1;
place = "{250, 25}";
type = Stem;
},
{
horizontal = 1;
place = "{475, 15}";
type = Stem;
},
{
place = "{-1, 33}";
type = Stem;
},
{
place = "{187, 29}";
type = Stem;
},
{
place = "{341, 53}";
type = Stem;
},
{
horizontal = 1;
place = "{-36, 29}";
type = Stem;
}
);
layerId = "8B85D65B-9817-42FC-8CCD-19CD4C331E33";
paths = (
{
closed = 1;
nodes = (
"321 475 LINE",
"334 475 OFFCURVE",
"341 470 OFFCURVE",
"341 459 CURVE SMOOTH",
"341 458 OFFCURVE",
"327 423 OFFCURVE",
"298 354 CURVE SMOOTH",
"270 285 OFFCURVE",
"249 235 OFFCURVE",
"236 206 CURVE",
"175 118 OFFCURVE",
"110 44 OFFCURVE",
"75 15 CURVE SMOOTH",
"40 -14 OFFCURVE",
"32 -12 OFFCURVE",
"32 8 CURVE SMOOTH",
"32 35 OFFCURVE",
"55 82 OFFCURVE",
"102 149 CURVE SMOOTH",
"149 216 OFFCURVE",
"184 250 OFFCURVE",
"207 250 CURVE",
"227 239 LINE",
"239 239 OFFCURVE",
"242 255 OFFCURVE",
"218 266 CURVE SMOOTH",
"207 272 OFFCURVE",
"196 275 OFFCURVE",
"187 275 CURVE SMOOTH",
"152 275 OFFCURVE",
"111 245 OFFCURVE",
"66 185 CURVE SMOOTH",
"21 126 OFFCURVE",
"-1 75 OFFCURVE",
"-1 34 CURVE SMOOTH",
"-1 20 OFFCURVE",
"6 5 OFFCURVE",
"19 -11 CURVE SMOOTH",
"33 -28 OFFCURVE",
"47 -36 OFFCURVE",
"60 -36 CURVE SMOOTH",
"81 -36 OFFCURVE",
"107 -16 OFFCURVE",
"137 23 CURVE SMOOTH",
"167 63 OFFCURVE",
"194 108 OFFCURVE",
"219 158 CURVE",
"198 86 OFFCURVE",
"187 35 OFFCURVE",
"187 5 CURVE SMOOTH",
"187 -43 OFFCURVE",
"202 -67 OFFCURVE",
"232 -67 CURVE SMOOTH",
"243 -67 OFFCURVE",
"269 -55 OFFCURVE",
"269 -46 CURVE",
"266 -45 LINE",
"236 -56 LINE",
"223 -56 OFFCURVE",
"216 -42 OFFCURVE",
"216 -15 CURVE SMOOTH",
"216 32 OFFCURVE",
"234 94 OFFCURVE",
"269 171 CURVE SMOOTH",
"270 174 OFFCURVE",
"291 218 OFFCURVE",
"332 301 CURVE SMOOTH",
"373 385 OFFCURVE",
"394 432 OFFCURVE",
"394 443 CURVE SMOOTH",
"394 474 OFFCURVE",
"371 490 OFFCURVE",
"325 490 CURVE SMOOTH",
"295 490 OFFCURVE",
"280 485 OFFCURVE",
"280 474 CURVE SMOOTH",
"280 470 OFFCURVE",
"282 468 OFFCURVE",
"287 468 CURVE"
);
}
);
width = 305;
}
);
note = d;
unicode = 0064;
},
{
glyphname = e;
layers = (
{
hints = (
{
horizontal = 1;
place = "{-41, 23}";
type = Stem;
},
{
horizontal = 1;
place = "{247, 26}";
type = Stem;
},
{
place = "{-5, 41}";
type = Stem;
},
{
place = "{205, 29}";
type = Stem;
}
);
layerId = "8B85D65B-9817-42FC-8CCD-19CD4C331E33";
paths = (
{
closed = 1;
nodes = (
"249 125 OFFCURVE",
"236 112 OFFCURVE",
"211 85 CURVE SMOOTH",
"186 58 OFFCURVE",
"165 36 OFFCURVE",
"146 19 CURVE SMOOTH",
"117 -6 OFFCURVE",
"90 -18 OFFCURVE",
"67 -18 CURVE SMOOTH",
"26 -18 OFFCURVE",
"24 44 OFFCURVE",
"72 124 CURVE SMOOTH",
"96 164 OFFCURVE",
"124 197 OFFCURVE",
"157 224 CURVE SMOOTH",
"176 239 OFFCURVE",
"189 247 OFFCURVE",
"197 247 CURVE SMOOTH",
"202 247 OFFCURVE",
"205 243 OFFCURVE",
"205 235 CURVE SMOOTH",
"205 180 OFFCURVE",
"167 141 OFFCURVE",
"90 117 CURVE",
"87 112 LINE",
"87 109 OFFCURVE",
"90 108 OFFCURVE",
"96 108 CURVE SMOOTH",
"125 108 OFFCURVE",
"156 120 OFFCURVE",
"187 145 CURVE SMOOTH",
"218 170 OFFCURVE",
"234 195 OFFCURVE",
"234 220 CURVE SMOOTH",
"234 249 OFFCURVE",
"205 273 OFFCURVE",
"173 273 CURVE SMOOTH",
"135 273 OFFCURVE",
"96 244 OFFCURVE",
"55 186 CURVE SMOOTH",
"15 128 OFFCURVE",
"-5 79 OFFCURVE",
"-5 38 CURVE SMOOTH",
"-5 -15 OFFCURVE",
"23 -41 OFFCURVE",
"80 -41 CURVE SMOOTH",
"126 -41 OFFCURVE",
"184 10 OFFCURVE",
"254 112 CURVE SMOOTH",
"257 117 OFFCURVE",
"258 125 OFFCURVE",
"250 125 CURVE SMOOTH"
);
}
);
width = 233;
}
);
note = e;
unicode = 0065;
},
{
glyphname = f;
layers = (
{
hints = (
{
horizontal = 1;
place = "{-334, 31}";
type = Stem;
},
{
horizontal = 1;
place = "{499, 18}";
type = Stem;
},
{
place = "{317, 33}";
type = Stem;
}
);
layerId = "8B85D65B-9817-42FC-8CCD-19CD4C331E33";
paths = (
{
closed = 1;
nodes = (
"70 276 LINE",
"67 276 OFFCURVE",
"65 273 OFFCURVE",
"65 267 CURVE SMOOTH",
"65 238 OFFCURVE",
"81 220 OFFCURVE",
"113 211 CURVE",
"67 78 LINE SMOOTH",
"48 22 OFFCURVE",
"33 -21 OFFCURVE",
"21 -51 CURVE SMOOTH",
"-48 -219 OFFCURVE",
"-118 -303 OFFCURVE",
"-189 -303 CURVE SMOOTH",
"-240 -303 OFFCURVE",
"-272 -278 OFFCURVE",
"-287 -227 CURVE SMOOTH",
"-291 -212 OFFCURVE",
"-297 -214 OFFCURVE",
"-297 -222 CURVE SMOOTH",
"-297 -257 OFFCURVE",
"-285 -284 OFFCURVE",
"-261 -304 CURVE SMOOTH",
"-237 -324 OFFCURVE",
"-211 -334 OFFCURVE",
"-182 -334 CURVE SMOOTH",
"-122 -334 OFFCURVE",
"-68 -299 OFFCURVE",
"-19 -229 CURVE SMOOTH",
"30 -159 OFFCURVE",
"77 -45 OFFCURVE",
"124 113 CURVE SMOOTH",
"145 176 OFFCURVE",
"156 210 OFFCURVE",
"156 215 CURVE",
"177 220 OFFCURVE",
"232 238 OFFCURVE",
"323 269 CURVE",
"323 272 OFFCURVE",
"322 273 OFFCURVE",
"320 273 CURVE SMOOTH",
"193 270 LINE SMOOTH",
"184 270 OFFCURVE",
"180 273 OFFCURVE",
"180 280 CURVE SMOOTH",
"180 284 OFFCURVE",
"187 305 OFFCURVE",
"200 342 CURVE SMOOTH",
"214 380 OFFCURVE",
"223 404 OFFCURVE",
"228 413 CURVE SMOOTH",
"257 470 OFFCURVE",
"281 499 OFFCURVE",
"302 499 CURVE SMOOTH",
"312 499 OFFCURVE",
"317 490 OFFCURVE",
"317 472 CURVE SMOOTH",
"317 455 OFFCURVE",
"314 440 OFFCURVE",
"309 429 CURVE",
"309 425 OFFCURVE",
"312 423 OFFCURVE",
"319 423 CURVE SMOOTH",
"340 423 OFFCURVE",
"350 439 OFFCURVE",
"350 471 CURVE SMOOTH",
"350 498 OFFCURVE",
"324 517 OFFCURVE",
"293 517 CURVE SMOOTH",
"262 517 OFFCURVE",
"237 501 OFFCURVE",
"216 470 CURVE SMOOTH",
"196 439 OFFCURVE",
"174 384 OFFCURVE",
"149 306 CURVE",
"146 292 OFFCURVE",
"141 280 OFFCURVE",
"134 270 CURVE SMOOTH",
"131 265 OFFCURVE",
"124 267 OFFCURVE",
"121 267 CURVE"
);
}
);
width = 221;
}
);
note = f;
unicode = 0066;
},
{
glyphname = g;
layers = (
{
hints = (
{
horizontal = 1;
place = "{-487, 42}";
type = Stem;
},
{
horizontal = 1;
place = "{-81, 26}";
type = Stem;
},
{
horizontal = 1;
place = "{281, 28}";
type = Stem;
},
{
place = "{-419, 18}";
type = Stem;
},
{
place = "{3, 39}";
type = Stem;
},
{
place = "{80, 18}";
type = Stem;
},
{
place = "{162, 22}";
type = Stem;
},
{
place = "{274, 13}";
type = Stem;
},
{
horizontal = 1;
place = "{-30, 12}";
type = Stem;
},
{
horizontal = 1;
place = "{212, 36}";
type = Stem;
},
{
place = "{194, 33}";
type = Stem;
},
{
place = "{270, 9}";
type = Stem;
},
{
place = "{96, 9}";
type = Stem;
}
);
layerId = "8B85D65B-9817-42FC-8CCD-19CD4C331E33";
paths = (
{
closed = 1;
nodes = (
"208 71 OFFCURVE",
"227 127 OFFCURVE",
"227 191 CURVE SMOOTH",
"227 200 OFFCURVE",
"227 207 OFFCURVE",
"226 212 CURVE",
"258 212 OFFCURVE",
"274 202 OFFCURVE",
"274 182 CURVE SMOOTH",
"274 176 OFFCURVE",
"271 171 OFFCURVE",
"264 166 CURVE",
"264 154 OFFCURVE",
"287 168 OFFCURVE",
"287 190 CURVE SMOOTH",
"287 217 OFFCURVE",
"263 234 OFFCURVE",
"215 243 CURVE",
"188 287 OFFCURVE",
"162 309 OFFCURVE",
"139 309 CURVE SMOOTH",
"116 309 OFFCURVE",
"101 302 OFFCURVE",
"92 289 CURVE SMOOTH",
"84 276 OFFCURVE",
"80 250 OFFCURVE",
"80 212 CURVE",
"29 162 OFFCURVE",
"3 114 OFFCURVE",
"3 67 CURVE SMOOTH",
"3 44 OFFCURVE",
"11 22 OFFCURVE",
"27 1 CURVE SMOOTH",
"43 -20 OFFCURVE",
"62 -30 OFFCURVE",
"83 -30 CURVE SMOOTH",
"104 -30 OFFCURVE",
"128 -18 OFFCURVE",
"154 6 CURVE",
"159 -3 OFFCURVE",
"162 -19 OFFCURVE",
"162 -42 CURVE SMOOTH",
"162 -49 OFFCURVE",
"161 -56 OFFCURVE",
"158 -64 CURVE",
"134 -58 OFFCURVE",
"105 -55 OFFCURVE",
"71 -55 CURVE SMOOTH",
"-2 -55 OFFCURVE",
"-76 -68 OFFCURVE",
"-151 -95 CURVE SMOOTH",
"-227 -122 OFFCURVE",
"-291 -158 OFFCURVE",
"-342 -203 CURVE SMOOTH",
"-393 -249 OFFCURVE",
"-419 -295 OFFCURVE",
"-419 -340 CURVE SMOOTH",
"-419 -432 OFFCURVE",
"-349 -487 OFFCURVE",
"-256 -487 CURVE SMOOTH",
"-187 -487 OFFCURVE",
"-120 -469 OFFCURVE",
"-55 -432 CURVE SMOOTH",
"10 -396 OFFCURVE",
"64 -347 OFFCURVE",
"107 -286 CURVE SMOOTH",
"150 -225 OFFCURVE",
"176 -161 OFFCURVE",
"184 -92 CURVE",
"227 -105 OFFCURVE",
"270 -137 OFFCURVE",
"270 -165 CURVE SMOOTH",
"270 -172 OFFCURVE",
"267 -179 OFFCURVE",
"262 -186 CURVE",
"263 -190 OFFCURVE",
"265 -192 OFFCURVE",
"267 -192 CURVE SMOOTH",
"275 -192 OFFCURVE",
"279 -184 OFFCURVE",
"279 -167 CURVE SMOOTH",
"279 -151 OFFCURVE",
"270 -134 OFFCURVE",
"251 -116 CURVE SMOOTH",
"233 -98 OFFCURVE",
"210 -83 OFFCURVE",
"183 -72 CURVE",
"184 -66 OFFCURVE",
"184 -60 OFFCURVE",
"184 -53 CURVE SMOOTH",
"184 -22 OFFCURVE",
"179 3 OFFCURVE",
"169 22 CURVE"
);
},
{
closed = 1;
nodes = (
"98 227 LINE SMOOTH",
"98 263 OFFCURVE",
"107 281 OFFCURVE",
"126 281 CURVE SMOOTH",
"145 281 OFFCURVE",
"159 270 OFFCURVE",
"168 248 CURVE",
"160 248 LINE SMOOTH",
"141 248 OFFCURVE",
"120 241 OFFCURVE",
"98 226 CURVE"
);
},
{
closed = 1;
nodes = (
"194 119 OFFCURVE",
"182 81 OFFCURVE",
"158 46 CURVE",
"123 120 OFFCURVE",
"105 160 OFFCURVE",
"105 165 CURVE SMOOTH",
"105 170 OFFCURVE",
"115 177 OFFCURVE",
"136 188 CURVE SMOOTH",
"157 199 OFFCURVE",
"174 207 OFFCURVE",
"185 211 CURVE",
"191 196 OFFCURVE",
"194 180 OFFCURVE",
"194 161 CURVE SMOOTH"
);
},
{
closed = 1;
nodes = (
"42 71 OFFCURVE",
"68 127 OFFCURVE",
"96 155 CURVE",
"148 31 LINE",
"127 -2 OFFCURVE",
"105 -18 OFFCURVE",
"82 -18 CURVE SMOOTH",
"55 -18 OFFCURVE",
"42 -1 OFFCURVE",
"42 34 CURVE SMOOTH"
);
},
{
closed = 1;
nodes = (
"116 -81 OFFCURVE",
"138 -83 OFFCURVE",
"154 -86 CURVE",
"131 -179 OFFCURVE",
"78 -262 OFFCURVE",
"-4 -335 CURVE SMOOTH",
"-87 -408 OFFCURVE",
"-174 -445 OFFCURVE",
"-266 -445 CURVE SMOOTH",
"-394 -450 OFFCURVE",
"-443 -340 OFFCURVE",
"-361 -250 CURVE SMOOTH",
"-308 -190 OFFCURVE",
"-222 -138 OFFCURVE",
"-99 -105 CURVE SMOOTH",
"-38 -89 OFFCURVE",
"25 -81 OFFCURVE",
"88 -81 CURVE SMOOTH"
);
}
);
width = 233;
}
);
note = g;
unicode = 0067;
},
{
glyphname = h;
layers = (
{
hints = (
{
horizontal = 1;
place = "{-43, 15}";
type = Stem;
},
{
horizontal = 1;
place = "{483, 14}";
type = Stem;
},
{
place = "{15, 20}";
type = Stem;
},
{
place = "{160, 40}";
type = Stem;
},
{
place = "{178, 55}";
type = Stem;
}
);
layerId = "8B85D65B-9817-42FC-8CCD-19CD4C331E33";
paths = (
{
closed = 1;
nodes = (
"159 483 LINE",
"172 483 OFFCURVE",
"178 476 OFFCURVE",
"178 461 CURVE SMOOTH",
"177 434 OFFCURVE",
"163 392 OFFCURVE",
"138 334 CURVE SMOOTH",
"81 203 LINE SMOOTH",
"54 142 OFFCURVE",
"34 86 OFFCURVE",
"21 35 CURVE",
"9 26 OFFCURVE",
"-6 16 OFFCURVE",
"-24 5 CURVE",
"-26 5 LINE SMOOTH",
"-30 5 OFFCURVE",
"-32 3 OFFCURVE",
"-32 -1 CURVE SMOOTH",
"-32 -5 OFFCURVE",
"-14 -25 OFFCURVE",
"21 -62 CURVE SMOOTH",
"24 -65 OFFCURVE",
"28 -67 OFFCURVE",
"32 -67 CURVE SMOOTH",
"40 -67 OFFCURVE",
"44 -64 OFFCURVE",
"44 -58 CURVE SMOOTH",
"44 -55 OFFCURVE",
"41 -52 OFFCURVE",
"35 -48 CURVE",
"35 -43 LINE SMOOTH",
"35 -28 OFFCURVE",
"42 -3 OFFCURVE",
"55 34 CURVE",
"94 64 OFFCURVE",
"136 101 OFFCURVE",
"179 145 CURVE",
"154 76 OFFCURVE",
"154 25 OFFCURVE",
"178 -14 CURVE SMOOTH",
"190 -33 OFFCURVE",
"205 -43 OFFCURVE",
"224 -43 CURVE SMOOTH",
"243 -43 OFFCURVE",
"253 -34 OFFCURVE",
"253 -17 CURVE SMOOTH",
"253 -12 OFFCURVE",
"252 -9 OFFCURVE",
"250 -9 CURVE",
"235 -22 OFFCURVE",
"226 -28 OFFCURVE",
"221 -28 CURVE SMOOTH",
"207 -28 OFFCURVE",
"200 -8 OFFCURVE",
"200 33 CURVE SMOOTH",
"200 48 OFFCURVE",
"207 79 OFFCURVE",
"222 127 CURVE SMOOTH",
"237 175 OFFCURVE",
"253 216 OFFCURVE",
"272 250 CURVE SMOOTH",
"275 256 OFFCURVE",
"277 258 OFFCURVE",
"277 255 CURVE SMOOTH",
"277 264 OFFCURVE",
"265 269 OFFCURVE",
"241 269 CURVE SMOOTH",
"236 269 LINE SMOOTH",
"232 269 OFFCURVE",
"206 226 OFFCURVE",
"151 161 CURVE SMOOTH",
"124 129 OFFCURVE",
"97 101 OFFCURVE",
"70 77 CURVE",
"129 213 LINE",
"188 334 LINE SMOOTH",
"218 395 OFFCURVE",
"233 433 OFFCURVE",
"233 447 CURVE SMOOTH",
"233 462 OFFCURVE",
"227 474 OFFCURVE",
"214 483 CURVE SMOOTH",
"202 492 OFFCURVE",
"183 497 OFFCURVE",
"157 497 CURVE SMOOTH",
"132 497 OFFCURVE",
"119 492 OFFCURVE",
"119 482 CURVE SMOOTH",
"119 478 OFFCURVE",
"121 476 OFFCURVE",
"124 476 CURVE"
);
},
{
closed = 1;
nodes = (
"2 -27 OFFCURVE",
"-6 -17 OFFCURVE",
"-12 -7 CURVE",
"-9 -6 OFFCURVE",
"0 -2 OFFCURVE",
"15 6 CURVE",
"11 -18 OFFCURVE",
"12 -29 OFFCURVE",
"13 -36 CURVE"
);
}
);
width = 261;
}
);
note = h;
unicode = 0068;
},
{
glyphname = i;
layers = (
{
hints = (
{
horizontal = 1;
place = "{-45, 18}";
type = Stem;
},
{
place = "{15, 44}";
type = Stem;
}
);
layerId = "8B85D65B-9817-42FC-8CCD-19CD4C331E33";
paths = (
{
closed = 1;
nodes = (
"167 376 OFFCURVE",
"138 348 OFFCURVE",
"113 331 CURVE",
"122 323 OFFCURVE",
"134 319 OFFCURVE",
"149 319 CURVE SMOOTH",
"170 319 OFFCURVE",
"185 340 OFFCURVE",
"195 381 CURVE SMOOTH",
"200 410 LINE",
"200 413 OFFCURVE",
"199 415 OFFCURVE",
"198 415 CURVE"
);
},
{
closed = 1;
nodes = (
"55 -27 OFFCURVE",
"50 8 OFFCURVE",
"87 116 CURVE SMOOTH",
"106 171 OFFCURVE",
"125 216 OFFCURVE",
"146 251 CURVE",
"144 260 OFFCURVE",
"131 265 OFFCURVE",
"108 265 CURVE SMOOTH",
"100 265 OFFCURVE",
"94 263 OFFCURVE",
"89 258 CURVE SMOOTH",
"85 254 OFFCURVE",
"75 234 OFFCURVE",
"75 229 CURVE",
"35 138 OFFCURVE",
"15 65 OFFCURVE",
"15 10 CURVE SMOOTH",
"15 -27 OFFCURVE",
"28 -45 OFFCURVE",
"53 -45 CURVE SMOOTH",
"62 -45 OFFCURVE",
"75 -39 OFFCURVE",
"94 -28 CURVE SMOOTH",
"113 -17 OFFCURVE",
"123 -8 OFFCURVE",
"123 0 CURVE SMOOTH",
"123 3 OFFCURVE",
"122 4 OFFCURVE",
"119 4 CURVE",
"114 0 OFFCURVE",
"114 -1 OFFCURVE",
"95 -16 CURVE SMOOTH",
"86 -23 OFFCURVE",
"78 -27 OFFCURVE",
"72 -27 CURVE SMOOTH"
);
}
);
width = 154;
}
);
note = i;
unicode = 0069;
},
{
glyphname = j;
layers = (
{
hints = (
{
horizontal = 1;
place = "{-500, 11}";
type = Stem;
},
{
horizontal = 1;
place = "{310, -20}";
target = down;
type = TopGhost;
},
{
place = "{-369, 22}";
type = Stem;
},
{
place = "{76, 56}";
type = Stem;
}
);
layerId = "8B85D65B-9817-42FC-8CCD-19CD4C331E33";
paths = (
{
closed = 1;
nodes = (
"135 355 OFFCURVE",
"106 327 OFFCURVE",
"81 310 CURVE",
"90 301 OFFCURVE",
"103 297 OFFCURVE",
"118 297 CURVE SMOOTH",
"143 297 OFFCURVE",
"159 324 OFFCURVE",
"167 379 CURVE",
"167 384 OFFCURVE",
"170 394 OFFCURVE",
"166 394 CURVE"
);
},
{
closed = 1;
nodes = (
"76 212 LINE",
"76 160 OFFCURVE",
"63 94 OFFCURVE",
"37 13 CURVE SMOOTH",
"11 -67 OFFCURVE",
"-21 -144 OFFCURVE",
"-58 -218 CURVE SMOOTH",
"-96 -292 OFFCURVE",
"-138 -356 OFFCURVE",
"-185 -409 CURVE SMOOTH",
"-232 -462 OFFCURVE",
"-273 -489 OFFCURVE",
"-310 -489 CURVE SMOOTH",
"-335 -489 OFFCURVE",
"-347 -473 OFFCURVE",
"-347 -441 CURVE SMOOTH",
"-347 -358 OFFCURVE",
"-235 -223 OFFCURVE",
"-10 -36 CURVE",
"6 -20 OFFCURVE",
"3 -17 OFFCURVE",
"0 -17 CURVE",
"-8 -21 LINE",
"-100 -78 OFFCURVE",
"-183 -149 OFFCURVE",
"-257 -232 CURVE SMOOTH",
"-332 -316 OFFCURVE",
"-369 -384 OFFCURVE",
"-369 -436 CURVE SMOOTH",
"-369 -481 OFFCURVE",
"-350 -500 OFFCURVE",
"-303 -500 CURVE SMOOTH",
"-254 -500 OFFCURVE",
"-192 -455 OFFCURVE",
"-118 -366 CURVE SMOOTH",
"-45 -277 OFFCURVE",
"15 -177 OFFCURVE",
"62 -68 CURVE SMOOTH",
"109 41 OFFCURVE",
"132 129 OFFCURVE",
"132 196 CURVE SMOOTH",
"132 213 OFFCURVE",
"131 227 OFFCURVE",
"128 238 CURVE SMOOTH",
"124 249 OFFCURVE",
"94 262 OFFCURVE",
"82 262 CURVE SMOOTH",
"76 262 OFFCURVE",
"73 260 OFFCURVE",
"73 255 CURVE SMOOTH",
"73 253 LINE"
);
}
);
width = 158;
}
);
note = j;
unicode = 006A;
},
{
glyphname = k;
layers = (
{
hints = (
{
horizontal = 1;
place = "{483, 14}";
type = Stem;
},
{
place = "{15, 29}";
type = Stem;
},
{
place = "{210, 25}";
type = Stem;
},
{
place = "{169, 55}";
type = Stem;
},
{
horizontal = 1;
place = "{125, 26}";
type = Stem;
},
{
place = "{275, 55}";
type = Stem;
},
{
horizontal = 1;
place = "{160, 23}";
type = Stem;
}
);
layerId = "8B85D65B-9817-42FC-8CCD-19CD4C331E33";
paths = (
{
closed = 1;
nodes = (
"150 483 LINE",
"163 483 OFFCURVE",
"169 474 OFFCURVE",
"169 455 CURVE SMOOTH",
"169 437 OFFCURVE",
"149 376 OFFCURVE",
"109 272 CURVE SMOOTH",
"32 79 LINE",
"9 -1 OFFCURVE",
"9 -40 OFFCURVE",
"32 -40 CURVE SMOOTH",
"40 -40 OFFCURVE",
"44 -37 OFFCURVE",
"44 -31 CURVE SMOOTH",
"44 -29 OFFCURVE",
"43 -27 OFFCURVE",
"41 -25 CURVE",
"48 -6 OFFCURVE",
"78 39 OFFCURVE",
"129 112 CURVE",
"183 55 OFFCURVE",
"210 -3 OFFCURVE",
"210 -62 CURVE",
"205 -102 LINE SMOOTH",
"205 -107 OFFCURVE",
"208 -109 OFFCURVE",
"213 -109 CURVE SMOOTH",
"219 -109 OFFCURVE",
"224 -99 OFFCURVE",
"228 -78 CURVE SMOOTH",
"233 -57 OFFCURVE",
"235 -37 OFFCURVE",
"235 -17 CURVE SMOOTH",
"235 34 OFFCURVE",
"222 82 OFFCURVE",
"195 125 CURVE",
"230 132 OFFCURVE",
"262 151 OFFCURVE",
"289 182 CURVE SMOOTH",
"316 213 OFFCURVE",
"330 246 OFFCURVE",
"330 281 CURVE SMOOTH",
"330 296 OFFCURVE",
"327 303 OFFCURVE",
"320 303 CURVE SMOOTH",
"306 303 OFFCURVE",
"282 289 OFFCURVE",
"249 262 CURVE SMOOTH",
"216 235 OFFCURVE",
"185 205 OFFCURVE",
"154 170 CURVE",
"130 187 OFFCURVE",
"132 189 OFFCURVE",
"112 166 CURVE SMOOTH",
"103 155 OFFCURVE",
"98 147 OFFCURVE",
"98 142 CURVE",
"118 125 LINE",
"75 68 OFFCURVE",
"52 37 OFFCURVE",
"49 31 CURVE",
"58 57 OFFCURVE",
"90 131 OFFCURVE",
"146 254 CURVE SMOOTH",
"198 372 OFFCURVE",
"224 437 OFFCURVE",
"224 450 CURVE SMOOTH",
"224 463 OFFCURVE",
"218 474 OFFCURVE",
"205 483 CURVE SMOOTH",
"192 492 OFFCURVE",
"173 497 OFFCURVE",
"147 497 CURVE SMOOTH",
"122 497 OFFCURVE",
"109 492 OFFCURVE",
"109 482 CURVE SMOOTH",
"109 478 OFFCURVE",
"111 476 OFFCURVE",
"116 476 CURVE"
);
},
{
closed = 1;
nodes = (
"275 240 OFFCURVE",
"264 217 OFFCURVE",
"243 190 CURVE SMOOTH",
"222 164 OFFCURVE",
"205 151 OFFCURVE",
"191 151 CURVE SMOOTH",
"177 151 OFFCURVE",
"169 154 OFFCURVE",
"166 160 CURVE",
"169 165 OFFCURVE",
"188 183 OFFCURVE",
"221 214 CURVE SMOOTH",
"255 246 OFFCURVE",
"272 262 OFFCURVE",
"273 262 CURVE SMOOTH",
"274 262 OFFCURVE",
"275 261 OFFCURVE",
"275 259 CURVE SMOOTH"
);
}
);
width = 277;
}
);
note = k;
unicode = 006B;
},
{
glyphname = l;
layers = (
{
hints = (
{
horizontal = 1;
place = "{-39, 16}";
type = Stem;
},
{
horizontal = 1;
place = "{496, 31}";
type = Stem;
},
{
place = "{20, 38}";
type = Stem;
},
{
place = "{263, 24}";
type = Stem;
}
);
layerId = "8B85D65B-9817-42FC-8CCD-19CD4C331E33";
paths = (
{
closed = 1;
nodes = (
"82 -23 LINE",
"66 -23 OFFCURVE",
"58 -5 OFFCURVE",
"58 32 CURVE SMOOTH",
"58 69 OFFCURVE",
"64 112 OFFCURVE",
"75 161 CURVE",
"216 326 OFFCURVE",
"287 433 OFFCURVE",
"287 481 CURVE SMOOTH",
"287 504 OFFCURVE",
"250 527 OFFCURVE",
"221 527 CURVE SMOOTH",
"195 527 OFFCURVE",
"166 493 OFFCURVE",
"133 426 CURVE SMOOTH",
"100 359 OFFCURVE",
"73 286 OFFCURVE",
"52 209 CURVE SMOOTH",
"31 132 OFFCURVE",
"20 76 OFFCURVE",
"20 41 CURVE SMOOTH",
"20 -12 OFFCURVE",
"36 -39 OFFCURVE",
"68 -39 CURVE SMOOTH",
"91 -39 OFFCURVE",
"103 -34 OFFCURVE",
"103 -23 CURVE SMOOTH",
"103 -20 OFFCURVE",
"101 -18 OFFCURVE",
"98 -18 CURVE"
);
},
{
closed = 1;
nodes = (
"263 444 OFFCURVE",
"203 345 OFFCURVE",
"82 187 CURVE",
"102 251 OFFCURVE",
"131 318 OFFCURVE",
"169 389 CURVE SMOOTH",
"207 460 OFFCURVE",
"236 496 OFFCURVE",
"256 496 CURVE SMOOTH",
"261 496 OFFCURVE",
"263 492 OFFCURVE",
"263 484 CURVE SMOOTH"
);
}
);
width = 172;
}
);
note = l;
unicode = 006C;
},
{
glyphname = m;
layers = (
{
hints = (
{
horizontal = 1;
place = "{-32, 25}";
type = Stem;
},
{
horizontal = 1;
place = "{236, 37}";
type = Stem;
},
{
place = "{85, 54}";
type = Stem;
},
{
place = "{241, 47}";
type = Stem;
},
{
place = "{366, 41}";
type = Stem;
},
{
place = "{424, 10}";
type = Stem;
}
);
layerId = "8B85D65B-9817-42FC-8CCD-19CD4C331E33";
paths = (
{
closed = 1;
nodes = (
"447 204 OFFCURVE",
"439 207 OFFCURVE",
"424 207 CURVE SMOOTH",
"409 207 OFFCURVE",
"397 204 OFFCURVE",
"388 199 CURVE",
"251 51 LINE",
"276 124 OFFCURVE",
"288 178 OFFCURVE",
"288 211 CURVE SMOOTH",
"288 252 OFFCURVE",
"273 273 OFFCURVE",
"242 273 CURVE SMOOTH",
"240 273 LINE SMOOTH",
"205 273 OFFCURVE",
"176 246 OFFCURVE",
"139 185 CURVE SMOOTH",
"116 146 LINE",
"131 189 OFFCURVE",
"139 220 OFFCURVE",
"139 239 CURVE SMOOTH",
"139 276 OFFCURVE",
"117 294 OFFCURVE",
"72 294 CURVE SMOOTH",
"62 294 OFFCURVE",
"57 291 OFFCURVE",
"57 285 CURVE SMOOTH",
"57 282 OFFCURVE",
"62 280 OFFCURVE",
"71 279 CURVE SMOOTH",
"80 278 OFFCURVE",
"85 272 OFFCURVE",
"85 261 CURVE SMOOTH",
"85 226 OFFCURVE",
"74 174 OFFCURVE",
"52 105 CURVE SMOOTH",
"30 36 OFFCURVE",
"19 -4 OFFCURVE",
"19 -15 CURVE SMOOTH",
"19 -24 OFFCURVE",
"38 -32 OFFCURVE",
"51 -32 CURVE SMOOTH",
"52 -32 OFFCURVE",
"62 -12 OFFCURVE",
"79 27 CURVE SMOOTH",
"97 67 OFFCURVE",
"113 100 OFFCURVE",
"128 127 CURVE SMOOTH",
"170 200 OFFCURVE",
"203 236 OFFCURVE",
"228 236 CURVE SMOOTH",
"237 236 OFFCURVE",
"241 229 OFFCURVE",
"241 215 CURVE SMOOTH",
"241 184 OFFCURVE",
"229 125 OFFCURVE",
"206 38 CURVE SMOOTH",
"199 9 OFFCURVE",
"195 -7 OFFCURVE",
"195 -9 CURVE SMOOTH",
"195 -17 OFFCURVE",
"206 -21 OFFCURVE",
"229 -21 CURVE SMOOTH",
"236 -21 OFFCURVE",
"253 -1 OFFCURVE",
"282 40 CURVE SMOOTH",
"334 113 LINE SMOOTH",
"349 136 OFFCURVE",
"365 155 OFFCURVE",
"380 170 CURVE",
"371 124 OFFCURVE",
"366 87 OFFCURVE",
"366 58 CURVE SMOOTH",
"366 -2 OFFCURVE",
"383 -32 OFFCURVE",
"418 -32 CURVE SMOOTH",
"429 -32 OFFCURVE",
"434 -23 OFFCURVE",
"434 -6 CURVE SMOOTH",
"434 3 OFFCURVE",
"433 10 OFFCURVE",
"431 15 CURVE",
"424 -7 LINE",
"413 -7 OFFCURVE",
"407 9 OFFCURVE",
"407 40 CURVE SMOOTH",
"407 72 OFFCURVE",
"420 125 OFFCURVE",
"447 198 CURVE"
);
}
);
width = 449;
}
);
note = m;
unicode = 006D;
},
{
glyphname = n;
layers = (
{
hints = (
{
horizontal = 1;
place = "{-43, 15}";
type = Stem;
},
{
horizontal = 1;
place = "{256, 13}";
type = Stem;
},
{
place = "{85, 54}";
type = Stem;
},
{
place = "{193, 39}";
type = Stem;
}
);
layerId = "8B85D65B-9817-42FC-8CCD-19CD4C331E33";
paths = (
{
closed = 1;
nodes = (
"222 245 OFFCURVE",
"203 228 OFFCURVE",
"176 195 CURVE SMOOTH",
"149 162 OFFCURVE",
"120 122 OFFCURVE",
"91 76 CURVE",
"123 171 OFFCURVE",
"139 225 OFFCURVE",
"139 239 CURVE SMOOTH",
"139 276 OFFCURVE",
"117 294 OFFCURVE",
"72 294 CURVE SMOOTH",
"62 294 OFFCURVE",
"57 291 OFFCURVE",
"57 285 CURVE SMOOTH",
"57 274 OFFCURVE",
"85 291 OFFCURVE",
"85 261 CURVE SMOOTH",
"85 226 OFFCURVE",
"74 174 OFFCURVE",
"52 105 CURVE SMOOTH",
"30 36 OFFCURVE",
"19 -4 OFFCURVE",
"19 -15 CURVE",
"21 -27 OFFCURVE",
"57 -43 OFFCURVE",
"65 -21 CURVE SMOOTH",
"74 5 LINE",
"102 67 OFFCURVE",
"152 142 OFFCURVE",
"224 229 CURVE SMOOTH",
"235 242 OFFCURVE",
"232 244 OFFCURVE",
"231 245 CURVE"
);
},
{
closed = 1;
nodes = (
"269 269 LINE SMOOTH",
"253 269 OFFCURVE",
"236 242 OFFCURVE",
"219 188 CURVE SMOOTH",
"202 135 OFFCURVE",
"193 92 OFFCURVE",
"193 59 CURVE SMOOTH",
"193 26 OFFCURVE",
"198 1 OFFCURVE",
"209 -16 CURVE SMOOTH",
"220 -34 OFFCURVE",
"235 -43 OFFCURVE",
"255 -43 CURVE SMOOTH",
"275 -43 OFFCURVE",
"285 -34 OFFCURVE",
"285 -17 CURVE SMOOTH",
"285 -12 OFFCURVE",
"284 -9 OFFCURVE",
"282 -9 CURVE",
"283 -10 OFFCURVE",
"262 -28 OFFCURVE",
"254 -28 CURVE SMOOTH",
"239 -28 OFFCURVE",
"232 -8 OFFCURVE",
"232 33 CURVE SMOOTH",
"232 48 OFFCURVE",
"239 79 OFFCURVE",
"254 127 CURVE SMOOTH",
"269 175 OFFCURVE",
"285 216 OFFCURVE",
"304 250 CURVE",
"306 255 OFFCURVE",
"308 257 OFFCURVE",
"309 256 CURVE",
"308 264 OFFCURVE",
"296 269 OFFCURVE",
"274 269 CURVE SMOOTH"
);
}
);
width = 305;
}
);
note = n;
unicode = 006E;
},
{
glyphname = o;
layers = (
{
hints = (
{
horizontal = 1;
place = "{-30, 12}";
type = Stem;
},
{
horizontal = 1;
place = "{146, 13}";
type = Stem;
},
{
horizontal = 1;
place = "{285, 28}";
type = Stem;
},
{
place = "{45, 21}";
type = Stem;
},
{
place = "{195, 35}";
type = Stem;
},
{
place = "{2, 40}";
type = Stem;
}
);
layerId = "8B85D65B-9817-42FC-8CCD-19CD4C331E33";
paths = (
{
closed = 1;
nodes = (
"253 208 LINE",
"260 208 OFFCURVE",
"263 213 OFFCURVE",
"263 223 CURVE SMOOTH",
"263 232 OFFCURVE",
"247 239 OFFCURVE",
"216 245 CURVE",
"201 290 OFFCURVE",
"172 313 OFFCURVE",
"128 313 CURVE SMOOTH",
"81 313 OFFCURVE",
"45 276 OFFCURVE",
"45 237 CURVE SMOOTH",
"45 218 OFFCURVE",
"49 202 OFFCURVE",
"56 190 CURVE",
"25 158 OFFCURVE",
"2 100 OFFCURVE",
"2 55 CURVE SMOOTH",
"2 -2 OFFCURVE",
"29 -30 OFFCURVE",
"83 -30 CURVE SMOOTH",
"125 -30 OFFCURVE",
"160 -9 OFFCURVE",
"188 33 CURVE SMOOTH",
"216 76 OFFCURVE",
"230 125 OFFCURVE",
"230 180 CURVE SMOOTH",
"230 188 OFFCURVE",
"229 199 OFFCURVE",
"228 212 CURVE"
);
},
{
closed = 1;
nodes = (
"141 285 OFFCURVE",
"158 273 OFFCURVE",
"167 250 CURVE",
"164 250 LINE SMOOTH",
"147 250 OFFCURVE",
"115 233 OFFCURVE",
"70 199 CURVE",
"60 213 OFFCURVE",
"69 286 OFFCURVE",
"116 285 CURVE SMOOTH"
);
},
{
closed = 1;
nodes = (
"134 192 OFFCURVE",
"161 208 OFFCURVE",
"186 212 CURVE",
"192 201 OFFCURVE",
"195 187 OFFCURVE",
"195 170 CURVE SMOOTH",
"195 131 OFFCURVE",
"183 89 OFFCURVE",
"159 46 CURVE SMOOTH",
"135 3 OFFCURVE",
"109 -18 OFFCURVE",
"82 -18 CURVE SMOOTH",
"55 -18 OFFCURVE",
"42 0 OFFCURVE",
"42 36 CURVE SMOOTH",
"42 73 OFFCURVE",
"60 112 OFFCURVE",
"95 153 CURVE",
"110 144 OFFCURVE",
"133 143 OFFCURVE",
"133 154 CURVE SMOOTH",
"133 157 OFFCURVE",
"131 159 OFFCURVE",
"128 159 CURVE SMOOTH",
"127 159 OFFCURVE",
"118 156 OFFCURVE",
"105 165 CURVE"
);
}
);
width = 233;
}
);
note = o;
unicode = 006F;
},
{
glyphname = p;
layers = (
{
hints = (
{
horizontal = 1;
place = "{-267, 11}";
type = Stem;
},
{
horizontal = 1;
place = "{0, 21}";
target = up;
type = BottomGhost;
},
{
horizontal = 1;
place = "{275, 15}";
type = Stem;
},
{
place = "{-25, 34}";
type = Stem;
},
{
place = "{133, 52}";
type = Stem;
},
{
place = "{294, 47}";
type = Stem;
},
{
place = "{27, 15}";
type = Stem;
},
{
horizontal = 1;
place = "{-31, 25}";
type = Stem;
},
{
horizontal = 1;
place = "{245, 24}";
type = Stem;
}
);
layerId = "8B85D65B-9817-42FC-8CCD-19CD4C331E33";
paths = (
{
closed = 1;
nodes = (
"112 275 LINE",
"126 275 OFFCURVE",
"133 270 OFFCURVE",
"133 259 CURVE SMOOTH",
"133 249 OFFCURVE",
"103 173 OFFCURVE",
"42 31 CURVE",
"37 36 OFFCURVE",
"34 43 OFFCURVE",
"32 52 CURVE",
"30 53 LINE",
"26 53 OFFCURVE",
"24 45 OFFCURVE",
"37 20 CURVE",
"-4 -79 OFFCURVE",
"-25 -156 OFFCURVE",
"-25 -212 CURVE SMOOTH",
"-25 -237 OFFCURVE",
"2 -267 OFFCURVE",
"19 -267 CURVE SMOOTH",
"36 -267 OFFCURVE",
"60 -256 OFFCURVE",
"60 -247 CURVE SMOOTH",
"60 -246 OFFCURVE",
"59 -245 OFFCURVE",
"58 -245 CURVE",
"27 -256 LINE",
"15 -256 OFFCURVE",
"9 -248 OFFCURVE",
"9 -232 CURVE SMOOTH",
"9 -182 OFFCURVE",
"30 -110 OFFCURVE",
"73 -16 CURVE",
"89 -26 OFFCURVE",
"108 -31 OFFCURVE",
"131 -31 CURVE SMOOTH",
"176 -31 OFFCURVE",
"222 -2 OFFCURVE",
"269 55 CURVE SMOOTH",
"317 112 OFFCURVE",
"341 165 OFFCURVE",
"341 214 CURVE SMOOTH",
"341 251 OFFCURVE",
"325 269 OFFCURVE",
"293 269 CURVE SMOOTH",
"253 269 OFFCURVE",
"207 233 OFFCURVE",
"156 162 CURVE",
"175 206 OFFCURVE",
"185 233 OFFCURVE",
"185 243 CURVE SMOOTH",
"185 274 OFFCURVE",
"162 290 OFFCURVE",
"116 290 CURVE SMOOTH",
"87 290 OFFCURVE",
"72 285 OFFCURVE",
"72 274 CURVE SMOOTH",
"72 269 OFFCURVE",
"74 267 OFFCURVE",
"78 267 CURVE"
);
},
{
closed = 1;
nodes = (
"294 173 OFFCURVE",
"274 124 OFFCURVE",
"234 72 CURVE SMOOTH",
"195 20 OFFCURVE",
"156 -6 OFFCURVE",
"117 -6 CURVE SMOOTH",
"100 -6 OFFCURVE",
"88 -4 OFFCURVE",
"79 -1 CURVE",
"79 0 LINE",
"114 75 OFFCURVE",
"150 135 OFFCURVE",
"187 179 CURVE SMOOTH",
"225 223 OFFCURVE",
"255 245 OFFCURVE",
"277 245 CURVE SMOOTH",
"288 245 OFFCURVE",
"294 236 OFFCURVE",
"294 219 CURVE SMOOTH"
);
}
);
width = 339;
}
);
note = p;
unicode = 0070;
},
{
glyphname = q;
layers = (
{
hints = (
{
horizontal = 1;
place = "{-299, 29}";
type = Stem;
},
{
horizontal = 1;
place = "{-27, 19}";
type = Stem;
},
{
horizontal = 1;
place = "{240, 34}";
type = Stem;
},
{
place = "{6, 42}";
type = Stem;
},
{
place = "{227, 15}";
type = Stem;
},
{
place = "{71, 47}";
type = Stem;
}
);
layerId = "8B85D65B-9817-42FC-8CCD-19CD4C331E33";
paths = (
{
closed = 1;
nodes = (
"309 199 LINE",
"309 203 OFFCURVE",
"281 208 OFFCURVE",
"269 208 CURVE SMOOTH",
"264 208 OFFCURVE",
"254 201 OFFCURVE",
"241 187 CURVE SMOOTH",
"228 174 OFFCURVE",
"199 138 OFFCURVE",
"154 79 CURVE SMOOTH",
"109 21 OFFCURVE",
"77 -8 OFFCURVE",
"58 -8 CURVE SMOOTH",
"51 -8 OFFCURVE",
"48 -4 OFFCURVE",
"48 5 CURVE SMOOTH",
"48 22 OFFCURVE",
"61 53 OFFCURVE",
"87 97 CURVE SMOOTH",
"113 141 OFFCURVE",
"139 176 OFFCURVE",
"164 201 CURVE SMOOTH",
"215 253 OFFCURVE",
"263 247 OFFCURVE",
"276 219 CURVE",
"278 218 LINE",
"282 219 OFFCURVE",
"284 223 OFFCURVE",
"284 230 CURVE SMOOTH",
"284 259 OFFCURVE",
"266 274 OFFCURVE",
"231 274 CURVE SMOOTH",
"202 274 OFFCURVE",
"170 259 OFFCURVE",
"134 229 CURVE SMOOTH",
"98 200 OFFCURVE",
"68 165 OFFCURVE",
"43 124 CURVE SMOOTH",
"18 84 OFFCURVE",
"6 49 OFFCURVE",
"6 18 CURVE SMOOTH",
"6 -12 OFFCURVE",
"20 -27 OFFCURVE",
"48 -27 CURVE SMOOTH",
"92 -27 OFFCURVE",
"144 22 OFFCURVE",
"205 120 CURVE",
"182 73 OFFCURVE",
"153 5 OFFCURVE",
"120 -86 CURVE SMOOTH",
"87 -177 OFFCURVE",
"71 -229 OFFCURVE",
"71 -244 CURVE SMOOTH",
"71 -259 OFFCURVE",
"78 -272 OFFCURVE",
"92 -283 CURVE SMOOTH",
"120 -304 OFFCURVE",
"143 -302 OFFCURVE",
"155 -291 CURVE SMOOTH",
"161 -286 OFFCURVE",
"170 -273 OFFCURVE",
"181 -253 CURVE SMOOTH",
"202 -209 LINE SMOOTH",
"229 -156 OFFCURVE",
"242 -105 OFFCURVE",
"242 -56 CURVE SMOOTH",
"242 -8 OFFCURVE",
"231 26 OFFCURVE",
"210 45 CURVE",
"227 85 OFFCURVE",
"245 121 OFFCURVE",
"266 152 CURVE SMOOTH",
"287 183 OFFCURVE",
"301 199 OFFCURVE",
"308 199 CURVE SMOOTH"
);
},
{
closed = 1;
nodes = (
"227 -115 OFFCURVE",
"203 -182 OFFCURVE",
"155 -242 CURVE SMOOTH",
"140 -261 OFFCURVE",
"130 -270 OFFCURVE",
"124 -270 CURVE SMOOTH",
"120 -270 OFFCURVE",
"118 -265 OFFCURVE",
"118 -256 CURVE SMOOTH",
"118 -213 OFFCURVE",
"146 -118 OFFCURVE",
"203 30 CURVE",
"219 14 OFFCURVE",
"227 -10 OFFCURVE",
"227 -41 CURVE SMOOTH"
);
}
);
width = 276;
}
);
note = q;
unicode = 0071;
},
{
glyphname = r;
layers = (
{
hints = (
{
horizontal = 1;
place = "{-32, 326}";
type = Stem;
},
{
place = "{85, 54}";
type = Stem;
},
{
place = "{212, 41}";
type = Stem;
}
);
layerId = "8B85D65B-9817-42FC-8CCD-19CD4C331E33";
paths = (
{
closed = 1;
nodes = (
"252 278 OFFCURVE",
"237 266 OFFCURVE",
"226 242 CURVE",
"182 220 OFFCURVE",
"142 180 OFFCURVE",
"106 121 CURVE",
"128 189 OFFCURVE",
"139 228 OFFCURVE",
"139 239 CURVE SMOOTH",
"139 276 OFFCURVE",
"117 294 OFFCURVE",
"72 294 CURVE SMOOTH",
"62 294 OFFCURVE",
"57 291 OFFCURVE",
"57 285 CURVE SMOOTH",
"57 282 OFFCURVE",
"62 280 OFFCURVE",
"71 279 CURVE SMOOTH",
"80 278 OFFCURVE",
"85 272 OFFCURVE",
"85 261 CURVE SMOOTH",
"85 226 OFFCURVE",
"74 174 OFFCURVE",
"52 105 CURVE SMOOTH",
"30 36 OFFCURVE",
"19 -4 OFFCURVE",
"19 -15 CURVE SMOOTH",
"19 -24 OFFCURVE",
"38 -32 OFFCURVE",
"50 -32 CURVE SMOOTH",
"62 -32 OFFCURVE",
"65 -15 OFFCURVE",
"73 17 CURVE SMOOTH",
"81 50 OFFCURVE",
"92 88 OFFCURVE",
"135 143 CURVE SMOOTH",
"157 170 OFFCURVE",
"184 197 OFFCURVE",
"217 223 CURVE",
"210 204 OFFCURVE",
"207 175 OFFCURVE",
"226 154 CURVE SMOOTH",
"235 144 OFFCURVE",
"246 139 OFFCURVE",
"259 139 CURVE SMOOTH",
"272 139 OFFCURVE",
"279 142 OFFCURVE",
"279 147 CURVE SMOOTH",
"279 148 OFFCURVE",
"277 149 OFFCURVE",
"272 150 CURVE SMOOTH",
"259 154 OFFCURVE",
"253 165 OFFCURVE",
"253 183 CURVE SMOOTH",
"255 200 OFFCURVE",
"269 226 OFFCURVE",
"294 261 CURVE SMOOTH",
"300 269 OFFCURVE",
"304 274 OFFCURVE",
"305 273 CURVE",
"303 276 OFFCURVE",
"292 278 OFFCURVE",
"273 278 CURVE SMOOTH"
);
}
);
width = 260;
}
);
note = r;
unicode = 0072;
},
{
glyphname = s;
layers = (
{
hints = (
{
horizontal = 1;
place = "{-53, 26}";
type = Stem;
},
{
horizontal = 1;
place = "{240, 48}";
type = Stem;
},
{
place = "{35, 23}";
type = Stem;
},
{
place = "{114, 38}";
type = Stem;
}
);
layerId = "8B85D65B-9817-42FC-8CCD-19CD4C331E33";
paths = (
{
closed = 1;
nodes = (
"233 235 OFFCURVE",
"238 239 OFFCURVE",
"210 267 CURVE SMOOTH",
"196 281 OFFCURVE",
"187 288 OFFCURVE",
"182 288 CURVE SMOOTH",
"153 288 OFFCURVE",
"121 274 OFFCURVE",
"86 246 CURVE SMOOTH",
"52 219 OFFCURVE",
"35 192 OFFCURVE",
"35 165 CURVE SMOOTH",
"35 127 OFFCURVE",
"52 93 OFFCURVE",
"87 62 CURVE SMOOTH",
"105 46 OFFCURVE",
"114 36 OFFCURVE",
"114 31 CURVE SMOOTH",
"114 8 OFFCURVE",
"76 -11 OFFCURVE",
"-1 -27 CURVE",
"-1 -44 OFFCURVE",
"69 -72 OFFCURVE",
"124 -33 CURVE SMOOTH",
"143 -20 OFFCURVE",
"152 -7 OFFCURVE",
"152 6 CURVE SMOOTH",
"152 19 OFFCURVE",
"136 44 OFFCURVE",
"105 79 CURVE SMOOTH",
"74 115 OFFCURVE",
"58 135 OFFCURVE",
"58 140 CURVE SMOOTH",
"58 163 OFFCURVE",
"74 185 OFFCURVE",
"105 207 CURVE SMOOTH",
"137 229 OFFCURVE",
"168 240 OFFCURVE",
"198 240 CURVE SMOOTH",
"202 240 OFFCURVE",
"211 238 OFFCURVE",
"226 235 CURVE"
);
}
);
width = 203;
}
);
note = s;
unicode = 0073;
},
{
glyphname = t;
layers = (
{
hints = (
{
horizontal = 1;
place = "{-49, 16}";
type = Stem;
},
{
horizontal = 1;
place = "{216, 44}";
type = Stem;
},
{
horizontal = 1;
place = "{375, 15}";
type = Stem;
},
{
place = "{5, 36}";
type = Stem;
},
{
place = "{129, 43}";
type = Stem;
}
);
layerId = "8B85D65B-9817-42FC-8CCD-19CD4C331E33";
paths = (
{
closed = 1;
nodes = (
"121 375 LINE",
"126 375 OFFCURVE",
"129 368 OFFCURVE",
"129 353 CURVE SMOOTH",
"129 339 OFFCURVE",
"118 308 OFFCURVE",
"96 259 CURVE",
"76 261 OFFCURVE",
"61 264 OFFCURVE",
"50 269 CURVE",
"47 267 OFFCURVE",
"46 263 OFFCURVE",
"46 258 CURVE SMOOTH",
"46 241 OFFCURVE",
"57 228 OFFCURVE",
"80 219 CURVE",
"59 170 OFFCURVE",
"44 133 OFFCURVE",
"33 109 CURVE SMOOTH",
"14 62 OFFCURVE",
"5 25 OFFCURVE",
"5 -2 CURVE SMOOTH",
"5 -33 OFFCURVE",
"20 -49 OFFCURVE",
"49 -49 CURVE SMOOTH",
"71 -49 OFFCURVE",
"82 -42 OFFCURVE",
"82 -28 CURVE",
"81 -27 LINE",
"53 -33 LINE",
"45 -33 OFFCURVE",
"41 -28 OFFCURVE",
"41 -17 CURVE SMOOTH",
"41 15 OFFCURVE",
"71 92 OFFCURVE",
"132 213 CURVE",
"137 215 OFFCURVE",
"142 216 OFFCURVE",
"146 216 CURVE SMOOTH",
"191 222 OFFCURVE",
"230 238 OFFCURVE",
"261 265 CURVE SMOOTH",
"267 271 OFFCURVE",
"273 282 OFFCURVE",
"240 267 CURVE SMOOTH",
"228 262 OFFCURVE",
"211 260 OFFCURVE",
"190 260 CURVE SMOOTH",
"169 260 OFFCURVE",
"157 261 OFFCURVE",
"154 264 CURVE",
"166 295 OFFCURVE",
"172 320 OFFCURVE",
"172 340 CURVE SMOOTH",
"172 373 OFFCURVE",
"157 390 OFFCURVE",
"128 390 CURVE SMOOTH",
"120 390 OFFCURVE",
"98 384 OFFCURVE",
"98 373 CURVE SMOOTH",
"98 371 OFFCURVE",
"99 370 OFFCURVE",
"101 370 CURVE"
);
}
);
width = 173;
}
);
note = t;
unicode = 0074;
},
{
glyphname = u;
layers = (
{
hints = (
{
horizontal = 1;
place = "{-43, 15}";
type = Stem;
},
{
place = "{6, 45}";
type = Stem;
},
{
place = "{204, 39}";
type = Stem;
},
{
horizontal = 1;
place = "{-38, 27}";
type = Stem;
}
);
layerId = "8B85D65B-9817-42FC-8CCD-19CD4C331E33";
paths = (
{
closed = 1;
nodes = (
"94 260 LINE",
"94 257 OFFCURVE",
"79 224 OFFCURVE",
"50 159 CURVE SMOOTH",
"21 95 OFFCURVE",
"6 49 OFFCURVE",
"6 21 CURVE SMOOTH",
"6 -8 OFFCURVE",
"31 -38 OFFCURVE",
"64 -38 CURVE SMOOTH",
"81 -38 OFFCURVE",
"98 -27 OFFCURVE",
"115 -5 CURVE SMOOTH",
"133 17 OFFCURVE",
"168 70 OFFCURVE",
"220 155 CURVE",
"199 67 OFFCURVE",
"199 19 OFFCURVE",
"220 -16 CURVE SMOOTH",
"231 -34 OFFCURVE",
"247 -43 OFFCURVE",
"266 -43 CURVE SMOOTH",
"286 -43 OFFCURVE",
"296 -34 OFFCURVE",
"296 -17 CURVE SMOOTH",
"296 -12 OFFCURVE",
"295 -9 OFFCURVE",
"294 -9 CURVE",
"279 -22 OFFCURVE",
"270 -28 OFFCURVE",
"265 -28 CURVE SMOOTH",
"250 -28 OFFCURVE",
"243 -8 OFFCURVE",
"243 33 CURVE SMOOTH",
"243 48 OFFCURVE",
"250 79 OFFCURVE",
"265 127 CURVE SMOOTH",
"280 175 OFFCURVE",
"297 216 OFFCURVE",
"316 250 CURVE",
"318 255 OFFCURVE",
"320 257 OFFCURVE",
"321 256 CURVE",
"320 264 OFFCURVE",
"308 269 OFFCURVE",
"285 269 CURVE SMOOTH",
"273 269 OFFCURVE",
"262 261 OFFCURVE",
"253 245 CURVE SMOOTH",
"169 109 LINE SMOOTH",
"150 77 OFFCURVE",
"130 49 OFFCURVE",
"110 25 CURVE SMOOTH",
"90 1 OFFCURVE",
"75 -11 OFFCURVE",
"64 -11 CURVE SMOOTH",
"55 -11 OFFCURVE",
"51 -1 OFFCURVE",
"51 20 CURVE SMOOTH",
"51 41 OFFCURVE",
"66 82 OFFCURVE",
"95 143 CURVE SMOOTH",
"125 204 OFFCURVE",
"143 241 OFFCURVE",
"150 254 CURVE",
"150 259 OFFCURVE",
"142 264 OFFCURVE",
"125 271 CURVE SMOOTH",
"108 278 OFFCURVE",
"97 281 OFFCURVE",
"92 281 CURVE SMOOTH",
"87 281 OFFCURVE",
"85 280 OFFCURVE",
"85 278 CURVE"
);
}
);
width = 311;
}
);
note = u;
unicode = 0075;
},
{
glyphname = v;
layers = (
{
hints = (
{
horizontal = 1;
place = "{246, 17}";
type = Stem;
},
{
horizontal = 1;
place = "{309, -20}";
target = down;
type = TopGhost;
},
{
place = "{60, 48}";
type = Stem;
}
);
layerId = "8B85D65B-9817-42FC-8CCD-19CD4C331E33";
paths = (
{
closed = 1;
nodes = (
"338 305 OFFCURVE",
"334 309 OFFCURVE",
"326 309 CURVE SMOOTH",
"307 309 OFFCURVE",
"279 289 OFFCURVE",
"240 249 CURVE SMOOTH",
"202 210 OFFCURVE",
"159 157 OFFCURVE",
"112 91 CURVE SMOOTH",
"109 86 OFFCURVE",
"106 83 OFFCURVE",
"105 83 CURVE SMOOTH",
"102 83 OFFCURVE",
"101 84 OFFCURVE",
"101 87 CURVE SMOOTH",
"106 124 OFFCURVE",
"108 145 OFFCURVE",
"108 152 CURVE SMOOTH",
"108 226 OFFCURVE",
"87 263 OFFCURVE",
"45 263 CURVE SMOOTH",
"23 263 OFFCURVE",
"12 256 OFFCURVE",
"12 243 CURVE SMOOTH",
"12 234 OFFCURVE",
"15 229 OFFCURVE",
"21 229 CURVE SMOOTH",
"25 229 OFFCURVE",
"32 245 OFFCURVE",
"35 246 CURVE",
"52 245 OFFCURVE",
"60 217 OFFCURVE",
"60 162 CURVE SMOOTH",
"60 143 OFFCURVE",
"55 79 OFFCURVE",
"45 -28 CURVE",
"45 -37 OFFCURVE",
"55 -42 OFFCURVE",
"75 -42 CURVE SMOOTH",
"84 -42 OFFCURVE",
"92 -26 OFFCURVE",
"100 6 CURVE",
"124 71 OFFCURVE",
"159 129 OFFCURVE",
"206 179 CURVE SMOOTH",
"253 230 OFFCURVE",
"296 267 OFFCURVE",
"335 290 CURVE",
"337 292 OFFCURVE",
"338 295 OFFCURVE",
"338 298 CURVE SMOOTH"
);
}
);
width = 227;
}
);
note = v;
unicode = 0076;
},
{
glyphname = w;
layers = (
{
hints = (
{
horizontal = 1;
place = "{-26, 13}";
type = Stem;
},
{
horizontal = 1;
place = "{204, 8}";
type = Stem;
},
{
horizontal = 1;
place = "{252, 10}";
type = Stem;
},
{
place = "{-1, 49}";
type = Stem;
},
{
place = "{234, 53}";
type = Stem;
},
{
place = "{401, 54}";
type = Stem;
},
{
horizontal = 1;
place = "{-37, 29}";
type = Stem;
}
);
layerId = "8B85D65B-9817-42FC-8CCD-19CD4C331E33";
paths = (
{
closed = 1;
nodes = (
"455 232 OFFCURVE",
"434 262 OFFCURVE",
"393 262 CURVE SMOOTH",
"373 262 OFFCURVE",
"361 259 OFFCURVE",
"358 252 CURVE",
"387 243 OFFCURVE",
"401 214 OFFCURVE",
"401 167 CURVE SMOOTH",
"401 130 OFFCURVE",
"392 91 OFFCURVE",
"373 49 CURVE SMOOTH",
"354 8 OFFCURVE",
"336 -13 OFFCURVE",
"318 -13 CURVE SMOOTH",
"297 -13 OFFCURVE",
"287 29 OFFCURVE",
"287 114 CURVE SMOOTH",
"287 174 OFFCURVE",
"288 204 OFFCURVE",
"290 204 CURVE",
"289 209 OFFCURVE",
"280 212 OFFCURVE",
"262 212 CURVE SMOOTH",
"244 212 OFFCURVE",
"234 211 OFFCURVE",
"232 209 CURVE",
"222 187 OFFCURVE",
"193 145 OFFCURVE",
"144 84 CURVE SMOOTH",
"96 23 OFFCURVE",
"67 -8 OFFCURVE",
"57 -8 CURVE SMOOTH",
"51 -8 OFFCURVE",
"48 -2 OFFCURVE",
"48 11 CURVE SMOOTH",
"48 24 OFFCURVE",
"61 59 OFFCURVE",
"87 116 CURVE SMOOTH",
"114 173 OFFCURVE",
"135 212 OFFCURVE",
"151 233 CURVE SMOOTH",
"153 236 LINE",
"153 244 OFFCURVE",
"143 248 OFFCURVE",
"124 225 CURVE SMOOTH",
"41 124 OFFCURVE",
"-1 52 OFFCURVE",
"-1 10 CURVE SMOOTH",
"-1 -15 OFFCURVE",
"14 -37 OFFCURVE",
"37 -37 CURVE SMOOTH",
"62 -37 OFFCURVE",
"88 -23 OFFCURVE",
"113 5 CURVE SMOOTH",
"138 34 OFFCURVE",
"180 94 OFFCURVE",
"238 186 CURVE",
"235 175 OFFCURVE",
"234 161 OFFCURVE",
"234 143 CURVE SMOOTH",
"234 42 OFFCURVE",
"263 -26 OFFCURVE",
"315 -26 CURVE SMOOTH",
"352 -26 OFFCURVE",
"385 -5 OFFCURVE",
"413 36 CURVE SMOOTH",
"441 77 OFFCURVE",
"455 122 OFFCURVE",
"455 171 CURVE SMOOTH"
);
}
);
width = 453;
}
);
note = w;
unicode = 0077;
},
{
glyphname = x;
layers = (
{
hints = (
{
horizontal = 1;
place = "{-49, 28}";
type = Stem;
},
{
place = "{109, 46}";
type = Stem;
}
);
layerId = "8B85D65B-9817-42FC-8CCD-19CD4C331E33";
paths = (
{
closed = 1;
nodes = (
"333 280 OFFCURVE",
"327 287 OFFCURVE",
"315 287 CURVE SMOOTH",
"313 287 OFFCURVE",
"289 265 OFFCURVE",
"242 221 CURVE SMOOTH",
"196 177 OFFCURVE",
"167 148 OFFCURVE",
"155 135 CURVE",
"147 210 OFFCURVE",
"141 249 OFFCURVE",
"137 254 CURVE",
"134 261 OFFCURVE",
"121 264 OFFCURVE",
"97 264 CURVE SMOOTH",
"74 264 OFFCURVE",
"62 261 OFFCURVE",
"62 254 CURVE SMOOTH",
"62 253 OFFCURVE",
"89 252 OFFCURVE",
"104 186 CURVE",
"114 105 LINE",
"115 105 OFFCURVE",
"94 81 OFFCURVE",
"66 49 CURVE SMOOTH",
"-8 -36 OFFCURVE",
"-45 -84 OFFCURVE",
"-45 -95 CURVE SMOOTH",
"-45 -101 OFFCURVE",
"-42 -104 OFFCURVE",
"-36 -104 CURVE SMOOTH",
"-33 -104 OFFCURVE",
"-16 -83 OFFCURVE",
"14 -41 CURVE SMOOTH",
"26 -24 OFFCURVE",
"38 -9 OFFCURVE",
"49 4 CURVE SMOOTH",
"60 17 OFFCURVE",
"84 42 OFFCURVE",
"120 79 CURVE",
"140 -18 OFFCURVE",
"154 -49 OFFCURVE",
"190 -49 CURVE SMOOTH",
"201 -49 OFFCURVE",
"216 -45 OFFCURVE",
"235 -36 CURVE SMOOTH",
"254 -27 OFFCURVE",
"264 -20 OFFCURVE",
"264 -13 CURVE SMOOTH",
"264 -11 OFFCURVE",
"263 -10 OFFCURVE",
"261 -10 CURVE",
"244 -17 OFFCURVE",
"233 -21 OFFCURVE",
"228 -21 CURVE SMOOTH",
"193 -21 OFFCURVE",
"170 22 OFFCURVE",
"159 108 CURVE",
"223 169 OFFCURVE",
"276 215 OFFCURVE",
"317 248 CURVE SMOOTH",
"328 256 OFFCURVE",
"333 262 OFFCURVE",
"333 267 CURVE SMOOTH"
);
}
);
width = 284;
}
);
note = x;
unicode = 0078;
},
{
glyphname = y;
layers = (
{
hints = (
{
horizontal = 1;
place = "{-476, 10}";
type = Stem;
},
{
horizontal = 1;
place = "{244, 7}";
type = Stem;
},
{
place = "{-183, 22}";
type = Stem;
},
{
place = "{82, 54}";
type = Stem;
},
{
place = "{257, 48}";
type = Stem;
},
{
horizontal = 1;
place = "{278, 16}";
type = Stem;
}
);
layerId = "8B85D65B-9817-42FC-8CCD-19CD4C331E33";
paths = (
{
closed = 1;
nodes = (
"305 199 OFFCURVE",
"304 214 OFFCURVE",
"301 231 CURVE SMOOTH",
"299 241 OFFCURVE",
"283 248 OFFCURVE",
"253 251 CURVE",
"258 256 OFFCURVE",
"261 261 OFFCURVE",
"261 267 CURVE",
"250 267 OFFCURVE",
"222 243 OFFCURVE",
"177 195 CURVE SMOOTH",
"133 148 OFFCURVE",
"99 108 OFFCURVE",
"76 76 CURVE",
"116 174 OFFCURVE",
"136 231 OFFCURVE",
"136 246 CURVE SMOOTH",
"136 278 OFFCURVE",
"115 294 OFFCURVE",
"72 294 CURVE SMOOTH",
"61 294 OFFCURVE",
"56 291 OFFCURVE",
"56 285 CURVE SMOOTH",
"56 278 OFFCURVE",
"76 281 OFFCURVE",
"79 278 CURVE",
"81 277 OFFCURVE",
"82 272 OFFCURVE",
"82 265 CURVE SMOOTH",
"82 261 LINE SMOOTH",
"81 234 OFFCURVE",
"76 208 OFFCURVE",
"67 181 CURVE SMOOTH",
"39 104 LINE SMOOTH",
"12 31 OFFCURVE",
"-2 -8 OFFCURVE",
"-1 -15 CURVE SMOOTH",
"-1 -26 OFFCURVE",
"9 -32 OFFCURVE",
"29 -32 CURVE SMOOTH",
"38 -32 OFFCURVE",
"48 -18 OFFCURVE",
"59 10 CURVE",
"94 73 OFFCURVE",
"156 151 OFFCURVE",
"245 244 CURVE",
"253 235 OFFCURVE",
"257 219 OFFCURVE",
"257 196 CURVE SMOOTH",
"257 134 OFFCURVE",
"235 50 OFFCURVE",
"191 -55 CURVE SMOOTH",
"148 -161 OFFCURVE",
"95 -256 OFFCURVE",
"34 -340 CURVE SMOOTH",
"-27 -424 OFFCURVE",
"-80 -466 OFFCURVE",
"-123 -466 CURVE SMOOTH",
"-148 -466 OFFCURVE",
"-161 -450 OFFCURVE",
"-161 -418 CURVE SMOOTH",
"-161 -335 OFFCURVE",
"-48 -199 OFFCURVE",
"177 -12 CURVE",
"187 0 OFFCURVE",
"190 6 OFFCURVE",
"187 6 CURVE",
"94 -47 OFFCURVE",
"9 -117 OFFCURVE",
"-70 -206 CURVE SMOOTH",
"-145 -290 OFFCURVE",
"-183 -358 OFFCURVE",
"-183 -411 CURVE SMOOTH",
"-183 -454 OFFCURVE",
"-161 -476 OFFCURVE",
"-117 -476 CURVE SMOOTH",
"-66 -476 OFFCURVE",
"-7 -436 OFFCURVE",
"62 -357 CURVE SMOOTH",
"131 -278 OFFCURVE",
"190 -181 OFFCURVE",
"239 -66 CURVE SMOOTH",
"283 39 OFFCURVE",
"305 124 OFFCURVE",
"305 188 CURVE SMOOTH"
);
}
);
width = 292;
}
);
note = y;
unicode = 0079;
},
{
glyphname = z;
layers = (
{
hints = (
{
horizontal = 1;
place = "{1, 32}";
type = Stem;
},
{
horizontal = 1;
place = "{238, 29}";
type = Stem;
},
{
place = "{314, 11}";
type = Stem;
},
{
place = "{316, 15}";
type = Stem;
}
);
layerId = "8B85D65B-9817-42FC-8CCD-19CD4C331E33";
paths = (
{
closed = 1;
nodes = (
"106 252 LINE SMOOTH",
"105 252 OFFCURVE",
"102 254 OFFCURVE",
"98 257 CURVE",
"90 250 OFFCURVE",
"86 239 OFFCURVE",
"86 225 CURVE SMOOTH",
"86 212 OFFCURVE",
"90 205 OFFCURVE",
"98 205 CURVE SMOOTH",
"106 205 OFFCURVE",
"134 210 OFFCURVE",
"183 221 CURVE SMOOTH",
"232 232 OFFCURVE",
"264 238 OFFCURVE",
"279 238 CURVE SMOOTH",
"295 238 OFFCURVE",
"307 232 OFFCURVE",
"316 221 CURVE",
"315 216 OFFCURVE",
"268 183 OFFCURVE",
"177 121 CURVE SMOOTH",
"86 60 OFFCURVE",
"40 24 OFFCURVE",
"40 13 CURVE",
"35 6 OFFCURVE",
"28 2 OFFCURVE",
"19 1 CURVE",
"18 0 LINE SMOOTH",
"6 -16 OFFCURVE",
"8 -39 OFFCURVE",
"12 -39 CURVE",
"73 -12 OFFCURVE",
"139 1 OFFCURVE",
"209 1 CURVE SMOOTH",
"279 1 OFFCURVE",
"314 -11 OFFCURVE",
"314 -34 CURVE SMOOTH",
"314 -37 OFFCURVE",
"310 -49 OFFCURVE",
"302 -72 CURVE",
"302 -75 OFFCURVE",
"303 -76 OFFCURVE",
"305 -76 CURVE SMOOTH",
"318 -76 OFFCURVE",
"325 -63 OFFCURVE",
"325 -37 CURVE SMOOTH",
"325 10 OFFCURVE",
"300 33 OFFCURVE",
"249 33 CURVE SMOOTH",
"180 33 OFFCURVE",
"132 29 OFFCURVE",
"105 22 CURVE",
"273 141 LINE SMOOTH",
"312 168 OFFCURVE",
"331 184 OFFCURVE",
"331 187 CURVE SMOOTH",
"331 236 OFFCURVE",
"301 267 OFFCURVE",
"262 267 CURVE"
);
}
);
width = 334;
}
);
note = z;
unicode = 007A;
},
{
glyphname = braceleft;
layers = (
{
hints = (
{
horizontal = 1;
place = "{-119, 15}";
type = Stem;
},
{
horizontal = 1;
place = "{445, 11}";
type = Stem;
},
{
place = "{60, 49}";
type = Stem;
},
{
place = "{88, 46}";
type = Stem;
}
);
layerId = "8B85D65B-9817-42FC-8CCD-19CD4C331E33";
paths = (
{
closed = 1;
nodes = (
"134 134 OFFCURVE",
"111 156 OFFCURVE",
"65 173 CURVE",
"88 179 OFFCURVE",
"108 189 OFFCURVE",
"127 204 CURVE SMOOTH",
"142 215 OFFCURVE",
"156 242 OFFCURVE",
"163 255 CURVE SMOOTH",
"167 262 OFFCURVE",
"171 272 OFFCURVE",
"175 287 CURVE SMOOTH",
"180 302 OFFCURVE",
"183 312 OFFCURVE",
"184 318 CURVE SMOOTH",
"191 353 LINE SMOOTH",
"194 370 OFFCURVE",
"197 381 OFFCURVE",
"198 386 CURVE",
"213 425 OFFCURVE",
"244 445 OFFCURVE",
"293 445 CURVE",
"303 448 LINE",
"301 453 OFFCURVE",
"298 456 OFFCURVE",
"294 456 CURVE SMOOTH",
"229 456 OFFCURVE",
"186 439 OFFCURVE",
"164 404 CURVE SMOOTH",
"140 367 OFFCURVE",
"132 332 OFFCURVE",
"124 269 CURVE",
"112 208 OFFCURVE",
"88 186 OFFCURVE",
"15 181 CURVE",
"6 168 LINE",
"61 168 OFFCURVE",
"88 148 OFFCURVE",
"88 108 CURVE SMOOTH",
"88 98 OFFCURVE",
"83 71 OFFCURVE",
"74 27 CURVE SMOOTH",
"65 -16 OFFCURVE",
"60 -43 OFFCURVE",
"60 -53 CURVE SMOOTH",
"60 -97 OFFCURVE",
"97 -119 OFFCURVE",
"172 -119 CURVE SMOOTH",
"176 -119 OFFCURVE",
"181 -118 OFFCURVE",
"186 -115 CURVE",
"180 -108 LINE",
"129 -100 LINE",
"116 -93 OFFCURVE",
"109 -78 OFFCURVE",
"109 -56 CURVE SMOOTH",
"109 -46 OFFCURVE",
"113 -19 OFFCURVE",
"121 24 CURVE SMOOTH",
"130 68 OFFCURVE",
"134 95 OFFCURVE",
"134 105 CURVE SMOOTH"
);
}
);
width = 243;
}
);
note = braceleft;
unicode = 007B;
},
{
glyphname = bar;
layers = (
{
hints = (
{
horizontal = 1;
place = "{-104, 549}";
type = Stem;
},
{
place = "{90, 29}";
type = Stem;
}
);
layerId = "8B85D65B-9817-42FC-8CCD-19CD4C331E33";
paths = (
{
closed = 1;
nodes = (
"80 445 OFFCURVE",
"76 442 OFFCURVE",
"76 437 CURVE",
"85 412 OFFCURVE",
"90 368 OFFCURVE",
"90 305 CURVE SMOOTH",
"90 179 OFFCURVE",
"77 61 OFFCURVE",
"50 -50 CURVE SMOOTH",
"44 -77 OFFCURVE",
"40 -94 OFFCURVE",
"39 -103 CURVE",
"40 -104 LINE",
"52 -102 OFFCURVE",
"62 -85 OFFCURVE",
"70 -53 CURVE SMOOTH",
"79 -21 OFFCURVE",
"89 48 OFFCURVE",
"101 154 CURVE SMOOTH",
"113 260 OFFCURVE",
"119 335 OFFCURVE",
"119 379 CURVE SMOOTH",
"119 423 OFFCURVE",
"109 445 OFFCURVE",
"89 445 CURVE SMOOTH"
);
}
);
width = 165;
}
);
note = bar;
unicode = 007C;
},
{
glyphname = braceright;
layers = (
{
hints = (
{
horizontal = 1;
place = "{-113, 11}";
type = Stem;
},
{
horizontal = 1;
place = "{446, 15}";
type = Stem;
},
{
place = "{218, 48}";
type = Stem;
},
{
place = "{193, 47}";
type = Stem;
}
);
layerId = "8B85D65B-9817-42FC-8CCD-19CD4C331E33";
paths = (
{
closed = 1;
nodes = (
"94 -113 OFFCURVE",
"136 -98 OFFCURVE",
"158 -68 CURVE SMOOTH",
"180 -39 OFFCURVE",
"195 9 OFFCURVE",
"202 74 CURVE",
"208 104 OFFCURVE",
"218 125 OFFCURVE",
"233 137 CURVE SMOOTH",
"248 149 OFFCURVE",
"274 157 OFFCURVE",
"312 162 CURVE",
"320 174 LINE",
"267 175 OFFCURVE",
"240 195 OFFCURVE",
"240 234 CURVE SMOOTH",
"240 244 OFFCURVE",
"244 271 OFFCURVE",
"253 314 CURVE SMOOTH",
"262 358 OFFCURVE",
"266 385 OFFCURVE",
"266 395 CURVE SMOOTH",
"266 439 OFFCURVE",
"229 461 OFFCURVE",
"154 461 CURVE SMOOTH",
"151 461 OFFCURVE",
"146 460 OFFCURVE",
"140 457 CURVE",
"147 450 LINE",
"197 442 LINE",
"211 435 OFFCURVE",
"218 421 OFFCURVE",
"218 398 CURVE SMOOTH",
"218 388 OFFCURVE",
"214 361 OFFCURVE",
"205 317 CURVE SMOOTH",
"197 274 OFFCURVE",
"193 247 OFFCURVE",
"193 238 CURVE SMOOTH",
"193 209 OFFCURVE",
"216 186 OFFCURVE",
"261 170 CURVE",
"238 164 OFFCURVE",
"218 153 OFFCURVE",
"199 138 CURVE SMOOTH",
"184 126 OFFCURVE",
"170 101 OFFCURVE",
"162 86 CURVE SMOOTH",
"159 79 OFFCURVE",
"155 69 OFFCURVE",
"150 54 CURVE SMOOTH",
"146 40 OFFCURVE",
"142 22 OFFCURVE",
"137 0 CURVE SMOOTH",
"128 -44 LINE",
"113 -83 OFFCURVE",
"82 -102 OFFCURVE",
"33 -102 CURVE",
"24 -106 LINE",
"27 -111 OFFCURVE",
"29 -113 OFFCURVE",
"32 -113 CURVE SMOOTH"
);
}
);
width = 320;
}
);
note = braceright;
unicode = 007D;
},
{
glyphname = asciitilde;
layers = (
{
hints = (
{
horizontal = 1;
place = "{292, 20}";
type = Stem;
},
{
place = "{36, 166}";
type = Stem;
},
{
horizontal = 1;
place = "{272, 24}";
type = Stem;
}
);
layerId = "8B85D65B-9817-42FC-8CCD-19CD4C331E33";
paths = (
{
closed = 1;
nodes = (
"95 312 LINE",
"62 312 OFFCURVE",
"36 279 OFFCURVE",
"36 275 CURVE",
"37 273 LINE",
"38 273 OFFCURVE",
"65 292 OFFCURVE",
"78 292 CURVE",
"152 272 LINE",
"171 272 OFFCURVE",
"189 286 OFFCURVE",
"196 298 CURVE SMOOTH",
"204 310 OFFCURVE",
"203 313 OFFCURVE",
"198 313 CURVE",
"189 302 OFFCURVE",
"179 296 OFFCURVE",
"167 296 CURVE"
);
}
);
width = 228;
}
);
note = asciitilde;
unicode = 007E;
},
{
glyphname = exclamdown;
layers = (
{
hints = (
{
horizontal = 1;
place = "{186, 13}";
type = Stem;
},
{
place = "{-42, 253}";
type = Stem;
}
);
layerId = "8B85D65B-9817-42FC-8CCD-19CD4C331E33";
paths = (
{
closed = 1;
nodes = (
"211 259 OFFCURVE",
"208 262 OFFCURVE",
"202 262 CURVE",
"157 218 OFFCURVE",
"134 197 OFFCURVE",
"134 199 CURVE SMOOTH",
"134 190 OFFCURVE",
"145 186 OFFCURVE",
"167 186 CURVE SMOOTH",
"192 186 OFFCURVE",
"211 217 OFFCURVE",
"211 252 CURVE SMOOTH"
);
},
{
closed = 1;
nodes = (
"158 142 OFFCURVE",
"156 146 OFFCURVE",
"152 146 CURVE SMOOTH",
"148 146 OFFCURVE",
"137 128 OFFCURVE",
"118 92 CURVE SMOOTH",
"62 -17 LINE SMOOTH",
"49 -44 OFFCURVE",
"15 -100 OFFCURVE",
"-42 -186 CURVE",
"-42 -195 OFFCURVE",
"-9 -201 OFFCURVE",
"11 -201 CURVE SMOOTH",
"26 -201 OFFCURVE",
"54 -151 OFFCURVE",
"95 -50 CURVE SMOOTH",
"137 50 OFFCURVE",
"158 112 OFFCURVE",
"158 135 CURVE SMOOTH"
);
}
);
width = 223;
}
);
note = exclamdown;
unicode = 00A1;
},
{
glyphname = cent;
layers = (
{
hints = (
{
horizontal = 1;
place = "{148, 23}";
type = Stem;
},
{
horizontal = 1;
place = "{314, -20}";
target = down;
type = TopGhost;
},
{
horizontal = 1;
place = "{436, 26}";
type = Stem;
},
{
horizontal = 1;
place = "{568, 15}";
type = Stem;
},
{
place = "{56, 41}";
type = Stem;
},
{
place = "{266, 30}";
type = Stem;
},
{
place = "{37, 18}";
type = Stem;
}
);
layerId = "8B85D65B-9817-42FC-8CCD-19CD4C331E33";
paths = (
{
closed = 1;
nodes = (
"76 -48 OFFCURVE",
"55 -43 OFFCURVE",
"55 -24 CURVE SMOOTH",
"55 -5 OFFCURVE",
"83 53 OFFCURVE",
"139 148 CURVE",
"141 148 LINE SMOOTH",
"186 148 OFFCURVE",
"244 199 OFFCURVE",
"315 301 CURVE",
"318 309 OFFCURVE",
"319 314 OFFCURVE",
"311 314 CURVE SMOOTH",
"310 314 OFFCURVE",
"297 301 OFFCURVE",
"272 274 CURVE SMOOTH",
"247 247 OFFCURVE",
"226 225 OFFCURVE",
"207 208 CURVE SMOOTH",
"176 183 OFFCURVE",
"150 171 OFFCURVE",
"128 171 CURVE SMOOTH",
"87 171 OFFCURVE",
"85 233 OFFCURVE",
"133 313 CURVE SMOOTH",
"157 353 OFFCURVE",
"185 387 OFFCURVE",
"218 414 CURVE SMOOTH",
"235 429 OFFCURVE",
"249 436 OFFCURVE",
"258 436 CURVE SMOOTH",
"269 436 OFFCURVE",
"270 410 OFFCURVE",
"254 374 CURVE",
"255 371 OFFCURVE",
"258 369 OFFCURVE",
"264 369 CURVE SMOOTH",
"285 369 OFFCURVE",
"296 385 OFFCURVE",
"296 416 CURVE SMOOTH",
"296 427 OFFCURVE",
"289 438 OFFCURVE",
"274 448 CURVE",
"273 448 LINE",
"304 528 OFFCURVE",
"332 568 OFFCURVE",
"356 568 CURVE SMOOTH",
"360 568 OFFCURVE",
"363 567 OFFCURVE",
"365 566 CURVE",
"368 566 OFFCURVE",
"369 567 OFFCURVE",
"369 570 CURVE SMOOTH",
"369 579 OFFCURVE",
"362 583 OFFCURVE",
"349 583 CURVE SMOOTH",
"334 583 OFFCURVE",
"308 560 OFFCURVE",
"296 543 CURVE SMOOTH",
"285 527 OFFCURVE",
"265 489 OFFCURVE",
"246 461 CURVE",
"243 462 OFFCURVE",
"239 462 OFFCURVE",
"233 462 CURVE SMOOTH",
"208 462 OFFCURVE",
"182 447 OFFCURVE",
"153 418 CURVE SMOOTH",
"124 389 OFFCURVE",
"101 357 OFFCURVE",
"83 320 CURVE SMOOTH",
"65 283 OFFCURVE",
"56 253 OFFCURVE",
"56 228 CURVE SMOOTH",
"56 188 OFFCURVE",
"72 163 OFFCURVE",
"103 153 CURVE",
"59 65 OFFCURVE",
"37 10 OFFCURVE",
"37 -13 CURVE SMOOTH",
"37 -36 OFFCURVE",
"44 -48 OFFCURVE",
"57 -48 CURVE SMOOTH"
);
}
);
width = 310;
}
);
note = cent;
unicode = 00A2;
},
{
glyphname = sterling;
layers = (
{
hints = (
{
horizontal = 1;
place = "{-47, 13}";
type = Stem;
},
{
horizontal = 1;
place = "{34, 22}";
type = Stem;
},
{
horizontal = 1;
place = "{150, 17}";
type = Stem;
},
{
horizontal = 1;
place = "{370, 26}";
type = Stem;
},
{
place = "{11, 22}";
type = Stem;
},
{
place = "{478, 17}";
type = Stem;
},
{
horizontal = 1;
place = "{-87, 34}";
type = Stem;
},
{
place = "{485, 13}";
type = Stem;
}
);
layerId = "8B85D65B-9817-42FC-8CCD-19CD4C331E33";
paths = (
{
closed = 1;
nodes = (
"498 1 OFFCURVE",
"494 10 OFFCURVE",
"487 21 CURVE SMOOTH",
"480 32 OFFCURVE",
"474 38 OFFCURVE",
"469 38 CURVE SMOOTH",
"465 38 OFFCURVE",
"463 37 OFFCURVE",
"463 35 CURVE",
"478 17 OFFCURVE",
"485 5 OFFCURVE",
"485 0 CURVE SMOOTH",
"485 -35 OFFCURVE",
"450 -53 OFFCURVE",
"381 -53 CURVE SMOOTH",
"358 -53 OFFCURVE",
"329 -48 OFFCURVE",
"296 -39 CURVE SMOOTH",
"263 -30 OFFCURVE",
"237 -21 OFFCURVE",
"220 -11 CURVE",
"235 2 OFFCURVE",
"246 17 OFFCURVE",
"254 33 CURVE SMOOTH",
"263 50 OFFCURVE",
"280 89 OFFCURVE",
"307 150 CURVE",
"428 150 LINE SMOOTH",
"439 150 OFFCURVE",
"444 154 OFFCURVE",
"444 162 CURVE SMOOTH",
"444 165 OFFCURVE",
"443 167 OFFCURVE",
"440 167 CURVE SMOOTH",
"314 167 LINE",
"347 247 OFFCURVE",
"374 301 OFFCURVE",
"395 328 CURVE SMOOTH",
"416 356 OFFCURVE",
"437 370 OFFCURVE",
"458 370 CURVE SMOOTH",
"485 370 OFFCURVE",
"488 327 OFFCURVE",
"447 275 CURVE",
"424 250 LINE",
"424 246 OFFCURVE",
"426 246 OFFCURVE",
"434 249 CURVE SMOOTH",
"475 269 OFFCURVE",
"495 298 OFFCURVE",
"495 336 CURVE SMOOTH",
"495 369 OFFCURVE",
"475 396 OFFCURVE",
"447 396 CURVE SMOOTH",
"414 396 OFFCURVE",
"382 374 OFFCURVE",
"351 329 CURVE SMOOTH",
"321 284 OFFCURVE",
"295 230 OFFCURVE",
"274 167 CURVE",
"170 167 LINE SMOOTH",
"161 167 OFFCURVE",
"156 163 OFFCURVE",
"156 154 CURVE SMOOTH",
"156 151 OFFCURVE",
"159 150 OFFCURVE",
"164 150 CURVE SMOOTH",
"267 150 LINE",
"244 82 OFFCURVE",
"219 30 OFFCURVE",
"193 -6 CURVE",
"112 35 OFFCURVE",
"60 56 OFFCURVE",
"35 56 CURVE SMOOTH",
"19 56 OFFCURVE",
"11 49 OFFCURVE",
"11 35 CURVE SMOOTH",
"9 -34 OFFCURVE",
"124 -78 OFFCURVE",
"208 -20 CURVE",
"295 -65 OFFCURVE",
"364 -87 OFFCURVE",
"413 -87 CURVE SMOOTH",
"461 -87 OFFCURVE",
"498 -53 OFFCURVE",
"498 -6 CURVE SMOOTH"
);
},
{
closed = 1;
nodes = (
"33 37 OFFCURVE",
"43 40 OFFCURVE",
"108 16 CURVE SMOOTH",
"141 4 OFFCURVE",
"162 -6 OFFCURVE",
"173 -15 CURVE",
"136 -40 OFFCURVE",
"93 -40 OFFCURVE",
"58 -15 CURVE SMOOTH",
"41 -2 OFFCURVE",
"33 11 OFFCURVE",
"33 24 CURVE SMOOTH"
);
}
);
width = 507;
}
);
note = sterling;
unicode = 00A3;
},
{
glyphname = currency;
layers = (
{
hints = (
{
horizontal = 1;
place = "{290, 23}";
type = Stem;
},
{
horizontal = 1;
place = "{443, 23}";
type = Stem;
},
{
place = "{90, 34}";
type = Stem;
},
{
place = "{249, 36}";
type = Stem;
}
);
layerId = "8B85D65B-9817-42FC-8CCD-19CD4C331E33";
paths = (
{
closed = 1;
nodes = (
"258 446 LINE",
"225 473 OFFCURVE",
"175 472 OFFCURVE",
"140 449 CURVE",
"93 495 LINE",
"92 495 LINE SMOOTH",
"89 495 OFFCURVE",
"80 468 OFFCURVE",
"80 459 CURVE SMOOTH",
"80 454 OFFCURVE",
"81 451 OFFCURVE",
"82 450 CURVE SMOOTH",
"110 423 LINE",
"83 386 OFFCURVE",
"87 354 OFFCURVE",
"98 333 CURVE",
"52 300 LINE SMOOTH",
"41 292 OFFCURVE",
"44 259 OFFCURVE",
"45 255 CURVE",
"46 255 LINE",
"120 308 LINE",
"153 284 OFFCURVE",
"197 285 OFFCURVE",
"233 306 CURVE",
"286 255 LINE",
"288 255 OFFCURVE",
"291 263 OFFCURVE",
"294 280 CURVE SMOOTH",
"297 292 OFFCURVE",
"296 299 OFFCURVE",
"295 300 CURVE SMOOTH",
"262 331 LINE",
"277 348 OFFCURVE",
"285 368 OFFCURVE",
"285 389 CURVE SMOOTH",
"285 398 OFFCURVE",
"282 408 OFFCURVE",
"277 419 CURVE",
"320 450 LINE SMOOTH",
"325 453 OFFCURVE",
"328 462 OFFCURVE",
"328 475 CURVE SMOOTH",
"328 488 OFFCURVE",
"327 495 OFFCURVE",
"326 495 CURVE"
);
},
{
closed = 1;
nodes = (
"249 379 LINE SMOOTH",
"246 343 OFFCURVE",
"214 313 OFFCURVE",
"181 313 CURVE SMOOTH",
"148 313 OFFCURVE",
"124 337 OFFCURVE",
"124 373 CURVE SMOOTH",
"124 409 OFFCURVE",
"157 443 OFFCURVE",
"192 443 CURVE SMOOTH",
"227 443 OFFCURVE",
"249 418 OFFCURVE",
"249 386 CURVE SMOOTH"
);
}
);
width = 377;
}
);
note = currency;
unicode = 00A4;
},
{
glyphname = yen;
layers = (
{
hints = (
{
horizontal = 1;
place = "{111, 35}";
type = Stem;
},
{
horizontal = 1;
place = "{202, 35}";
type = Stem;
},
{
horizontal = 1;
place = "{510, 11}";
type = Stem;
},
{
place = "{180, 44}";
type = Stem;
},
{
place = "{282, 33}";
type = Stem;
},
{
horizontal = 1;
place = "{-45, 18}";
type = Stem;
},
{
horizontal = 1;
place = "{498, 17}";
type = Stem;
}
);
layerId = "8B85D65B-9817-42FC-8CCD-19CD4C331E33";
paths = (
{
closed = 1;
nodes = (
"382 148 OFFCURVE",
"358 147 OFFCURVE",
"320 147 CURVE SMOOTH",
"262 146 LINE",
"276 182 LINE",
"290 204 LINE",
"374 216 OFFCURVE",
"416 227 OFFCURVE",
"416 237 CURVE SMOOTH",
"416 239 LINE",
"406 238 OFFCURVE",
"382 238 OFFCURVE",
"345 238 CURVE SMOOTH",
"311 238 LINE",
"349 293 OFFCURVE",
"404 352 OFFCURVE",
"475 415 CURVE SMOOTH",
"547 478 OFFCURVE",
"598 510 OFFCURVE",
"629 510 CURVE SMOOTH",
"640 510 OFFCURVE",
"649 506 OFFCURVE",
"656 497 CURVE SMOOTH",
"664 484 LINE",
"672 484 OFFCURVE",
"665 521 OFFCURVE",
"614 521 CURVE SMOOTH",
"559 521 OFFCURVE",
"493 482 OFFCURVE",
"416 404 CURVE SMOOTH",
"358 346 OFFCURVE",
"311 290 OFFCURVE",
"274 237 CURVE",
"269 237 LINE",
"281 275 LINE SMOOTH",
"326 406 OFFCURVE",
"322 467 OFFCURVE",
"294 494 CURVE SMOOTH",
"281 508 OFFCURVE",
"258 515 OFFCURVE",
"227 515 CURVE SMOOTH",
"196 515 OFFCURVE",
"165 499 OFFCURVE",
"134 468 CURVE SMOOTH",
"78 412 OFFCURVE",
"51 365 OFFCURVE",
"65 369 CURVE",
"68 369 OFFCURVE",
"79 380 OFFCURVE",
"98 401 CURVE SMOOTH",
"117 423 OFFCURVE",
"140 445 OFFCURVE",
"166 466 CURVE SMOOTH",
"192 487 OFFCURVE",
"214 498 OFFCURVE",
"232 498 CURVE SMOOTH",
"265 498 OFFCURVE",
"282 479 OFFCURVE",
"282 440 CURVE SMOOTH",
"282 402 OFFCURVE",
"268 334 OFFCURVE",
"239 237 CURVE",
"151 237 LINE SMOOTH",
"139 237 OFFCURVE",
"133 231 OFFCURVE",
"133 219 CURVE SMOOTH",
"133 208 OFFCURVE",
"164 203 OFFCURVE",
"227 202 CURVE",
"207 146 LINE",
"126 146 LINE SMOOTH",
"113 146 OFFCURVE",
"107 140 OFFCURVE",
"107 128 CURVE SMOOTH",
"107 118 OFFCURVE",
"137 112 OFFCURVE",
"196 111 CURVE",
"185 72 OFFCURVE",
"180 39 OFFCURVE",
"180 10 CURVE SMOOTH",
"180 -27 OFFCURVE",
"193 -45 OFFCURVE",
"218 -45 CURVE SMOOTH",
"227 -45 OFFCURVE",
"240 -39 OFFCURVE",
"259 -28 CURVE SMOOTH",
"278 -17 OFFCURVE",
"288 -8 OFFCURVE",
"288 0 CURVE SMOOTH",
"288 3 OFFCURVE",
"287 4 OFFCURVE",
"284 4 CURVE",
"274 -4 OFFCURVE",
"259 -20 OFFCURVE",
"236 -27 CURVE",
"220 -27 OFFCURVE",
"216 16 OFFCURVE",
"249 112 CURVE",
"298 115 OFFCURVE",
"339 123 OFFCURVE",
"373 136 CURVE SMOOTH",
"400 145 OFFCURVE",
"393 147 OFFCURVE",
"392 150 CURVE"
);
}
);
width = 501;
}
);
note = yen;
unicode = 00A5;
},
{
glyphname = section;
layers = (
{
hints = (
{
horizontal = 1;
place = "{-145, 46}";
type = Stem;
},
{
horizontal = 1;
place = "{443, 49}";
type = Stem;
},
{
place = "{30, 25}";
type = Stem;
},
{
place = "{106, 19}";
type = Stem;
},
{
place = "{198, 29}";
type = Stem;
},
{
place = "{270, 27}";
type = Stem;
},
{
place = "{447, 32}";
type = Stem;
}
);
layerId = "8B85D65B-9817-42FC-8CCD-19CD4C331E33";
paths = (
{
closed = 1;
nodes = (
"361 355 LINE",
"370 355 OFFCURVE",
"391 365 OFFCURVE",
"426 384 CURVE SMOOTH",
"461 403 OFFCURVE",
"479 420 OFFCURVE",
"479 433 CURVE SMOOTH",
"478 442 OFFCURVE",
"472 452 OFFCURVE",
"462 463 CURVE SMOOTH",
"437 489 LINE",
"430 491 OFFCURVE",
"422 492 OFFCURVE",
"414 492 CURVE SMOOTH",
"406 492 OFFCURVE",
"371 485 OFFCURVE",
"308 471 CURVE SMOOTH",
"183 440 OFFCURVE",
"114 392 OFFCURVE",
"103 329 CURVE",
"54 298 OFFCURVE",
"30 260 OFFCURVE",
"30 217 CURVE SMOOTH",
"30 188 OFFCURVE",
"37 163 OFFCURVE",
"51 141 CURVE SMOOTH",
"66 120 OFFCURVE",
"100 81 OFFCURVE",
"154 26 CURVE SMOOTH",
"183 -2 OFFCURVE",
"198 -22 OFFCURVE",
"198 -34 CURVE SMOOTH",
"198 -52 OFFCURVE",
"182 -67 OFFCURVE",
"149 -80 CURVE SMOOTH",
"117 -93 OFFCURVE",
"84 -99 OFFCURVE",
"50 -99 CURVE SMOOTH",
"17 -99 OFFCURVE",
"-14 -92 OFFCURVE",
"-42 -79 CURVE",
"-44 -85 LINE",
"-17 -125 OFFCURVE",
"28 -145 OFFCURVE",
"91 -145 CURVE SMOOTH",
"117 -145 LINE SMOOTH",
"176 -145 OFFCURVE",
"227 -112 OFFCURVE",
"227 -69 CURVE",
"268 -60 OFFCURVE",
"297 -22 OFFCURVE",
"297 21 CURVE SMOOTH",
"297 51 OFFCURVE",
"268 97 OFFCURVE",
"211 158 CURVE SMOOTH",
"154 219 OFFCURVE",
"125 262 OFFCURVE",
"125 285 CURVE SMOOTH",
"125 333 OFFCURVE",
"169 374 OFFCURVE",
"257 407 CURVE SMOOTH",
"320 431 OFFCURVE",
"371 443 OFFCURVE",
"412 443 CURVE SMOOTH",
"422 443 LINE SMOOTH",
"439 443 OFFCURVE",
"447 440 OFFCURVE",
"447 434 CURVE SMOOTH",
"447 423 OFFCURVE",
"435 410 OFFCURVE",
"412 395 CURVE SMOOTH",
"361 360 LINE"
);
},
{
closed = 1;
nodes = (
"212 128 OFFCURVE",
"221 119 OFFCURVE",
"223 116 CURVE SMOOTH",
"235 103 LINE SMOOTH",
"240 98 OFFCURVE",
"244 93 OFFCURVE",
"246 90 CURVE SMOOTH",
"254 79 OFFCURVE",
"264 64 OFFCURVE",
"267 50 CURVE",
"275 40 OFFCURVE",
"263 -4 OFFCURVE",
"250 -18 CURVE",
"242 -30 OFFCURVE",
"231 -37 OFFCURVE",
"223 -45 CURVE",
"214 -19 OFFCURVE",
"184 22 OFFCURVE",
"132 77 CURVE SMOOTH",
"81 133 OFFCURVE",
"55 174 OFFCURVE",
"55 200 CURVE SMOOTH",
"55 226 OFFCURVE",
"72 252 OFFCURVE",
"106 278 CURVE",
"114 241 OFFCURVE",
"144 197 OFFCURVE",
"196 144 CURVE SMOOTH"
);
}
);
width = 336;
}
);
note = section;
unicode = 00A7;
},
{
glyphname = dieresis;
layers = (
{
hints = (
{
horizontal = 1;
place = "{270, 80}";
type = Stem;
},
{
place = "{34, 154}";
type = Stem;
}
);
layerId = "8B85D65B-9817-42FC-8CCD-19CD4C331E33";
paths = (
{
closed = 1;
nodes = (
"161 317 OFFCURVE",
"138 295 OFFCURVE",
"118 281 CURVE",
"125 274 OFFCURVE",
"134 270 OFFCURVE",
"147 270 CURVE SMOOTH",
"164 270 OFFCURVE",
"176 288 OFFCURVE",
"184 322 CURVE SMOOTH",
"188 346 LINE SMOOTH",
"188 348 OFFCURVE",
"187 350 OFFCURVE",
"186 350 CURVE"
);
},
{
closed = 1;
nodes = (
"77 317 OFFCURVE",
"54 295 OFFCURVE",
"34 281 CURVE",
"41 274 OFFCURVE",
"50 270 OFFCURVE",
"63 270 CURVE SMOOTH",
"80 270 OFFCURVE",
"92 288 OFFCURVE",
"100 322 CURVE SMOOTH",
"104 346 LINE SMOOTH",
"104 348 OFFCURVE",
"103 350 OFFCURVE",
"102 350 CURVE"
);
}
);
width = 197;
}
);
note = dieresis;
unicode = 00A8;
},
{
glyphname = copyright;
layers = (
{
hints = (
{
horizontal = 1;
place = "{-1, 15}";
type = Stem;
},
{
horizontal = 1;
place = "{60, 17}";
type = Stem;
},
{
horizontal = 1;
place = "{312, -20}";
target = down;
type = TopGhost;
},
{
horizontal = 1;
place = "{352, 15}";
type = Stem;
},
{
place = "{19, 39}";
type = Stem;
},
{
place = "{98, 41}";
type = Stem;
},
{
place = "{341, 14}";
type = Stem;
},
{
place = "{409, 40}";
type = Stem;
},
{
horizontal = 1;
place = "{258, 54}";
type = Stem;
}
);
layerId = "8B85D65B-9817-42FC-8CCD-19CD4C331E33";
paths = (
{
closed = 1;
nodes = (
"449 280 OFFCURVE",
"435 308 OFFCURVE",
"406 331 CURVE SMOOTH",
"378 355 OFFCURVE",
"345 367 OFFCURVE",
"307 367 CURVE SMOOTH",
"269 367 OFFCURVE",
"227 354 OFFCURVE",
"181 327 CURVE SMOOTH",
"136 301 OFFCURVE",
"97 268 OFFCURVE",
"66 227 CURVE SMOOTH",
"35 187 OFFCURVE",
"19 149 OFFCURVE",
"19 112 CURVE SMOOTH",
"19 37 OFFCURVE",
"62 -1 OFFCURVE",
"147 -1 CURVE SMOOTH",
"219 -1 OFFCURVE",
"287 25 OFFCURVE",
"352 76 CURVE SMOOTH",
"417 128 OFFCURVE",
"449 185 OFFCURVE",
"449 247 CURVE SMOOTH"
);
},
{
closed = 1;
nodes = (
"409 184 OFFCURVE",
"383 131 OFFCURVE",
"331 84 CURVE SMOOTH",
"280 37 OFFCURVE",
"223 14 OFFCURVE",
"162 14 CURVE SMOOTH",
"93 14 OFFCURVE",
"58 47 OFFCURVE",
"58 112 CURVE SMOOTH",
"58 167 OFFCURVE",
"85 220 OFFCURVE",
"138 273 CURVE SMOOTH",
"192 326 OFFCURVE",
"247 352 OFFCURVE",
"302 352 CURVE SMOOTH",
"366 352 OFFCURVE",
"409 306 OFFCURVE",
"409 242 CURVE SMOOTH"
);
},
{
closed = 1;
nodes = (
"355 302 OFFCURVE",
"343 312 OFFCURVE",
"318 312 CURVE SMOOTH",
"270 312 OFFCURVE",
"221 289 OFFCURVE",
"172 242 CURVE SMOOTH",
"123 196 OFFCURVE",
"98 151 OFFCURVE",
"98 108 CURVE SMOOTH",
"98 76 OFFCURVE",
"119 60 OFFCURVE",
"162 60 CURVE SMOOTH",
"187 60 OFFCURVE",
"219 68 OFFCURVE",
"257 85 CURVE SMOOTH",
"295 102 OFFCURVE",
"314 117 OFFCURVE",
"314 132 CURVE",
"311 135 LINE",
"246 96 OFFCURVE",
"199 77 OFFCURVE",
"170 77 CURVE SMOOTH",
"149 77 OFFCURVE",
"139 87 OFFCURVE",
"139 106 CURVE SMOOTH",
"139 149 OFFCURVE",
"159 193 OFFCURVE",
"200 238 CURVE SMOOTH",
"241 283 OFFCURVE",
"280 306 OFFCURVE",
"315 306 CURVE SMOOTH",
"332 306 OFFCURVE",
"341 297 OFFCURVE",
"341 279 CURVE SMOOTH",
"341 278 OFFCURVE",
"340 272 OFFCURVE",
"337 261 CURVE",
"341 258 LINE",
"350 259 OFFCURVE",
"355 267 OFFCURVE",
"355 282 CURVE SMOOTH"
);
}
);
width = 480;
}
);
note = copyright;
unicode = 00A9;
},
{
glyphname = ordfeminine;
layers = (
{
hints = (
{
horizontal = 1;
place = "{414, 7}";
type = Stem;
},
{
horizontal = 1;
place = "{700, 23}";
type = Stem;
},
{
place = "{6, 42}";
type = Stem;
},
{
place = "{201, 42}";
type = Stem;
},
{
place = "{300, 12}";
type = Stem;
},
{
horizontal = 1;
place = "{413, 32}";
type = Stem;
}
);
layerId = "8B85D65B-9817-42FC-8CCD-19CD4C331E33";
paths = (
{
closed = 1;
nodes = (
"269 421 LINE",
"252 421 OFFCURVE",
"243 439 OFFCURVE",
"243 474 CURVE SMOOTH",
"243 510 OFFCURVE",
"254 551 OFFCURVE",
"276 598 CURVE SMOOTH",
"285 615 OFFCURVE",
"290 623 OFFCURVE",
"290 624 CURVE SMOOTH",
"290 628 OFFCURVE",
"285 633 OFFCURVE",
"274 639 CURVE SMOOTH",
"263 646 OFFCURVE",
"256 649 OFFCURVE",
"253 649 CURVE SMOOTH",
"250 649 OFFCURVE",
"248 648 OFFCURVE",
"247 647 CURVE SMOOTH",
"151 512 OFFCURVE",
"88 445 OFFCURVE",
"58 445 CURVE SMOOTH",
"51 445 OFFCURVE",
"48 451 OFFCURVE",
"48 463 CURVE SMOOTH",
"48 496 OFFCURVE",
"72 544 OFFCURVE",
"121 606 CURVE SMOOTH",
"170 669 OFFCURVE",
"214 700 OFFCURVE",
"251 700 CURVE SMOOTH",
"272 700 OFFCURVE",
"289 687 OFFCURVE",
"300 662 CURVE",
"300 661 OFFCURVE",
"301 660 OFFCURVE",
"303 660 CURVE SMOOTH",
"309 660 OFFCURVE",
"312 664 OFFCURVE",
"312 671 CURVE SMOOTH",
"312 703 OFFCURVE",
"272 723 OFFCURVE",
"223 723 CURVE SMOOTH",
"213 723 LINE SMOOTH",
"176 723 OFFCURVE",
"133 691 OFFCURVE",
"82 627 CURVE SMOOTH",
"31 563 OFFCURVE",
"6 511 OFFCURVE",
"6 472 CURVE SMOOTH",
"6 443 OFFCURVE",
"32 413 OFFCURVE",
"59 413 CURVE SMOOTH",
"90 413 OFFCURVE",
"133 455 OFFCURVE",
"188 539 CURVE SMOOTH",
"204 563 OFFCURVE",
"213 576 OFFCURVE",
"214 579 CURVE SMOOTH",
"196 516 OFFCURVE",
"196 464 OFFCURVE",
"216 435 CURVE SMOOTH",
"227 421 OFFCURVE",
"240 414 OFFCURVE",
"256 414 CURVE SMOOTH",
"273 414 OFFCURVE",
"281 417 OFFCURVE",
"281 422 CURVE",
"279 423 LINE"
);
}
);
width = 282;
}
);
note = ordfeminine;
unicode = 00AA;
},
{
glyphname = guillemotleft;
layers = (
{
hints = (
{
horizontal = 1;
place = "{56, 234}";
type = Stem;
},
{
place = "{54, 311}";
type = Stem;
}
);
layerId = "8B85D65B-9817-42FC-8CCD-19CD4C331E33";
paths = (
{
closed = 1;
nodes = (
"242 290 OFFCURVE",
"217 296 OFFCURVE",
"205 284 CURVE SMOOTH",
"201 280 OFFCURVE",
"170 261 OFFCURVE",
"146 242 CURVE SMOOTH",
"106 211 OFFCURVE",
"58 174 OFFCURVE",
"57 167 CURVE",
"52 165 OFFCURVE",
"54 152 OFFCURVE",
"58 149 CURVE SMOOTH",
"76 138 OFFCURVE",
"101 121 OFFCURVE",
"111 109 CURVE SMOOTH",
"136 81 OFFCURVE",
"150 70 OFFCURVE",
"161 58 CURVE SMOOTH",
"169 50 OFFCURVE",
"177 69 OFFCURVE",
"170 75 CURVE SMOOTH",
"166 78 OFFCURVE",
"153 107 OFFCURVE",
"107 167 CURVE",
"125 190 OFFCURVE",
"209 266 OFFCURVE",
"223 277 CURVE SMOOTH"
);
},
{
closed = 1;
nodes = (
"377 290 OFFCURVE",
"352 296 OFFCURVE",
"340 284 CURVE SMOOTH",
"336 280 OFFCURVE",
"305 261 OFFCURVE",
"281 242 CURVE SMOOTH",
"241 211 OFFCURVE",
"193 174 OFFCURVE",
"192 167 CURVE",
"187 165 OFFCURVE",
"188 150 OFFCURVE",
"193 149 CURVE SMOOTH",
"217 144 OFFCURVE",
"236 121 OFFCURVE",
"246 109 CURVE SMOOTH",
"271 81 OFFCURVE",
"285 70 OFFCURVE",
"296 58 CURVE SMOOTH",
"304 50 OFFCURVE",
"312 69 OFFCURVE",
"305 75 CURVE SMOOTH",
"301 78 OFFCURVE",
"288 107 OFFCURVE",
"242 167 CURVE",
"260 190 OFFCURVE",
"344 266 OFFCURVE",
"358 277 CURVE SMOOTH"
);
}
);
width = 346;
}
);
note = guillemotleft;
unicode = 00AB;
},
{
glyphname = logicalnot;
layers = (
{
hints = (
{
horizontal = 1;
place = "{265, 36}";
type = Stem;
},
{
place = "{582, 51}";
type = Stem;
}
);
layerId = "8B85D65B-9817-42FC-8CCD-19CD4C331E33";
paths = (
{
closed = 1;
nodes = (
"633 117 OFFCURVE",
"644 145 OFFCURVE",
"665 182 CURVE SMOOTH",
"687 219 OFFCURVE",
"710 251 OFFCURVE",
"734 277 CURVE",
"734 293 OFFCURVE",
"617 301 OFFCURVE",
"384 301 CURVE SMOOTH",
"273 301 OFFCURVE",
"166 293 OFFCURVE",
"63 278 CURVE SMOOTH",
"36 274 OFFCURVE",
"22 233 OFFCURVE",
"40 233 CURVE SMOOTH",
"43 233 OFFCURVE",
"48 235 OFFCURVE",
"55 239 CURVE SMOOTH",
"79 256 OFFCURVE",
"169 265 OFFCURVE",
"324 265 CURVE SMOOTH",
"422 265 OFFCURVE",
"529 260 OFFCURVE",
"644 250 CURVE",
"603 192 OFFCURVE",
"582 145 OFFCURVE",
"582 109 CURVE SMOOTH",
"582 86 OFFCURVE",
"597 73 OFFCURVE",
"627 70 CURVE",
"649 70 OFFCURVE",
"660 73 OFFCURVE",
"660 78 CURVE SMOOTH",
"660 79 OFFCURVE",
"633 85 OFFCURVE",
"633 100 CURVE SMOOTH"
);
}
);
width = 764;
}
);
note = logicalnot;
unicode = 00AC;
},
{
glyphname = registered;
layers = (
{
hints = (
{
horizontal = 1;
place = "{10, 39}";
type = Stem;
},
{
horizontal = 1;
place = "{294, 9}";
type = Stem;
},
{
place = "{58, 64}";
type = Stem;
},
{
place = "{396, 13}";
type = Stem;
},
{
horizontal = 1;
place = "{313, 38}";
type = Stem;
},
{
horizontal = 1;
place = "{24, 10}";
type = Stem;
}
);
layerId = "8B85D65B-9817-42FC-8CCD-19CD4C331E33";
paths = (
{
closed = 1;
nodes = (
"383 98 OFFCURVE",
"438 179 OFFCURVE",
"438 247 CURVE SMOOTH",
"438 316 OFFCURVE",
"381 367 OFFCURVE",
"309 367 CURVE SMOOTH",
"258 367 OFFCURVE",
"204 345 OFFCURVE",
"147 301 CURVE",
"79 287 OFFCURVE",
"45 270 OFFCURVE",
"45 250 CURVE SMOOTH",
"45 239 OFFCURVE",
"50 237 OFFCURVE",
"82 256 CURVE SMOOTH",
"99 266 OFFCURVE",
"109 272 OFFCURVE",
"113 273 CURVE",
"58 220 OFFCURVE",
"31 167 OFFCURVE",
"31 112 CURVE SMOOTH",
"31 78 OFFCURVE",
"44 50 OFFCURVE",
"70 27 CURVE SMOOTH",
"97 5 OFFCURVE",
"128 -6 OFFCURVE",
"165 -6 CURVE SMOOTH",
"202 -6 OFFCURVE",
"243 7 OFFCURVE",
"288 34 CURVE",
"303 21 OFFCURVE",
"316 14 OFFCURVE",
"325 14 CURVE SMOOTH",
"347 14 OFFCURVE",
"358 25 OFFCURVE",
"358 48 CURVE SMOOTH",
"358 51 OFFCURVE",
"356 54 OFFCURVE",
"353 59 CURVE",
"349 37 LINE SMOOTH",
"345 20 OFFCURVE",
"331 18 OFFCURVE",
"302 43 CURVE"
);
},
{
closed = 1;
nodes = (
"312 396 OFFCURVE",
"409 338 OFFCURVE",
"409 242 CURVE SMOOTH",
"409 211 OFFCURVE",
"398 177 OFFCURVE",
"376 142 CURVE SMOOTH",
"354 107 OFFCURVE",
"326 77 OFFCURVE",
"291 53 CURVE",
"269 77 OFFCURVE",
"241 112 OFFCURVE",
"207 158 CURVE",
"254 158 OFFCURVE",
"298 166 OFFCURVE",
"337 183 CURVE SMOOTH",
"376 200 OFFCURVE",
"396 224 OFFCURVE",
"396 254 CURVE SMOOTH",
"396 290 OFFCURVE",
"336 313 OFFCURVE",
"267 313 CURVE SMOOTH",
"232 313 OFFCURVE",
"205 311 OFFCURVE",
"184 308 CURVE"
);
},
{
closed = 1;
nodes = (
"273 297 OFFCURVE",
"259 304 OFFCURVE",
"219 264 CURVE SMOOTH",
"199 244 OFFCURVE",
"183 225 OFFCURVE",
"172 208 CURVE",
"169 212 OFFCURVE",
"167 214 OFFCURVE",
"164 214 CURVE SMOOTH",
"155 214 OFFCURVE",
"150 211 OFFCURVE",
"150 204 CURVE SMOOTH",
"150 202 OFFCURVE",
"153 197 OFFCURVE",
"159 188 CURVE",
"134 145 OFFCURVE",
"122 111 OFFCURVE",
"122 86 CURVE SMOOTH",
"122 61 OFFCURVE",
"126 49 OFFCURVE",
"134 49 CURVE",
"135 51 LINE",
"131 54 OFFCURVE",
"129 58 OFFCURVE",
"129 64 CURVE SMOOTH",
"129 86 OFFCURVE",
"143 121 OFFCURVE",
"172 169 CURVE",
"207 119 OFFCURVE",
"241 77 OFFCURVE",
"276 44 CURVE",
"204 -1 OFFCURVE",
"137 0 OFFCURVE",
"92 39 CURVE SMOOTH",
"69 58 OFFCURVE",
"58 83 OFFCURVE",
"58 112 CURVE SMOOTH",
"58 173 OFFCURVE",
"91 232 OFFCURVE",
"156 288 CURVE",
"199 298 OFFCURVE",
"239 303 OFFCURVE",
"274 303 CURVE SMOOTH",
"347 303 OFFCURVE",
"384 288 OFFCURVE",
"384 259 CURVE SMOOTH",
"384 238 OFFCURVE",
"364 218 OFFCURVE",
"324 197 CURVE SMOOTH",
"285 176 OFFCURVE",
"249 166 OFFCURVE",
"217 166 CURVE SMOOTH",
"212 166 OFFCURVE",
"207 167 OFFCURVE",
"200 168 CURVE",
"185 188 LINE",
"209 223 OFFCURVE",
"238 255 OFFCURVE",
"273 284 CURVE"
);
}
);
width = 480;
}
);
note = registered;
unicode = 00AE;
},
{
glyphname = overscore;
layers = (
{
hints = (
{
horizontal = 1;
place = "{424, 28}";
type = Stem;
},
{
place = "{20, 213}";
type = Stem;
}
);
layerId = "8B85D65B-9817-42FC-8CCD-19CD4C331E33";
paths = (
{
closed = 1;
nodes = (
"233 438 OFFCURVE",
"216 443 OFFCURVE",
"183 446 CURVE SMOOTH",
"150 450 OFFCURVE",
"120 452 OFFCURVE",
"93 452 CURVE SMOOTH",
"66 452 OFFCURVE",
"45 446 OFFCURVE",
"29 433 CURVE SMOOTH",
"17 424 OFFCURVE",
"15 412 OFFCURVE",
"35 412 CURVE SMOOTH",
"45 413 OFFCURVE",
"53 413 OFFCURVE",
"58 413 CURVE SMOOTH",
"70 414 OFFCURVE",
"86 416 OFFCURVE",
"109 417 CURVE SMOOTH",
"133 420 OFFCURVE",
"161 423 OFFCURVE",
"194 424 CURVE SMOOTH",
"229 425 OFFCURVE",
"233 426 OFFCURVE",
"233 433 CURVE SMOOTH"
);
}
);
width = 256;
}
);
note = overscore;
unicode = E000;
},
{
glyphname = degree;
layers = (
{
hints = (
{
horizontal = 1;
place = "{214, 17}";
type = Stem;
},
{
horizontal = 1;
place = "{327, 16}";
type = Stem;
},
{
place = "{49, 16}";
type = Stem;
},
{
place = "{162, 17}";
type = Stem;
}
);
layerId = "8B85D65B-9817-42FC-8CCD-19CD4C331E33";
paths = (
{
closed = 1;
nodes = (
"134 349 OFFCURVE",
"93 349 OFFCURVE",
"68 324 CURVE SMOOTH",
"43 299 OFFCURVE",
"43 260 OFFCURVE",
"68 233 CURVE SMOOTH",
"93 208 OFFCURVE",
"134 208 OFFCURVE",
"159 233 CURVE SMOOTH",
"186 260 OFFCURVE",
"186 299 OFFCURVE",
"159 324 CURVE SMOOTH"
);
},
{
closed = 1;
nodes = (
"128 226 OFFCURVE",
"99 226 OFFCURVE",
"79 245 CURVE SMOOTH",
"60 264 OFFCURVE",
"60 294 OFFCURVE",
"79 313 CURVE SMOOTH",
"99 332 OFFCURVE",
"128 332 OFFCURVE",
"147 313 CURVE SMOOTH",
"167 294 OFFCURVE",
"167 264 OFFCURVE",
"147 245 CURVE SMOOTH"
);
}
);
width = 213;
}
);
note = degree;
unicode = 00B0;
},
{
glyphname = plusminus;
layers = (
{
hints = (
{
horizontal = 1;
place = "{22, 24}";
type = Stem;
},
{
horizontal = 1;
place = "{193, 16}";
type = Stem;
},
{
place = "{165, 19}";
type = Stem;
},
{
horizontal = 1;
place = "{188, 23}";
type = Stem;
}
);
layerId = "8B85D65B-9817-42FC-8CCD-19CD4C331E33";
paths = (
{
closed = 1;
nodes = (
"135 211 LINE SMOOTH",
"99 211 OFFCURVE",
"70 210 OFFCURVE",
"49 207 CURVE",
"46 203 LINE",
"47 193 OFFCURVE",
"52 188 OFFCURVE",
"60 188 CURVE SMOOTH",
"165 191 LINE",
"165 189 LINE SMOOTH",
"165 150 OFFCURVE",
"166 122 OFFCURVE",
"167 106 CURVE SMOOTH",
"168 90 OFFCURVE",
"168 73 OFFCURVE",
"172 77 CURVE",
"180 77 OFFCURVE",
"184 115 OFFCURVE",
"184 192 CURVE",
"221 193 OFFCURVE",
"258 193 OFFCURVE",
"297 193 CURVE",
"305 198 LINE",
"305 201 LINE SMOOTH",
"305 204 OFFCURVE",
"277 207 OFFCURVE",
"222 209 CURVE SMOOTH",
"200 210 OFFCURVE",
"187 210 OFFCURVE",
"184 211 CURVE",
"184 239 LINE SMOOTH",
"184 279 OFFCURVE",
"183 307 OFFCURVE",
"181 324 CURVE",
"177 328 LINE",
"166 326 OFFCURVE",
"160 321 OFFCURVE",
"160 314 CURVE SMOOTH",
"165 211 LINE"
);
},
{
closed = 1;
nodes = (
"116 22 OFFCURVE",
"143 24 OFFCURVE",
"182 27 CURVE SMOOTH",
"221 30 OFFCURVE",
"241 33 OFFCURVE",
"241 35 CURVE",
"234 42 OFFCURVE",
"209 46 OFFCURVE",
"165 46 CURVE SMOOTH",
"121 46 OFFCURVE",
"95 44 OFFCURVE",
"86 40 CURVE",
"85 40 LINE",
"87 28 OFFCURVE",
"92 22 OFFCURVE",
"101 22 CURVE SMOOTH"
);
}
);
width = 330;
}
);
note = plusminus;
unicode = 00B1;
},
{
glyphname = twosuperior;
layers = (
{
hints = (
{
horizontal = 1;
place = "{-12, 53}";
type = Stem;
},
{
horizontal = 1;
place = "{365, 25}";
type = Stem;
},
{
place = "{116, 33}";
type = Stem;
},
{
place = "{340, 14}";
type = Stem;
},
{
place = "{396, 44}";
type = Stem;
}
);
layerId = "8B85D65B-9817-42FC-8CCD-19CD4C331E33";
paths = (
{
closed = 1;
nodes = (
"149 265 LINE",
"149 284 OFFCURVE",
"179 305 OFFCURVE",
"238 329 CURVE SMOOTH",
"297 353 OFFCURVE",
"341 365 OFFCURVE",
"370 365 CURVE SMOOTH",
"387 365 OFFCURVE",
"396 360 OFFCURVE",
"396 350 CURVE SMOOTH",
"396 345 OFFCURVE",
"394 338 OFFCURVE",
"389 331 CURVE",
"328 220 OFFCURVE",
"204 112 OFFCURVE",
"19 6 CURVE",
"24 -18 OFFCURVE",
"30 -30 OFFCURVE",
"37 -30 CURVE",
"152 -18 LINE SMOOTH",
"232 -10 OFFCURVE",
"303 -10 OFFCURVE",
"323 -17 CURVE SMOOTH",
"334 -20 OFFCURVE",
"339 -23 OFFCURVE",
"340 -26 CURVE",
"343 -31 OFFCURVE",
"339 -40 OFFCURVE",
"342 -40 CURVE SMOOTH",
"350 -40 OFFCURVE",
"354 -30 OFFCURVE",
"354 -10 CURVE SMOOTH",
"354 24 OFFCURVE",
"314 41 OFFCURVE",
"234 41 CURVE SMOOTH",
"193 41 OFFCURVE",
"152 37 OFFCURVE",
"111 29 CURVE",
"207 80 OFFCURVE",
"286 135 OFFCURVE",
"347 195 CURVE SMOOTH",
"409 256 OFFCURVE",
"440 301 OFFCURVE",
"440 330 CURVE SMOOTH",
"440 370 OFFCURVE",
"413 390 OFFCURVE",
"360 390 CURVE SMOOTH",
"314 390 OFFCURVE",
"262 379 OFFCURVE",
"203 358 CURVE SMOOTH",
"145 337 OFFCURVE",
"116 315 OFFCURVE",
"116 293 CURVE SMOOTH",
"116 286 OFFCURVE",
"121 277 OFFCURVE",
"130 265 CURVE SMOOTH",
"139 254 OFFCURVE",
"146 248 OFFCURVE",
"150 248 CURVE SMOOTH",
"154 248 OFFCURVE",
"156 249 OFFCURVE",
"156 252 CURVE"
);
}
);
width = 368;
}
);
note = twosuperior;
unicode = 00B2;
},
{
glyphname = threesuperior;
layers = (
{
hints = (
{
horizontal = 1;
place = "{-56, 61}";
type = Stem;
},
{
horizontal = 1;
place = "{183, 37}";
type = Stem;
},
{
horizontal = 1;
place = "{356, 38}";
type = Stem;
},
{
place = "{15, 13}";
type = Stem;
},
{
place = "{141, 19}";
type = Stem;
},
{
place = "{392, 35}";
type = Stem;
},
{
place = "{336, 32}";
type = Stem;
}
);
layerId = "8B85D65B-9817-42FC-8CCD-19CD4C331E33";
paths = (
{
closed = 1;
nodes = (
"160 308 LINE",
"160 337 OFFCURVE",
"211 356 OFFCURVE",
"290 356 CURVE SMOOTH",
"426 356 OFFCURVE",
"422 318 OFFCURVE",
"302 266 CURVE SMOOTH",
"242 240 OFFCURVE",
"201 226 OFFCURVE",
"178 224 CURVE SMOOTH",
"163 223 OFFCURVE",
"139 220 OFFCURVE",
"136 220 CURVE",
"149 193 LINE SMOOTH",
"154 181 OFFCURVE",
"159 175 OFFCURVE",
"166 175 CURVE",
"233 183 LINE",
"302 183 OFFCURVE",
"336 168 OFFCURVE",
"336 138 CURVE SMOOTH",
"336 109 OFFCURVE",
"312 79 OFFCURVE",
"264 49 CURVE SMOOTH",
"216 20 OFFCURVE",
"167 5 OFFCURVE",
"116 5 CURVE SMOOTH",
"57 5 OFFCURVE",
"28 25 OFFCURVE",
"28 64 CURVE SMOOTH",
"28 69 OFFCURVE",
"30 78 OFFCURVE",
"34 91 CURVE SMOOTH",
"39 104 OFFCURVE",
"41 112 OFFCURVE",
"41 113 CURVE SMOOTH",
"41 118 OFFCURVE",
"39 120 OFFCURVE",
"36 120 CURVE SMOOTH",
"22 120 OFFCURVE",
"15 102 OFFCURVE",
"15 65 CURVE SMOOTH",
"15 29 OFFCURVE",
"26 0 OFFCURVE",
"47 -22 CURVE SMOOTH",
"68 -45 OFFCURVE",
"97 -56 OFFCURVE",
"134 -56 CURVE SMOOTH",
"188 -56 OFFCURVE",
"240 -38 OFFCURVE",
"291 -3 CURVE SMOOTH",
"342 32 OFFCURVE",
"368 70 OFFCURVE",
"368 113 CURVE SMOOTH",
"368 146 OFFCURVE",
"346 178 OFFCURVE",
"302 208 CURVE",
"394 255 OFFCURVE",
"427 279 OFFCURVE",
"427 322 CURVE SMOOTH",
"427 344 OFFCURVE",
"412 361 OFFCURVE",
"382 374 CURVE SMOOTH",
"353 387 OFFCURVE",
"318 394 OFFCURVE",
"277 394 CURVE SMOOTH",
"236 394 OFFCURVE",
"203 388 OFFCURVE",
"178 377 CURVE SMOOTH",
"153 366 OFFCURVE",
"141 353 OFFCURVE",
"141 336 CURVE SMOOTH",
"141 331 OFFCURVE",
"143 322 OFFCURVE",
"147 310 CURVE SMOOTH",
"152 298 OFFCURVE",
"155 292 OFFCURVE",
"158 292 CURVE SMOOTH",
"161 292 OFFCURVE",
"162 294 OFFCURVE",
"162 298 CURVE"
);
}
);
width = 412;
}
);
note = threesuperior;
unicode = 00B3;
},
